<?xml version="1.0" encoding="UTF-8" standalone="no"?>
<svg
   inkscape:export-ydpi="96"
   inkscape:export-xdpi="96"
   width="400"
   height="300"
   id="svg11300"
   sodipodi:version="0.32"
   inkscape:version="1.4.2 (ebf0e940d0, 2025-05-08)"
   sodipodi:docname="libreoffice-base.svg"
   inkscape:output_extension="org.inkscape.output.svg.inkscape"
   version="1.0"
   style="display:inline;enable-background:new"
   inkscape:export-filename="/home/stuart/Pictures/evince rearranged.png"
   xml:space="preserve"
   xmlns:inkscape="http://www.inkscape.org/namespaces/inkscape"
   xmlns:sodipodi="http://sodipodi.sourceforge.net/DTD/sodipodi-0.dtd"
   xmlns:xlink="http://www.w3.org/1999/xlink"
   xmlns="http://www.w3.org/2000/svg"
   xmlns:svg="http://www.w3.org/2000/svg"
   xmlns:rdf="http://www.w3.org/1999/02/22-rdf-syntax-ns#"
   xmlns:cc="http://creativecommons.org/ns#"
   xmlns:dc="http://purl.org/dc/elements/1.1/"><title
     id="title3004">Suru Icon Theme Template</title><sodipodi:namedview
     stroke="#ef2929"
     fill="#f57900"
     id="base"
     pagecolor="#aeaeae"
     bordercolor="#000000"
     borderopacity="0.25490196"
     inkscape:pageopacity="0"
     inkscape:pageshadow="2"
     inkscape:zoom="2.3976148"
     inkscape:cx="284.03228"
     inkscape:cy="328.45142"
     inkscape:current-layer="layer8"
     showgrid="false"
     inkscape:grid-bbox="true"
     inkscape:document-units="px"
     inkscape:showpageshadow="false"
     inkscape:window-width="1854"
     inkscape:window-height="1011"
     inkscape:window-x="0"
     inkscape:window-y="0"
     width="400px"
     height="300px"
     inkscape:snap-nodes="true"
     inkscape:snap-bbox="true"
     gridtolerance="10000"
     inkscape:object-nodes="true"
     inkscape:snap-grids="true"
     showguides="false"
     inkscape:guide-bbox="true"
     inkscape:window-maximized="1"
     inkscape:bbox-paths="true"
     inkscape:snap-bbox-midpoints="true"
     inkscape:snap-global="false"
     inkscape:object-paths="true"
     inkscape:snap-intersection-paths="true"
     inkscape:snap-smooth-nodes="true"
     inkscape:pagecheckerboard="false"
     showborder="false"
     inkscape:document-rotation="0"
     inkscape:deskcolor="#d1d1d1"><inkscape:grid
       spacingy="1"
       spacingx="1"
       id="grid5883"
       type="xygrid"
       enabled="true"
       visible="true"
       empspacing="4"
       snapvisiblegridlinesonly="true"
       originx="0"
       originy="0"
       units="px" /><inkscape:grid
       type="xygrid"
       id="grid11592"
       empspacing="2"
       visible="true"
       enabled="false"
       spacingx="0.5"
       spacingy="0.5"
       color="#ff0000"
       opacity="0.1254902"
       empcolor="#ff0000"
       empopacity="0.25098039"
       snapvisiblegridlinesonly="true"
       originx="0"
       originy="0"
       units="px" /><sodipodi:guide
       position="335,152"
       orientation="1,0"
       id="guide80"
       inkscape:locked="false" /><sodipodi:guide
       position="339.1372,155"
       orientation="0,-1"
       id="guide81"
       inkscape:locked="false" /><sodipodi:guide
       position="344,155"
       orientation="1,0"
       id="guide82"
       inkscape:locked="false" /><sodipodi:guide
       position="340,155"
       orientation="1,0"
       id="guide83"
       inkscape:locked="false" /><sodipodi:guide
       position="339,155"
       orientation="1,0"
       id="guide84"
       inkscape:locked="false" /><sodipodi:guide
       position="336,154"
       orientation="0,-1"
       id="guide85"
       inkscape:locked="false" /><sodipodi:guide
       position="336,154"
       orientation="1,0"
       id="guide86"
       inkscape:locked="false" /><sodipodi:guide
       position="340,152"
       orientation="0,-1"
       id="guide87"
       inkscape:locked="false" /><sodipodi:guide
       position="343,153.17642"
       orientation="1,0"
       id="guide88"
       inkscape:locked="false" /><sodipodi:guide
       position="340,151"
       orientation="0,-1"
       id="guide89"
       inkscape:locked="false" /><sodipodi:guide
       position="340,152"
       orientation="1,0"
       id="guide90"
       inkscape:locked="false" /><sodipodi:guide
       position="340,149"
       orientation="0,-1"
       id="guide91"
       inkscape:locked="false" /><sodipodi:guide
       position="335.00382,148"
       orientation="0,-1"
       id="guide92"
       inkscape:locked="false" /><sodipodi:guide
       position="340,146"
       orientation="0,-1"
       id="guide93"
       inkscape:locked="false" /><sodipodi:guide
       position="340,145"
       orientation="0,-1"
       id="guide94"
       inkscape:locked="false" /></sodipodi:namedview><defs
     id="defs3"><inkscape:path-effect
       effect="fillet_chamfer"
       id="path-effect23"
       is_visible="true"
       lpeversion="1"
       nodesatellites_param="F,0,0,1,0,0,0,1 @ F,0,0,1,0,0,0,1 @ F,0,0,1,0,0,0,1 @ F,0,0,1,0,0,0,1 @ F,0,0,1,0,0,0,1 @ F,0,0,1,0,0,0,1 @ F,0,0,1,0,0,0,1"
       radius="0"
       unit="px"
       method="auto"
       mode="F"
       chamfer_steps="1"
       flexible="false"
       use_knot_distance="true"
       apply_no_radius="true"
       apply_with_radius="true"
       only_selected="false"
       hide_knots="false" /><inkscape:path-effect
       effect="fillet_chamfer"
       id="path-effect22"
       is_visible="true"
       lpeversion="1"
       nodesatellites_param="F,0,0,1,0,0,0,1 @ F,0,0,1,0,0,0,1 @ F,0,0,1,0,0,0,1 @ F,0,0,1,0,0,0,1"
       radius="0"
       unit="px"
       method="auto"
       mode="F"
       chamfer_steps="1"
       flexible="false"
       use_knot_distance="true"
       apply_no_radius="true"
       apply_with_radius="true"
       only_selected="false"
       hide_knots="false" /><inkscape:path-effect
       effect="fillet_chamfer"
       id="path-effect21"
       is_visible="true"
       lpeversion="1"
       nodesatellites_param="F,0,0,1,0,11,0,1 @ F,0,0,1,0,11,0,1 @ F,0,0,1,0,11,0,1 @ F,0,0,1,0,11,0,1 @ F,0,0,1,0,11,0,1 @ F,0,0,1,0,11,0,1 @ F,0,0,1,0,11,0,1"
       radius="11"
       unit="px"
       method="auto"
       mode="F"
       chamfer_steps="1"
       flexible="false"
       use_knot_distance="true"
       apply_no_radius="true"
       apply_with_radius="true"
       only_selected="false"
       hide_knots="false" /><filter
       inkscape:collect="always"
       style="color-interpolation-filters:sRGB"
       id="filter4346"
       x="-0.014454287"
       width="1.0289086"
       y="-0.011357288"
       height="1.0227146"><feGaussianBlur
         inkscape:collect="always"
         stdDeviation="2.120027"
         id="feGaussianBlur4348" /></filter><filter
       inkscape:collect="always"
       style="color-interpolation-filters:sRGB"
       id="filter4380"
       x="-0.057817147"
       width="1.1156343"
       y="-0.045429151"
       height="1.0908583"><feGaussianBlur
         inkscape:collect="always"
         stdDeviation="8.4801079"
         id="feGaussianBlur4382" /></filter><linearGradient
       inkscape:collect="always"
       id="linearGradient927"><stop
         style="stop-color:#ffffff;stop-opacity:1;"
         offset="0"
         id="stop923" /><stop
         id="stop933"
         offset="0.125"
         style="stop-color:#ffffff;stop-opacity:0.09803922" /><stop
         id="stop931"
         offset="0.92500001"
         style="stop-color:#ffffff;stop-opacity:0.09803922" /><stop
         style="stop-color:#ffffff;stop-opacity:0.49803922"
         offset="1"
         id="stop925" /></linearGradient><clipPath
       clipPathUnits="userSpaceOnUse"
       id="clipPath994"><path
         style="color:#000000;display:inline;overflow:visible;visibility:visible;fill:#cdcdcd;fill-opacity:1;fill-rule:nonzero;stroke:none;stroke-width:2;stroke-miterlimit:4;stroke-dasharray:none;stroke-opacity:1;marker:none;enable-background:accumulate"
         d="m 335.73108,62 c -8.82418,0 -9.77365,0.90635 -9.7304,9.74838 V 84 96.25162 c -0.0433,8.84203 0.90622,9.74838 9.7304,9.74838 h 16.53919 c 8.82418,0 9.7304,-0.90625 9.7304,-9.74838 V 84 71.74838 C 362.00067,62.90625 361.09445,62 352.27027,62 Z"
         id="path996"
         inkscape:connector-curvature="0"
         sodipodi:nodetypes="scccssscsss" /></clipPath><linearGradient
       inkscape:collect="always"
       xlink:href="#linearGradient4245"
       id="linearGradient916"
       gradientUnits="userSpaceOnUse"
       gradientTransform="matrix(0,-0.05921519,0.05978336,0,313.2699,214.63635)"
       x1="441.37936"
       y1="240.30258"
       x2="52.965523"
       y2="386.30795" /><clipPath
       clipPathUnits="userSpaceOnUse"
       id="clipPath971"><path
         style="color:#000000;display:inline;overflow:visible;visibility:visible;opacity:1;fill:#46a926;fill-opacity:1;fill-rule:nonzero;stroke:none;stroke-width:2;stroke-miterlimit:4;stroke-dasharray:none;stroke-opacity:1;marker:none;enable-background:accumulate"
         d="m 327.8652,189 c -4.41209,0 -4.88682,0.45318 -4.8652,4.87419 V 200 206.12581 C 322.9783,210.54682 323.45311,211 327.8652,211 h 8.2696 C 340.54689,211 341,210.54688 341,206.12581 V 200 193.87419 C 341,189.45313 340.54688,189 336.13479,189 Z"
         id="path973"
         inkscape:connector-curvature="0"
         sodipodi:nodetypes="scccssscsss" /></clipPath><linearGradient
       inkscape:collect="always"
       xlink:href="#linearGradient927"
       id="linearGradient981"
       x1="332"
       y1="189"
       x2="332"
       y2="211"
       gradientUnits="userSpaceOnUse" /><clipPath
       clipPathUnits="userSpaceOnUse"
       id="clipPath983"><path
         sodipodi:nodetypes="scccssscsss"
         inkscape:connector-curvature="0"
         id="path985"
         d="m 325.09646,237 c -2.80769,0 -3.10979,0.28839 -3.09603,3.10176 V 244 v 3.89824 c -0.0138,2.81337 0.28834,3.10176 3.09603,3.10176 h 5.8075 C 333.71166,251 334,250.71165 334,247.89824 V 244 240.10176 C 334,237.28836 333.71165,237 330.90396,237 Z"
         style="color:#000000;display:inline;overflow:visible;visibility:visible;opacity:1;fill:#46a926;fill-opacity:1;fill-rule:nonzero;stroke:none;stroke-width:2;stroke-miterlimit:4;stroke-dasharray:none;stroke-opacity:1;marker:none;enable-background:accumulate" /></clipPath><linearGradient
       inkscape:collect="always"
       xlink:href="#linearGradient927"
       id="linearGradient1004-8"
       x1="344"
       y1="62"
       x2="344"
       y2="106"
       gradientUnits="userSpaceOnUse" /><clipPath
       clipPathUnits="userSpaceOnUse"
       id="clipPath994-1"><path
         style="color:#000000;display:inline;overflow:visible;visibility:visible;fill:#cdcdcd;fill-opacity:1;fill-rule:nonzero;stroke:none;stroke-width:2;stroke-miterlimit:4;stroke-dasharray:none;stroke-opacity:1;marker:none;enable-background:accumulate"
         d="m 335.73108,62 c -8.82418,0 -9.77365,0.90635 -9.7304,9.74838 V 84 96.25162 c -0.0433,8.84203 0.90622,9.74838 9.7304,9.74838 h 16.53919 c 8.82418,0 9.7304,-0.90625 9.7304,-9.74838 V 84 71.74838 C 362.00067,62.90625 361.09445,62 352.27027,62 Z"
         id="path996-8"
         inkscape:connector-curvature="0"
         sodipodi:nodetypes="scccssscsss" /></clipPath><linearGradient
       id="linearGradient4245"
       inkscape:collect="always"><stop
         id="stop4241"
         offset="0"
         style="stop-color:#e8e8e8;stop-opacity:1" /><stop
         id="stop4243"
         offset="1"
         style="stop-color:#f5f5f5;stop-opacity:1" /></linearGradient><linearGradient
       inkscape:collect="always"
       xlink:href="#linearGradient927"
       id="linearGradient2673"
       x1="344"
       y1="62"
       x2="344"
       y2="106"
       gradientUnits="userSpaceOnUse"
       gradientTransform="translate(2.9751576e-4)" /><clipPath
       clipPathUnits="userSpaceOnUse"
       id="clipPath994-1-3"><path
         style="color:#000000;display:inline;overflow:visible;visibility:visible;fill:#cdcdcd;fill-opacity:1;fill-rule:nonzero;stroke:none;stroke-width:2;stroke-miterlimit:4;stroke-dasharray:none;stroke-opacity:1;marker:none;enable-background:accumulate"
         d="m 335.73108,62 c -8.82418,0 -9.77365,0.90635 -9.7304,9.74838 V 84 96.25162 c -0.0433,8.84203 0.90622,9.74838 9.7304,9.74838 h 16.53919 c 8.82418,0 9.7304,-0.90625 9.7304,-9.74838 V 84 71.74838 C 362.00067,62.90625 361.09445,62 352.27027,62 Z"
         id="path996-8-2"
         inkscape:connector-curvature="0"
         sodipodi:nodetypes="scccssscsss" /></clipPath><linearGradient
       inkscape:collect="always"
       xlink:href="#linearGradient927"
       id="linearGradient920-6"
       gradientUnits="userSpaceOnUse"
       gradientTransform="matrix(0,-0.0386186,0.03904659,0,315.4715,253.5572)"
       x1="428.4324"
       y1="320.86029"
       x2="65.912796"
       y2="320.86029" /></defs><metadata
     id="metadata4"><rdf:RDF><cc:Work
         rdf:about=""><dc:format>image/svg+xml</dc:format><dc:type
           rdf:resource="http://purl.org/dc/dcmitype/StillImage" /><dc:creator><cc:Agent><dc:title>Sam Hewitt</dc:title></cc:Agent></dc:creator><dc:source /><cc:license
           rdf:resource="http://creativecommons.org/licenses/by-sa/4.0/" /><dc:title>Suru Icon Theme Template</dc:title><dc:subject><rdf:Bag /></dc:subject><dc:date /><dc:rights><cc:Agent><dc:title /></cc:Agent></dc:rights><dc:publisher><cc:Agent><dc:title /></cc:Agent></dc:publisher><dc:identifier /><dc:relation /><dc:language /><dc:coverage /><dc:description /><dc:contributor><cc:Agent><dc:title /></cc:Agent></dc:contributor></cc:Work><cc:Work
         rdf:about=""><dc:format>image/svg+xml</dc:format><dc:type
           rdf:resource="http://purl.org/dc/dcmitype/StillImage" /></cc:Work><cc:License
         rdf:about="http://creativecommons.org/licenses/by-sa/4.0/"><cc:permits
           rdf:resource="http://creativecommons.org/ns#Reproduction" /><cc:permits
           rdf:resource="http://creativecommons.org/ns#Distribution" /><cc:requires
           rdf:resource="http://creativecommons.org/ns#Notice" /><cc:requires
           rdf:resource="http://creativecommons.org/ns#Attribution" /><cc:permits
           rdf:resource="http://creativecommons.org/ns#DerivativeWorks" /><cc:requires
           rdf:resource="http://creativecommons.org/ns#ShareAlike" /></cc:License></rdf:RDF></metadata><g
     style="display:inline"
     inkscape:groupmode="layer"
     inkscape:label="Icon"
     id="layer1"><g
       style="display:none"
       inkscape:label="Baseplate"
       id="layer7"
       inkscape:groupmode="layer"><text
         y="-8.2548828"
         xml:space="preserve"
         x="19.006836"
         style="font-style:normal;font-variant:normal;font-weight:normal;font-stretch:normal;line-height:0%;font-family:'DejaVu Sans';-inkscape-font-specification:'DejaVu Sans';display:inline;fill:#000000;fill-opacity:1;stroke:none;enable-background:new"
         inkscape:label="context"
         id="context"><tspan
           style="font-style:normal;font-variant:normal;font-weight:normal;font-stretch:normal;font-size:18px;line-height:1.25;font-family:'DejaVu Sans';-inkscape-font-specification:'DejaVu Sans'"
           y="-8.2548828"
           x="19.006836"
           sodipodi:role="line"
           id="tspan3933">apps</tspan></text><text
         y="-8.2548828"
         xml:space="preserve"
         x="146.48828"
         style="font-style:normal;font-variant:normal;font-weight:bold;font-stretch:normal;line-height:0%;font-family:'DejaVu Sans';-inkscape-font-specification:'DejaVu Sans Bold';text-align:start;writing-mode:lr-tb;text-anchor:start;display:inline;fill:#000000;fill-opacity:1;stroke:none;enable-background:new"
         inkscape:label="icon-name"
         id="icon-name"><tspan
           style="font-style:normal;font-variant:normal;font-weight:bold;font-stretch:normal;font-size:18px;line-height:1.25;font-family:'DejaVu Sans';-inkscape-font-specification:'DejaVu Sans Bold'"
           y="-8.2548828"
           x="146.48828"
           sodipodi:role="line"
           id="tspan1">libreoffice-base</tspan></text><rect
         style="display:inline;overflow:visible;visibility:visible;fill:#cdcdcd;fill-opacity:1;fill-rule:nonzero;stroke:none;stroke-width:2;marker:none;enable-background:accumulate"
         id="rect16x16"
         width="16"
         height="16"
         x="320"
         y="236"
         inkscape:label="16x16" /><rect
         style="display:inline;overflow:visible;visibility:visible;fill:#cdcdcd;fill-opacity:1;fill-rule:nonzero;stroke:none;stroke-width:2;marker:none;enable-background:accumulate"
         id="rect24x24"
         width="24"
         height="24"
         x="320"
         y="188"
         inkscape:label="24x24" /><rect
         style="display:inline;overflow:visible;visibility:visible;fill:#cdcdcd;fill-opacity:1;fill-rule:nonzero;stroke:none;stroke-width:2;marker:none;enable-background:accumulate"
         id="rect32x32"
         width="32"
         height="32"
         x="320"
         y="132"
         inkscape:label="32x32" /><rect
         inkscape:label="48x48"
         y="60"
         x="320"
         height="48"
         width="48"
         id="rect48x48"
         style="display:inline;overflow:visible;visibility:visible;fill:#cdcdcd;fill-opacity:1;fill-rule:nonzero;stroke:none;stroke-width:2;marker:none;enable-background:accumulate" /><rect
         style="display:inline;overflow:visible;visibility:visible;fill:#cdcdcd;fill-opacity:1;fill-rule:nonzero;stroke:none;stroke-width:2;marker:none;enable-background:accumulate"
         id="rect3951"
         width="256"
         height="256"
         x="24"
         y="28"
         inkscape:label="48x48" /></g><g
       inkscape:groupmode="layer"
       id="layer8"
       inkscape:label="Backgrounds"
       style="display:inline"><path
         style="color:#000000;font-style:normal;font-variant:normal;font-weight:normal;font-stretch:normal;font-size:medium;line-height:normal;font-family:sans-serif;font-variant-ligatures:normal;font-variant-position:normal;font-variant-caps:normal;font-variant-numeric:normal;font-variant-alternates:normal;font-feature-settings:normal;text-indent:0;text-align:start;text-decoration:none;text-decoration-line:none;text-decoration-style:solid;text-decoration-color:#000000;letter-spacing:normal;word-spacing:normal;text-transform:none;writing-mode:lr-tb;direction:ltr;text-orientation:mixed;dominant-baseline:auto;baseline-shift:baseline;text-anchor:start;white-space:normal;shape-padding:0;clip-rule:nonzero;display:inline;overflow:visible;visibility:visible;opacity:0.1;isolation:auto;mix-blend-mode:normal;color-interpolation:sRGB;color-interpolation-filters:linearRGB;solid-color:#000000;solid-opacity:1;vector-effect:none;fill:#000000;fill-opacity:1;fill-rule:nonzero;stroke:none;stroke-width:2;stroke-linecap:butt;stroke-linejoin:miter;stroke-miterlimit:4;stroke-dasharray:none;stroke-dashoffset:0;stroke-opacity:1;marker:none;color-rendering:auto;image-rendering:auto;shape-rendering:auto;text-rendering:auto;enable-background:accumulate"
         d="m 327.86523,189 c -1.12014,0 -2.01524,0.0241 -2.79101,0.1543 -0.77577,0.13022 -1.48014,0.38763 -2.00977,0.91601 -0.52962,0.52838 -0.79079,1.23687 -0.91992,2.01367 -0.12912,0.77681 -0.15002,1.67169 -0.14453,2.79493 V 201 v 6.125 c -0.005,1.12104 0.0156,2.01529 0.14453,2.79102 0.12912,0.77681 0.39029,1.48529 0.91992,2.01367 0.52964,0.52838 1.234,0.78579 2.00977,0.91601 0.77577,0.13022 1.67087,0.1543 2.79101,0.1543 h 8.26954 c 1.12013,0 2.01264,-0.024 2.78711,-0.1543 0.77446,-0.13033 1.48001,-0.38927 2.00781,-0.91797 0.5278,-0.52869 0.78594,-1.23438 0.91601,-2.00976 C 341.97577,209.14258 342,208.24735 342,207.125 V 201 194.875 c 0,-1.12235 -0.0242,-2.01758 -0.1543,-2.79297 -0.13007,-0.77538 -0.38821,-1.48107 -0.91601,-2.00976 -0.5278,-0.5287 -1.23334,-0.78764 -2.00781,-0.91797 C 338.1474,189.02397 337.25491,189 336.13477,189 Z"
         id="path995"
         inkscape:connector-curvature="0"
         sodipodi:nodetypes="sccccccccssscccscscccss" /><path
         style="color:#000000;font-style:normal;font-variant:normal;font-weight:normal;font-stretch:normal;font-size:medium;line-height:normal;font-family:sans-serif;font-variant-ligatures:normal;font-variant-position:normal;font-variant-caps:normal;font-variant-numeric:normal;font-variant-alternates:normal;font-feature-settings:normal;text-indent:0;text-align:start;text-decoration:none;text-decoration-line:none;text-decoration-style:solid;text-decoration-color:#000000;letter-spacing:normal;word-spacing:normal;text-transform:none;writing-mode:lr-tb;direction:ltr;text-orientation:mixed;dominant-baseline:auto;baseline-shift:baseline;text-anchor:start;white-space:normal;shape-padding:0;clip-rule:nonzero;display:inline;overflow:visible;visibility:visible;opacity:0.1;isolation:auto;mix-blend-mode:normal;color-interpolation:sRGB;color-interpolation-filters:linearRGB;solid-color:#000000;solid-opacity:1;vector-effect:none;fill:#000000;fill-opacity:1;fill-rule:nonzero;stroke:none;stroke-width:2;stroke-linecap:butt;stroke-linejoin:miter;stroke-miterlimit:4;stroke-dasharray:none;stroke-dashoffset:0;stroke-opacity:1;marker:none;color-rendering:auto;image-rendering:auto;shape-rendering:auto;text-rendering:auto;enable-background:accumulate"
         d="m 325.0957,237 c -0.71904,0 -1.30185,0.0139 -1.83593,0.10352 -0.53409,0.0897 -1.0683,0.27628 -1.47657,0.68359 -0.40826,0.4073 -0.59657,0.94323 -0.68554,1.47851 -0.089,0.53529 -0.10119,1.12048 -0.0977,1.8418 V 244 v 3.89844 c -0.003,0.71816 0.009,1.30235 0.0977,1.83594 0.089,0.53528 0.27727,1.07121 0.68554,1.47851 0.40827,0.40731 0.94248,0.59394 1.47657,0.68359 0.53408,0.0897 1.11689,0.10352 1.83593,0.10352 h 5.8086 c 0.71904,0 1.30058,-0.0137 1.83398,-0.10352 0.53341,-0.0898 1.06768,-0.27792 1.47461,-0.68554 0.40693,-0.40762 0.59404,-0.94271 0.68359,-1.47656 C 334.98604,249.20052 335,248.61887 335,247.89844 V 244 241.10156 c 0,-0.72043 -0.014,-1.30208 -0.10352,-1.83594 -0.0895,-0.53385 -0.27666,-1.06894 -0.68359,-1.47656 -0.40693,-0.40762 -0.9412,-0.59578 -1.47461,-0.68554 C 332.20488,237.01375 331.62334,237 330.9043,237 Z"
         id="path997"
         inkscape:connector-curvature="0"
         sodipodi:nodetypes="scscccccccsscscscscscss" /><path
         style="color:#000000;font-style:normal;font-variant:normal;font-weight:normal;font-stretch:normal;font-size:medium;line-height:normal;font-family:sans-serif;font-variant-ligatures:normal;font-variant-position:normal;font-variant-caps:normal;font-variant-numeric:normal;font-variant-alternates:normal;font-feature-settings:normal;text-indent:0;text-align:start;text-decoration:none;text-decoration-line:none;text-decoration-style:solid;text-decoration-color:#000000;letter-spacing:normal;word-spacing:normal;text-transform:none;writing-mode:lr-tb;direction:ltr;text-orientation:mixed;dominant-baseline:auto;baseline-shift:baseline;text-anchor:start;white-space:normal;shape-padding:0;clip-rule:nonzero;display:inline;overflow:visible;visibility:visible;opacity:0.1;isolation:auto;mix-blend-mode:normal;color-interpolation:sRGB;color-interpolation-filters:linearRGB;solid-color:#000000;solid-opacity:1;vector-effect:none;fill:#000000;fill-opacity:1;fill-rule:nonzero;stroke:none;stroke-width:2;stroke-linecap:butt;stroke-linejoin:miter;stroke-miterlimit:4;stroke-dasharray:none;stroke-dashoffset:0;stroke-opacity:1;marker:none;color-rendering:auto;image-rendering:auto;shape-rendering:auto;text-rendering:auto;enable-background:accumulate"
         d="m 330.19336,134 c -1.42096,0 -2.54883,0.0308 -3.50586,0.19141 -0.95703,0.16064 -1.79146,0.4726 -2.41211,1.09179 -0.62065,0.61919 -0.93647,1.45612 -1.0957,2.41407 -0.15924,0.95795 -0.18666,2.08705 -0.17969,3.51171 V 149 v 7.79688 c -0.007,1.42131 0.0207,2.5495 0.17969,3.50585 0.15923,0.95796 0.47505,1.79488 1.0957,2.41407 0.62065,0.61919 1.45508,0.93115 2.41211,1.09179 0.95703,0.16065 2.0849,0.19141 3.50586,0.19141 h 11.61523 c 1.42097,0 2.54669,-0.0307 3.50196,-0.19141 0.95527,-0.16075 1.78779,-0.47425 2.40625,-1.09375 0.61845,-0.6195 0.93134,-1.45363 1.09179,-2.41015 C 348.96905,159.34816 349,158.22066 349,156.79688 V 149 141.20312 c 0,-1.42378 -0.031,-2.55128 -0.19141,-3.50781 -0.16045,-0.95653 -0.47334,-1.79065 -1.09179,-2.41015 -0.61846,-0.61951 -1.45098,-0.933 -2.40625,-1.09375 C 344.35528,134.03065 343.22956,134 341.80859,134 Z"
         id="path999"
         inkscape:connector-curvature="0"
         sodipodi:nodetypes="scscccccscsscccscscscss" /><path
         style="color:#000000;font-style:normal;font-variant:normal;font-weight:normal;font-stretch:normal;font-size:medium;line-height:normal;font-family:sans-serif;font-variant-ligatures:normal;font-variant-position:normal;font-variant-caps:normal;font-variant-numeric:normal;font-variant-alternates:normal;font-feature-settings:normal;text-indent:0;text-align:start;text-decoration:none;text-decoration-line:none;text-decoration-style:solid;text-decoration-color:#000000;letter-spacing:normal;word-spacing:normal;text-transform:none;writing-mode:lr-tb;direction:ltr;text-orientation:mixed;dominant-baseline:auto;baseline-shift:baseline;text-anchor:start;white-space:normal;shape-padding:0;clip-rule:nonzero;display:inline;overflow:visible;visibility:visible;opacity:0.1;isolation:auto;mix-blend-mode:normal;color-interpolation:sRGB;color-interpolation-filters:linearRGB;solid-color:#000000;solid-opacity:1;vector-effect:none;fill:#000000;fill-opacity:1;fill-rule:nonzero;stroke:none;stroke-width:2;stroke-linecap:butt;stroke-linejoin:miter;stroke-miterlimit:4;stroke-dasharray:none;stroke-dashoffset:0;stroke-opacity:1;marker:none;color-rendering:auto;image-rendering:auto;shape-rendering:auto;text-rendering:auto;enable-background:accumulate"
         d="m 335.23093,61.500047 c -2.22316,0 -3.97368,0.05118 -5.41406,0.292969 -1.44039,0.241784 -2.61905,0.695299 -3.48243,1.55664 -0.86337,0.861342 -1.31906,2.039471 -1.55859,3.480469 -0.23953,1.440999 -0.28629,3.195341 -0.27539,5.423828 V 85 97.752143 c -0.0108,2.225063 0.0361,3.978517 0.27539,5.417967 0.23953,1.441 0.69522,2.61913 1.55859,3.48047 0.86338,0.86134 2.04204,1.31486 3.48243,1.55664 1.44039,0.24179 3.1909,0.29297 5.41406,0.29297 h 17.53883 c 2.22317,0 3.97276,-0.0511 5.41017,-0.29297 1.4374,-0.24189 2.61246,-0.69694 3.47265,-1.55859 0.8602,-0.86165 1.31319,-2.03894 1.55468,-3.47852 0.24149,-1.43957 0.29297,-3.190353 0.29297,-5.417967 V 85 72.248094 c 0,-2.227614 -0.0515,-3.978392 -0.29297,-5.417969 -0.24149,-1.439576 -0.69449,-2.616863 -1.55469,-3.478516 -0.86019,-0.861652 -2.03525,-1.316704 -3.47265,-1.558593 -1.4374,-0.24189 -3.187,-0.292969 -5.41016,-0.292969 z"
         id="path1020"
         inkscape:connector-curvature="0"
         sodipodi:nodetypes="sccsccccccsscccscsccsss" /><path
         style="color:#000000;display:inline;overflow:visible;visibility:visible;fill:#e6e6e6;fill-opacity:1;fill-rule:nonzero;stroke:none;stroke-width:1;marker:none;enable-background:accumulate"
         d="m 335.23001,61.500047 c -8.23154,0 -9.77365,0.90635 -9.7304,9.74838 V 84 96.75181 c -0.0433,8.84203 1.49886,9.74838 9.7304,9.74838 h 17.53897 c 8.22949,0 9.73039,-0.90625 9.73039,-9.74838 V 84 71.248427 c 0,-8.84213 -1.5009,-9.74838 -9.7304,-9.74838 z"
         id="path964"
         inkscape:connector-curvature="0"
         sodipodi:nodetypes="scccssscsss" /><path
         d="m 335.23242,61.5 c -2.57235,-9e-6 -4.49246,0.08897 -5.91406,0.480469 -0.28361,0.07818 -0.5497,0.16941 -0.79492,0.273437 -0.36797,0.156244 -0.6959,0.344253 -0.98438,0.56836 -0.19214,0.14939 -0.36738,0.316207 -0.52734,0.5 -0.24,0.275983 -0.44663,0.593914 -0.6211,0.957031 -0.69823,1.454493 -0.90488,3.654173 -0.88867,6.96875 V 84 96.751953 c -0.0433,8.842027 1.49893,9.748047 9.73047,9.748047 h 17.53906 c 8.22949,0 9.72852,-0.90592 9.72852,-9.748047 V 84 l 8.9e-4,-8.5 -4.26954,4.6e-5 c -8.22922,8.9e-5 -9.72862,-0.906726 -9.73046,-9.748047 L 348.5,61.500046 Z"
         style="opacity:1;fill:#9b33ae;fill-opacity:1"
         id="path7"
         sodipodi:nodetypes="sccccccccsssccsscs" /><path
         style="color:#000000;display:inline;overflow:visible;visibility:visible;opacity:0.1;fill:#000000;fill-opacity:1;fill-rule:nonzero;stroke:none;stroke-width:2;marker:none;filter:url(#filter4346);enable-background:accumulate"
         d="M 189.84323,74 C 119.24979,74 111.65402,81.250835 112,151.98706 V 298 444.01294 C 111.65402,514.74917 119.24979,522 189.84323,522 H 386.15677 C 456.75021,522 462.16345,514.72616 464,444.01294 V 298 151.98706 C 464,81.249993 456.75021,74 386.15677,74 Z"
         id="rect4158-9"
         inkscape:connector-curvature="0"
         sodipodi:nodetypes="scccssscsss"
         transform="matrix(0.5,0,0,0.5,8,8)" /><path
         sodipodi:nodetypes="scccssscsss"
         inkscape:connector-curvature="0"
         id="path4350"
         d="M 189.84323,74 C 119.24979,74 111.65402,81.250835 112,151.98706 V 298 444.01294 C 111.65402,514.74917 119.24979,522 189.84323,522 H 386.15677 C 456.75021,522 464,514.75001 464,444.01294 V 298 151.98706 C 464,81.249993 456.75021,74 386.15677,74 Z"
         style="color:#000000;display:inline;overflow:visible;visibility:visible;opacity:0.1;fill:#000000;fill-opacity:1;fill-rule:nonzero;stroke:none;stroke-width:2;marker:none;filter:url(#filter4380);enable-background:accumulate"
         transform="matrix(0.5,0,0,0.5,8,8)" /><path
         style="color:#000000;display:inline;overflow:visible;visibility:visible;opacity:0.1;fill:#000000;fill-opacity:1;fill-rule:nonzero;stroke:none;stroke-width:1.02028775;marker:none;enable-background:accumulate"
         d="M 101.8116,42 C 65.712789,42 61.828597,45.690158 62.005519,81.689842 V 156 230.31016 C 61.828597,266.30985 65.712789,270 101.8116,270 h 100.38732 c 36.09881,0 39.80608,-3.68973 39.80608,-39.68984 V 156 81.689842 C 242.005,45.689729 238.29773,42 202.19892,42 Z"
         id="rect4158-7"
         inkscape:connector-curvature="0"
         sodipodi:nodetypes="scccssscsss" /><path
         style="color:#000000;display:inline;overflow:visible;visibility:visible;fill:#9b33ae;fill-opacity:1;fill-rule:nonzero;stroke:none;stroke-width:1;marker:none;enable-background:accumulate"
         d="m 201.07298,44 c 35.29673,0 39.09461,3.625418 38.92162,38.99353 V 156 229.00647 C 240.16759,264.37459 236.36971,268 201.07298,268 H 102.91622 C 67.619504,268 63.994604,264.375 63.994604,229.00647 V 156 82.99353 C 63.994604,47.624997 67.619504,44 102.91622,44 Z"
         id="rect4158"
         inkscape:connector-curvature="0"
         sodipodi:nodetypes="scccssscsss" /><path
         d="m 176.00391,44 63.99023,63.99219 V 82.994141 C 240.16713,47.626029 236.369,44 201.07227,44 Z"
         style="display:inline;overflow:visible;fill:#e6e6e6;marker:none;enable-background:accumulate"
         id="path2" /><path
         style="color:#000000;display:inline;overflow:visible;visibility:visible;opacity:0.3;fill:#ffffff;fill-opacity:1;fill-rule:nonzero;stroke:none;stroke-width:1;marker:none;enable-background:accumulate"
         d="M 102.92188,44 C 67.625152,44 63.82701,47.626029 64,82.994141 v 2 C 63.82701,49.626029 67.625152,46 102.92188,46 h 98.15624 C 236.37485,46 240,49.625608 240,84.994141 v -2 C 240,47.625608 236.37485,44 201.07812,44 Z"
         id="path931"
         inkscape:connector-curvature="0" /><path
         sodipodi:nodetypes="scccssscsss"
         inkscape:connector-curvature="0"
         id="path914"
         d="m 327.636,188.49999 c -4.65703,0 -5.15812,0.47378 -5.1353,5.09575 v 6.40425 6.40426 c -0.0229,4.62196 0.47827,5.09574 5.1353,5.09574 h 8.72869 c 4.65703,0 5.1353,-0.47372 5.1353,-5.09574 v -6.40426 -6.40425 c 0,-4.62202 -0.47828,-5.09575 -5.13531,-5.09575 z"
         style="color:#000000;display:inline;overflow:visible;visibility:visible;fill:url(#linearGradient916);fill-opacity:1;fill-rule:nonzero;stroke:none;stroke-width:1;marker:none;enable-background:accumulate" /><path
         d="m 327.63672,188.5 c -4.65703,0 -5.15954,0.47373 -5.13672,5.0957 V 200 v 6.4043 c -0.0229,4.62196 0.47969,5.0957 5.13672,5.0957 h 8.72851 c 4.65703,0 5.13477,-0.47368 5.13477,-5.0957 V 200 196.5 l -7.98828,-8 H 333.5 Z"
         style="display:inline;overflow:visible;fill:#9b33ae;marker:none;enable-background:accumulate;fill-opacity:1"
         id="path58" /><path
         d="m 324.85547,236.5 c -1.65968,0 -2.51228,0.0944 -2.94141,0.66797 -0.0235,0.0314 -0.0474,0.0652 -0.0684,0.0996 -0.0209,0.0344 -0.04,0.0719 -0.0586,0.10937 -0.0186,0.0375 -0.0383,0.0784 -0.0547,0.11914 -0.19872,0.49603 -0.23783,1.23342 -0.23242,2.32813 V 244 v 4.17578 c -0.0123,2.48041 0.21116,3.1291 1.98437,3.28125 0.38126,0.0326 0.83332,0.043 1.3711,0.043 h 6.29101 c 1.139,0 1.89805,-0.0452 2.39844,-0.25781 0.66676,-0.2844 0.87752,-0.87224 0.93555,-2.0586 0.0145,-0.29695 0.0195,-0.63101 0.0195,-1.00781 V 244 v -2.5 -1.67578 c 0,-3.01436 -0.31186,-3.32422 -3.35352,-3.32422 H 329.5 Z"
         style="display:inline;overflow:visible;fill:#ececec;marker:none;enable-background:accumulate"
         id="path133" /><path
         d="M 334.60352,241.52539 334.5,241.5 h -1.64648 c -3.04166,0 -3.35352,-0.30984 -3.35352,-3.32422 V 236.5 h -4.54102 c -1.65968,0 -2.51227,0.0944 -2.9414,0.66797 -0.0235,0.0314 -0.0474,0.0652 -0.0684,0.0996 -0.0209,0.0344 -0.04,0.0719 -0.0586,0.10937 -0.0186,0.0375 -0.0383,0.0784 -0.0547,0.11914 -0.19872,0.49603 -0.23783,1.23342 -0.23242,2.32813 V 244 v 4.17578 c -0.0123,2.48041 0.21116,3.1291 1.98437,3.28125 0.38126,0.0326 0.83331,0.043 1.37109,0.043 H 331.25 c 1.139,0 1.89805,-0.0452 2.39844,-0.25781 0.66676,-0.2844 0.87751,-0.87224 0.93554,-2.0586 0.0145,-0.29695 0.0195,-0.63101 0.0195,-1.00781 V 244 Z"
         style="display:inline;overflow:visible;fill:#9b33ae;marker:none;enable-background:accumulate;fill-opacity:1"
         id="path139" /><path
         d="m 334.5,244 h -13 v 4.17578 c -0.0149,3.01433 0.31381,3.32422 3.35547,3.32422 h 6.29101 c 3.04167,0 3.35352,-0.30985 3.35352,-3.32422 z"
         style="opacity:0.1;fill:#ffffff"
         id="path96" /><path
         style="color:#000000;display:inline;overflow:visible;visibility:visible;opacity:0.2;fill:#000000;fill-opacity:1;fill-rule:nonzero;stroke:none;stroke-width:1;marker:none;enable-background:accumulate"
         d="m 102.92728,268 c -35.296731,0 -39.094875,-3.62603 -38.921885,-38.99414 v -2 C 63.832405,262.37397 67.630549,266 102.92728,266 h 98.15624 c 35.29673,0 38.92188,-3.62561 38.92188,-38.99414 v 2 C 240.0054,264.37439 236.38025,268 201.08352,268 Z"
         id="path931-8"
         inkscape:connector-curvature="0" /><path
         d="m 341.5,200 h -19 v 6.4043 c -0.0229,4.62196 0.47969,5.0957 5.13672,5.0957 h 8.72851 c 4.65703,0 5.13477,-0.47368 5.13477,-5.0957 z"
         style="display:inline;enable-background:new;opacity:0.1;fill:#ffffff"
         id="path77" /><path
         d="m 362.5,84 h -36.99805 v 13.439453 c 0.0434,8.201267 1.7177,9.060547 9.73047,9.060547 h 17.53906 c 8.22949,0 9.72852,-0.90592 9.72852,-9.748047 z"
         style="display:inline;enable-background:new;opacity:0.1;fill:#ffffff;stroke-width:2;fill-opacity:1"
         id="path21" /><path
         d="m 344.00195,61.5 v 45 h 8.76953 c 8.22949,0 9.72852,-0.90592 9.72852,-9.748047 V 84 75.5 h -4.26953 c -8.22922,8.9e-5 -9.72863,-0.906726 -9.73047,-9.748047 V 61.5 Z"
         style="display:inline;enable-background:new;opacity:0.1;fill:#ffffff;stroke-width:4;fill-opacity:1"
         id="path51" /><path
         d="m 338.39648,210.96972 c 2.76444,-0.22355 3.0918,-1.20403 3.0918,-5.03516 v -6.40429 -3.5 l -7.98828,-8 H 333.48828 332 v 22.93945 z"
         style="display:inline;enable-background:new;opacity:0.1;fill:#ffffff;fill-opacity:1"
         id="path76" /><path
         style="color:#000000;display:inline;overflow:visible;visibility:visible;opacity:0.4;fill:none;fill-opacity:1;fill-rule:nonzero;stroke:#000000;stroke-width:1;stroke-miterlimit:4;stroke-dasharray:none;stroke-opacity:1;marker:none;enable-background:accumulate"
         d="m 335.23154,61.500047 c -8.23154,0 -9.77365,0.90635 -9.7304,9.74838 V 84 96.75181 c -0.0433,8.84203 1.49886,9.74838 9.7304,9.74838 h 17.53897 c 8.22949,0 9.73039,-0.90625 9.73039,-9.74838 V 84 71.248427 c 0,-8.84213 -1.5009,-9.74838 -9.7304,-9.74838 z"
         id="path958"
         inkscape:connector-curvature="0"
         sodipodi:nodetypes="scccssscsss" /><path
         style="color:#000000;display:inline;overflow:visible;visibility:visible;fill:#e6e6e6;fill-opacity:1;fill-rule:nonzero;stroke:none;stroke-width:1;marker:none;enable-background:accumulate"
         d="m 330.07509,133.5 c -5.56175,0 -6.6037,0.58409 -6.57447,6.28227 v 8.21765 8.21781 c -0.0293,5.69818 1.01272,6.28227 6.57447,6.28227 h 11.85044 c 5.56037,0 6.57447,-0.58403 6.57447,-6.28227 v -8.21781 -8.21765 c 0,-5.69824 -1.0141,-6.28227 -6.57447,-6.28227 z"
         id="path964-7"
         inkscape:connector-curvature="0"
         sodipodi:nodetypes="scccssscsss" /><path
         d="m 330.07425,133.5 c -0.6945,0 -1.32061,0.0101 -1.88086,0.0371 -1.54101,0.0745 -2.60071,0.28461 -3.31641,0.81445 -0.12975,0.0962 -0.24743,0.20395 -0.35547,0.32227 -0.0541,0.0593 -0.10724,0.12217 -0.15625,0.1875 -0.196,0.26136 -0.35054,0.57137 -0.47265,0.93945 -0.1832,0.55205 -0.29086,1.23422 -0.34571,2.07617 -0.0365,0.56133 -0.0505,1.19398 -0.0469,1.90625 V 148 v 8.2168 c -0.0293,5.69818 1.01247,6.2832 6.57422,6.2832 h 11.85156 c 5.56037,0 6.57422,-0.58496 6.57422,-6.2832 V 148 143.5 l -10,-10 z"
         style="opacity:1;fill:#9b33ae"
         id="path52" /><path
         d="m 348.5,148 h -25 v 8.2168 c -0.0293,5.69818 1.01247,6.2832 6.57422,6.2832 h 11.85156 c 5.56037,0 6.57422,-0.58496 6.57422,-6.2832 z"
         style="display:inline;enable-background:new;opacity:0.1;fill:#ffffff;stroke-width:2.24784;fill-opacity:1"
         id="path25" /><path
         d="m 336,133.5 v 29 h 5.92578 c 5.56037,0 6.57422,-0.58496 6.57422,-6.2832 V 148 143.5 l -10,-10 z"
         style="display:inline;enable-background:new;opacity:0.1;fill:#ffffff;fill-opacity:1"
         id="path65" /><path
         style="color:#000000;display:inline;overflow:visible;visibility:visible;opacity:0.4;fill:none;fill-opacity:1;fill-rule:nonzero;stroke:#000000;stroke-width:1;stroke-miterlimit:4;stroke-dasharray:none;stroke-opacity:1;marker:none;enable-background:accumulate"
         d="m 330.07509,133.5 c -5.56175,0 -6.6037,0.58409 -6.57447,6.28227 v 8.21765 8.21781 c -0.0293,5.69818 1.01272,6.28227 6.57447,6.28227 h 11.85044 c 5.56037,0 6.57447,-0.58403 6.57447,-6.28227 v -8.21781 -8.21765 c 0,-5.69824 -1.0141,-6.28227 -6.57447,-6.28227 z"
         id="path958-1"
         inkscape:connector-curvature="0"
         sodipodi:nodetypes="scccssscsss" /><path
         transform="matrix(0.66664182,0,0,0.63636364,106.67521,94.545454)"
         sodipodi:nodetypes="scccssscsss"
         inkscape:connector-curvature="0"
         id="path990-8"
         d="m 335.73108,62 c -8.82418,0 -9.77365,0.90635 -9.7304,9.74838 V 84 96.25162 c -0.0433,8.84203 0.90622,9.74838 9.7304,9.74838 h 16.53919 c 8.82418,0 9.7304,-0.90625 9.7304,-9.74838 V 84 71.74838 C 362.00067,62.90625 361.09445,62 352.27027,62 Z"
         style="color:#000000;display:inline;overflow:visible;visibility:visible;opacity:0.6;fill:none;fill-opacity:1;fill-rule:nonzero;stroke:url(#linearGradient1004-8);stroke-width:3.07066;stroke-miterlimit:4;stroke-dasharray:none;stroke-opacity:1;marker:none;enable-background:accumulate"
         clip-path="url(#clipPath994-1)" /><path
         d="m 339,145 c -3.63424,0 -3.96571,0 -3.99609,3 -0.002,0.15736 -0.004,0.32374 -0.004,0.49805 V 149 v 2 0.50195 c 3.7e-4,0.17431 0.002,0.34069 0.004,0.49805 0.0304,3 0.36185,3 3.99609,3 h 2 c 3.63424,0 3.96571,0 3.99609,-3 0.002,-0.15902 0.004,-0.32562 0.004,-0.50195 V 151 v -2 -0.49805 c -3.6e-4,-0.17633 -0.002,-0.34293 -0.004,-0.50195 -0.0304,-3 -0.36185,-3 -3.99609,-3 z"
         style="baseline-shift:baseline;display:inline;overflow:visible;vector-effect:none;fill:#000000;fill-rule:evenodd;enable-background:new;stop-color:#000000;fill-opacity:1;opacity:0.15;stroke:#000000;stroke-opacity:1"
         id="path117" /><path
         d="m 339,145.50043 c -3.63424,0 -3.96571,0 -3.99609,3 -0.002,0.15736 -0.004,0.32374 -0.004,0.49805 v 0.50195 2 0.50195 c 3.7e-4,0.17431 0.002,0.34069 0.004,0.49805 0.0304,3 0.36185,3 3.99609,3 h 2 c 3.63424,0 3.96571,0 3.99609,-3 0.002,-0.15902 0.004,-0.32562 0.004,-0.50195 v -0.49805 -2 -0.49805 c -3.6e-4,-0.17633 -0.002,-0.34293 -0.004,-0.50195 -0.0304,-3 -0.36185,-3 -3.99609,-3 z"
         style="baseline-shift:baseline;display:inline;overflow:visible;opacity:0.15;vector-effect:none;fill:#000000;fill-opacity:1;fill-rule:evenodd;stroke:#000000;stroke-opacity:1;enable-background:new;stop-color:#000000"
         id="path117-8" /><path
         sodipodi:nodetypes="scccssscsss"
         inkscape:connector-curvature="0"
         id="path935"
         d="m 327.8652,189 c -4.41209,0 -4.88682,0.45318 -4.8652,4.87419 V 200 206.12581 C 322.9783,210.54682 323.45311,211 327.8652,211 h 8.2696 C 340.54689,211 341,210.54688 341,206.12581 V 200 193.87419 C 341,189.45313 340.54688,189 336.13479,189 Z"
         style="color:#000000;display:inline;overflow:visible;visibility:visible;opacity:0.6;fill:none;fill-opacity:1;fill-rule:nonzero;stroke:url(#linearGradient981);stroke-width:2;stroke-miterlimit:4;stroke-dasharray:none;stroke-opacity:1;marker:none;enable-background:accumulate"
         clip-path="url(#clipPath971)" /><path
         style="color:#000000;display:inline;overflow:visible;visibility:visible;fill:url(#linearGradient920-6);fill-opacity:1;fill-rule:nonzero;stroke:none;stroke-width:1;marker:none;enable-background:accumulate;opacity:0.6"
         d="m 324.91406,237.00002 c -1.43089,0 -2.16322,0.12118 -2.46484,0.39258 -0.15081,0.1357 -0.26235,0.33219 -0.34375,0.71289 -0.0814,0.3807 -0.11719,0.92536 -0.11719,1.64844 v 4.25781 4.25781 c 0,0.72309 0.0358,1.26774 0.11719,1.64844 0.0814,0.3807 0.19294,0.57719 0.34375,0.71289 0.30162,0.2714 1.03395,0.39258 2.46484,0.39258 h 6.17188 c 1.43125,0 2.16767,-0.1209 2.4707,-0.39258 0.15152,-0.13584 0.26315,-0.33097 0.34375,-0.71094 0.0805,-0.37996 0.11533,-0.92581 0.11133,-1.64843 v -0.002 -4.25777 -4.25781 -0.002 c 0.004,-0.72262 -0.0308,-1.26847 -0.11133,-1.64843 -0.0806,-0.37997 -0.19224,-0.5751 -0.34375,-0.71094 -0.30303,-0.27167 -1.03945,-0.39258 -2.4707,-0.39258 z m 2.31641,1.0293 c 0.90892,-0.001 1.81765,-0.001 2.72656,0.004 0.91032,0.0328 1.83236,-0.0486 2.73438,0.0996 0.24585,-0.0171 0.20202,0.27429 0.23632,0.4375 0.0753,2.8091 0.0533,5.67804 0.043,8.51368 -0.0226,0.85541 0.0164,1.70681 -0.0684,2.54882 0.0121,0.3147 -0.35695,0.2628 -0.57617,0.3125 -2.08305,0.061 -4.22761,0.0369 -6.33789,0.0371 -0.88599,-0.0302 -1.78126,0.0435 -2.66016,-0.0859 -0.25376,0.0253 -0.21301,-0.26186 -0.25781,-0.42579 -0.0802,-2.89787 -0.0539,-5.83578 -0.043,-8.7539 0.0277,-0.79099 -0.0254,-1.57718 0.0781,-2.36524 -0.0231,-0.27517 0.29693,-0.21327 0.47265,-0.26367 1.21401,-0.0833 2.43564,-0.0401 3.65235,-0.0586 z"
         id="path918-3"
         inkscape:connector-curvature="0" /><path
         style="color:#000000;display:inline;overflow:visible;visibility:visible;opacity:0.4;fill:none;fill-opacity:1;fill-rule:nonzero;stroke:#000000;stroke-width:0.97652888;stroke-miterlimit:4;stroke-dasharray:none;stroke-opacity:1;marker:none;enable-background:accumulate"
         d="m 336.50849,211.51179 c 4.23214,0 5.02499,-0.46371 5.00275,-4.98757 v -6.5241 -6.52423 c 0.0222,-4.52386 -0.77061,-4.98757 -5.00275,-4.98757 h -9.01743 c -4.23108,0 -5.00275,0.46366 -5.00275,4.98757 v 6.52423 6.5241 c 0,4.52391 0.77167,4.98757 5.00275,4.98757 z"
         id="path958-6"
         inkscape:connector-curvature="0"
         sodipodi:nodetypes="scccssscsss" /><path
         d="m 333.07422,198 c -3.04298,1e-5 -3.07412,0.006 -3.07422,3.09961 v 2.80078 c -10e-5,3.09362 0.0312,3.09961 3.07422,3.09961 h 0.0254 1.80078 0.0254 c 3.04302,0 3.07389,-0.006 3.07422,-3.09961 v -0.9082 -0.002 -0.002 -0.97656 -0.002 -0.002 -0.9082 c 0,-3.09387 -0.0312,-3.0996 -3.07422,-3.09961 h -0.0254 -1.80078 z"
         style="baseline-shift:baseline;display:inline;overflow:visible;vector-effect:none;fill:#000000;fill-rule:evenodd;enable-background:new;stop-color:#000000;fill-opacity:1;stroke:#000000;stroke-opacity:1;opacity:0.15"
         id="path131" /><path
         d="m 333.07422,198.49619 c -3.04298,10e-6 -3.07412,0.006 -3.07422,3.09961 v 2.80078 c -10e-5,3.09362 0.0312,3.09961 3.07422,3.09961 h 0.0254 1.80078 0.0254 c 3.04302,0 3.07389,-0.006 3.07422,-3.09961 v -0.9082 -0.002 -0.002 -0.97656 -0.002 -0.002 -0.9082 c 0,-3.09387 -0.0312,-3.0996 -3.07422,-3.09961 h -0.0254 -1.80078 z"
         style="baseline-shift:baseline;display:inline;overflow:visible;opacity:0.15;vector-effect:none;fill:#000000;fill-opacity:1;fill-rule:evenodd;stroke:#000000;stroke-opacity:1;enable-background:new;stop-color:#000000"
         id="path131-0" /><path
         style="color:#000000;display:inline;overflow:visible;visibility:visible;opacity:0.4;fill:none;fill-opacity:1;fill-rule:nonzero;stroke:#000000;stroke-width:0.97652888;stroke-miterlimit:4;stroke-dasharray:none;stroke-opacity:1;marker:none;enable-background:accumulate"
         d="m 331.08651,251.51179 c 2.89732,0 3.44011,-0.30259 3.42488,-3.25454 v -4.25716 -4.25724 c 0.0152,-2.95195 -0.52756,-3.25453 -3.42488,-3.25453 h -6.17331 c -2.8966,0 -3.42488,0.30255 -3.42488,3.25453 v 4.25724 4.25716 c 0,2.95199 0.52828,3.25454 3.42488,3.25454 z"
         id="path958-6-0"
         inkscape:connector-curvature="0"
         sodipodi:nodetypes="scccssscsss" /><path
         inkscape:connector-curvature="0"
         style="color:#000000;display:inline;overflow:visible;visibility:visible;opacity:0.2;fill:#000000;fill-opacity:1;fill-rule:nonzero;stroke:none;stroke-width:1;marker:none;enable-background:accumulate"
         d="m 240.00293,109.99708 v -2 l -64,-64 h -2 v 24.999094 1 0.53711 c 0,34.463796 6,39.463796 38.99414,39.458996 z"
         id="rect4158-0-3-2"
         sodipodi:nodetypes="ccccccscc" /><path
         d="M 348.51367,77 C 343.31198,76.9985 343.01557,76.94145 343,82 v 1 4 1 4 1 c 0.0156,5.058551 0.312,5.00152 5.51367,5 0.0496,-1.6e-5 0.1,0 0.15039,0 H 349 h 1 0.33594 c 0.0504,0 0.10084,-1.6e-5 0.15039,0 5.20168,0.0015 5.4981,0.05854 5.51367,-5 v -1 -4 -1 -4 -1 c -0.0156,-5.058551 -0.312,-5.001521 -5.51367,-5 -0.0496,1.5e-5 -0.1,0 -0.15039,0 h -1.67188 c -0.0504,0 -0.10084,1.5e-5 -0.15039,0 z"
         style="baseline-shift:baseline;display:inline;overflow:visible;vector-effect:none;fill:#000000;fill-rule:evenodd;enable-background:new;stop-color:#000000;fill-opacity:1;stroke:#000000;stroke-opacity:1;opacity:0.15"
         id="path80" /><path
         d="m 348.51367,77.500232 c -5.20169,-0.0015 -5.4981,-0.05855 -5.51367,5 v 1 4 1 4 1 c 0.0156,5.058551 0.312,5.00152 5.51367,5 0.0496,-1.6e-5 0.1,0 0.15039,0 H 349 h 1 0.33594 c 0.0504,0 0.10084,-1.6e-5 0.15039,0 5.20168,0.0015 5.4981,0.05854 5.51367,-5 v -1 -4 -1 -4 -1 c -0.0156,-5.058551 -0.312,-5.001521 -5.51367,-5 -0.0496,1.5e-5 -0.1,0 -0.15039,0 h -1.67188 c -0.0504,0 -0.10084,1.5e-5 -0.15039,0 z"
         style="baseline-shift:baseline;display:inline;overflow:visible;opacity:0.15;vector-effect:none;fill:#000000;fill-opacity:1;fill-rule:evenodd;stroke:#000000;stroke-opacity:1;enable-background:new;stop-color:#000000"
         id="path80-9" /><path
         style="color:#000000;display:inline;overflow:visible;visibility:visible;fill:url(#linearGradient2673);fill-opacity:1;fill-rule:nonzero;stroke:none;stroke-width:2;stroke-miterlimit:4;stroke-dasharray:none;stroke-opacity:1;marker:none;enable-background:accumulate;opacity:0.65"
         d="m 335.73077,62 c -8.82418,0 -9.77372,0.906017 -9.73047,9.748047 V 84 96.251953 C 325.957,105.09398 326.90659,106 335.73077,106 h 16.53906 c 8.82418,0 9.73047,-0.90592 9.73047,-9.748047 V 84 71.748047 C 362.0003,62.905917 361.09401,62 352.26983,62 Z m 11.58594,1.083984 c 1.58586,-0.002 3.172,-0.0046 4.75781,0.0098 2.24104,0.112648 4.61852,-0.159439 6.77539,0.677734 1.61064,0.815891 1.89861,2.822819 1.97851,4.447266 0.1486,8.949973 0.0584,17.944327 0.0664,26.912109 -0.1124,2.417589 0.23363,4.901277 -0.50976,7.251947 -0.35209,1.46925 -1.87421,2.11123 -3.22266,2.33594 -7.11783,0.21369 -14.25487,0.17302 -21.38281,0.16602 -2.37545,-0.10878 -4.96603,0.29495 -7.1211,-0.96485 -1.54366,-1.12044 -1.37997,-3.32646 -1.48632,-4.964838 -0.13752,-9.226199 -0.0249,-18.549024 0.004,-27.8125 0.10712,-1.790293 -0.16515,-3.606621 0.3418,-5.359375 0.3631,-1.607644 2.01509,-2.381908 3.52344,-2.517578 5.40981,-0.227052 10.84859,-0.125241 16.27539,-0.181641 z"
         id="path996-9"
         inkscape:connector-curvature="0" /><path
         d="M 239.99414,156 H 63.994141 v 73.00586 C 63.994141,264.37439 67.6193,268 102.91602,268 h 98.15625 c 35.29673,0 39.09486,-3.62602 38.92187,-38.99414 z"
         style="display:inline;enable-background:new;opacity:0.1;fill:#e6e6e6;stroke-width:7.16596"
         id="path3" /><path
         d="m 152.00586,44 v 224 h 49.06641 c 35.29673,0 39.09486,-3.62602 38.92187,-38.99414 V 156 107.99414 L 176.00195,44 Z"
         style="display:inline;enable-background:new;opacity:0.1;fill:#e6e6e6;stroke-width:4"
         id="path5" /><path
         d="m 170,128 c -23.88441,0 -24,0.11559 -24,24 v 45 c 0,23.88441 0.11559,24 24,24 h 15 c 23.88441,0 24,-0.11559 24,-24 v -45 c 0,-23.88441 -0.11559,-24 -24,-24 z m 0,5 h 5 v 17 h -23.99805 c -0.001,0.64606 -0.002,1.31272 -0.002,2 v -2 h 0.002 c 0.009,-4.96312 0.067,-8.71098 0.35742,-11.25977 0.48913,-4.29151 1.08971,-4.89176 5.38086,-5.38086 C 159.6208,133.03111 164.03293,133 170,133 Z m 10,0 h 5 c 5.96707,0 10.3792,0.0311 13.25977,0.35937 4.2911,0.48908 4.89176,1.08933 5.38085,5.38086 0.29049,2.54879 0.34797,6.29665 0.35743,11.25977 H 180 Z m -29,22 h 24 v 17 h -24 z m 29,0 h 24 v 17 h -24 z m -29,22 h 24 v 17 h -24 z m 29,0 h 24 v 17 h -24 z m -28.99805,22 H 175 v 17 h -5 c -5.96707,0 -10.3792,-0.0311 -13.25977,-0.35938 -4.29112,-0.48905 -4.89172,-1.08934 -5.38086,-5.38085 -0.29046,-2.54879 -0.34795,-6.29665 -0.35742,-11.25977 z M 180,199 h 23.99805 c -0.009,4.96312 -0.067,8.71098 -0.35743,11.25977 -0.48905,4.29116 -1.0894,4.89176 -5.38085,5.38085 C 195.3792,215.96892 190.96707,216 185,216 h -5 z"
         style="display:inline;opacity:0.15;fill:#f9f9f9;fill-rule:evenodd;stroke:#000000;stroke-width:4;stroke-dasharray:none;stroke-opacity:1;enable-background:new"
         id="path18-0" /><path
         d="m 170,130 c -23.88441,0 -24,0.11559 -24,24 v 45 c 0,23.88441 0.11559,24 24,24 h 15 c 23.88441,0 24,-0.11559 24,-24 v -45 c 0,-23.88441 -0.11559,-24 -24,-24 z m 0,5 h 5 v 17 h -23.99805 c -0.001,0.64606 -0.002,1.31272 -0.002,2 v -2 h 0.002 c 0.009,-4.96312 0.067,-8.71098 0.35742,-11.25977 0.48913,-4.29151 1.08971,-4.89176 5.38086,-5.38086 C 159.6208,135.03111 164.03293,135 170,135 Z m 10,0 h 5 c 5.96707,0 10.3792,0.0311 13.25977,0.35937 4.2911,0.48908 4.89176,1.08933 5.38085,5.38086 0.29049,2.54879 0.34797,6.29665 0.35743,11.25977 H 180 Z m -29,22 h 24 v 17 h -24 z m 29,0 h 24 v 17 h -24 z m -29,22 h 24 v 17 h -24 z m 29,0 h 24 v 17 h -24 z m -28.99805,22 H 175 v 17 h -5 c -5.96707,0 -10.3792,-0.0311 -13.25977,-0.35938 -4.29112,-0.48905 -4.89172,-1.08934 -5.38086,-5.38085 -0.29046,-2.54879 -0.34795,-6.29665 -0.35742,-11.25977 z M 180,201 h 23.99805 c -0.009,4.96312 -0.067,8.71098 -0.35743,11.25977 -0.48905,4.29116 -1.0894,4.89176 -5.38085,5.38085 C 195.3792,217.96892 190.96707,218 185,218 h -5 z"
         style="display:inline;opacity:0.15;fill:#f9f9f9;fill-rule:evenodd;stroke:#000000;stroke-width:4;stroke-dasharray:none;stroke-opacity:1;enable-background:new"
         id="path18-0-1" /><path
         style="color:#000000;display:inline;overflow:visible;visibility:visible;opacity:0.08;fill:#ffffff;fill-opacity:1;fill-rule:nonzero;stroke:none;stroke-width:8;stroke-linecap:butt;stroke-linejoin:miter;stroke-miterlimit:4;stroke-dasharray:none;stroke-dashoffset:0;stroke-opacity:1;marker:none;enable-background:accumulate"
         d="m 179.99954,268 60,-60 v 22.48388 C 239.94724,264.47969 236.19686,268 201.82544,268 Z"
         id="path4254"
         inkscape:connector-curvature="0"
         sodipodi:nodetypes="cccsc" /><path
         d="m 170,128 c -23.88441,0 -24,0.11559 -24,24 v 45 c 0,23.88441 0.11559,24 24,24 h 15 c 23.88441,0 24,-0.11559 24,-24 v -45 c 0,-23.88441 -0.11559,-24 -24,-24 z m -19,22 h 0.002 c -0.001,0.64606 -0.002,1.31272 -0.002,2 z"
         style="display:inline;opacity:1;fill:#9b33ae;fill-opacity:1;fill-rule:evenodd;stroke-width:1.95631;enable-background:new"
         id="path19" /><path
         d="m 170,128 c -23.88441,0 -24,0.11559 -24,24 v 45 c 0,23.88441 0.11559,24 24,24 h 15 c 23.88441,0 24,-0.11559 24,-24 v -45 c 0,-23.88441 -0.11559,-24 -24,-24 z m -19,22 h 0.002 c -0.001,0.64606 -0.002,1.31272 -0.002,2 z"
         style="display:inline;opacity:0.35;fill:#ffffff;fill-opacity:1;fill-rule:evenodd;stroke-width:1.95631;enable-background:new"
         id="path19-8" /><path
         d="m 209,155 v -3 c 0,-23.88441 -0.11559,-24 -24,-24 h -15 c -23.88441,0 -24,0.11559 -24,24 v 3 z m -58,-5 h 0.002 c -0.001,0.64606 -0.002,1.31272 -0.002,2 z"
         style="opacity:0.4;fill:#ffffff;fill-opacity:1;fill-rule:evenodd;stroke-width:1.38717"
         id="path20" /><path
         d="m 170,128 c -23.88441,0 -24,0.11559 -24,24 v 45 c 0,23.88441 0.11559,24 24,24 h 15 c 23.88441,0 24,-0.11559 24,-24 v -45 c 0,-23.88441 -0.11559,-24 -24,-24 z m 0,5 h 5 v 17 h -23.99805 c -0.001,0.64606 -0.002,1.31272 -0.002,2 v -2 h 0.002 c 0.009,-4.96312 0.067,-8.71098 0.35742,-11.25977 0.48913,-4.29151 1.08971,-4.89176 5.38086,-5.38086 C 159.6208,133.03111 164.03293,133 170,133 Z m 10,0 h 5 c 5.96707,0 10.3792,0.0311 13.25977,0.35937 4.2911,0.48908 4.89176,1.08933 5.38085,5.38086 0.29049,2.54879 0.34797,6.29665 0.35743,11.25977 H 180 Z m -29,22 h 24 v 17 h -24 z m 29,0 h 24 v 17 h -24 z m -29,22 h 24 v 17 h -24 z m 29,0 h 24 v 17 h -24 z m -28.99805,22 H 175 v 17 h -5 c -5.96707,0 -10.3792,-0.0311 -13.25977,-0.35938 -4.29112,-0.48905 -4.89172,-1.08934 -5.38086,-5.38085 -0.29046,-2.54879 -0.34795,-6.29665 -0.35742,-11.25977 z M 180,199 h 23.99805 c -0.009,4.96312 -0.067,8.71098 -0.35743,11.25977 -0.48905,4.29116 -1.0894,4.89176 -5.38085,5.38085 C 195.3792,215.96892 190.96707,216 185,216 h -5 z"
         style="display:inline;fill:#f9f9f9;fill-rule:evenodd;stroke-width:1.95631;enable-background:new"
         id="path18" /><path
         d="M 124.5,136 A 31.5,10.5 0 0 0 93,146.5 v 18 18 18 18 A 31.5,10.5 0 0 0 124.5,229 31.5,10.5 0 0 0 156,218.5 v -18 -18 -18 -18 A 31.5,10.5 0 0 0 124.5,136 Z"
         style="display:inline;opacity:0.15;fill:#000000;fill-opacity:1;fill-rule:evenodd;stroke:#000000;stroke-width:4;stroke-dasharray:none;stroke-opacity:1;enable-background:new"
         id="path32" /><path
         d="M 124.5,138 A 31.5,10.5 0 0 0 93,148.5 v 18 18 18 18 A 31.5,10.5 0 0 0 124.5,231 31.5,10.5 0 0 0 156,220.5 v -18 -18 -18 -18 A 31.5,10.5 0 0 0 124.5,138 Z"
         style="display:inline;opacity:0.15;fill:#000000;fill-opacity:1;fill-rule:evenodd;stroke:#000000;stroke-width:4;stroke-dasharray:none;stroke-opacity:1;enable-background:new"
         id="path32-2" /><path
         d="M 124.5,136 A 31.5,10.5 0 0 0 93,146.5 v 18 18 18 18 A 31.5,10.5 0 0 0 124.5,229 31.5,10.5 0 0 0 156,218.5 v -18 -18 -18 -18 A 31.5,10.5 0 0 0 124.5,136 Z m -29.162109,68.45898 a 31.5,10.5 0 0 0 1.728515,1.18555 31.5,10.5 0 0 0 0.04297,0.0312 31.5,10.5 0 0 1 -1.771484,-1.2168 z"
         style="display:inline;fill:#c43ac4;fill-rule:evenodd;stroke-width:0.897142;enable-background:new"
         id="path1" /><path
         d="m 93,146.5 v 18 A 31.5,10.5 0 0 0 124.5,175 31.5,10.5 0 0 0 156,164.5 v -18 a 31.5,10.5 0 0 1 -15.33008,9 A 31.5,10.5 0 0 1 124.5,157 31.5,10.5 0 0 1 108.33008,155.5 31.5,10.5 0 0 1 93,146.5 Z"
         style="display:inline;fill:#f0a8db;fill-rule:evenodd;stroke-width:0.897142;enable-background:new;fill-opacity:1"
         id="path29" /><path
         d="m 93,164.5 v 18 A 31.5,10.5 0 0 0 124.5,193 31.5,10.5 0 0 0 156,182.5 v -18 a 31.5,10.5 0 0 1 -15.33008,9 A 31.5,10.5 0 0 1 124.5,175 31.5,10.5 0 0 1 108.33008,173.5 31.5,10.5 0 0 1 93,164.5 Z"
         style="display:inline;fill:#e97cc8;fill-rule:evenodd;stroke-width:0.897142;enable-background:new;fill-opacity:1"
         id="path29-1" /><path
         d="m 93,182.5 v 18 A 31.5,10.5 0 0 0 124.5,211 31.5,10.5 0 0 0 156,200.5 v -18 a 31.5,10.5 0 0 1 -15.33008,9 A 31.5,10.5 0 0 1 124.5,193 31.5,10.5 0 0 1 108.33008,191.5 31.5,10.5 0 0 1 93,182.5 Z"
         style="display:inline;fill:#d85eca;fill-rule:evenodd;stroke-width:0.897142;enable-background:new;fill-opacity:1"
         id="path29-1-5"
         inkscape:transform-center-x="-10.137561"
         inkscape:transform-center-y="-12.620229" /><path
         d="m 124.5,136 a 31.5,10.5 0 0 0 -31.5,10.5 31.5,10.5 0 0 0 15.33008,9 A 31.5,10.5 0 0 0 124.5,157 31.5,10.5 0 0 0 140.66992,155.5 31.5,10.5 0 0 0 156,146.5 31.5,10.5 0 0 0 124.5,136 Z"
         style="fill:#f9dbf0;fill-opacity:1;fill-rule:evenodd"
         id="path30" /><path
         d="m 348.51367,77.000147 c -5.20169,-0.0015 -5.4981,-0.05855 -5.51367,5 v 1 4 1 4 1 c 0.0156,5.058551 0.312,5.00152 5.51367,5 0.0496,-1.6e-5 0.1,0 0.15039,0 H 349 h 1 0.33594 c 0.0504,0 0.10084,-1.6e-5 0.15039,0 5.20168,0.0015 5.4981,0.05854 5.51367,-5 v -1 -4 -1 -4 -1 c -0.0156,-5.058551 -0.312,-5.001521 -5.51367,-5 -0.0496,1.5e-5 -0.1,0 -0.15039,0 h -1.67188 c -0.0504,0 -0.10084,1.5e-5 -0.15039,0 z"
         style="baseline-shift:baseline;display:inline;overflow:visible;vector-effect:none;fill:#9b33ae;fill-opacity:1;fill-rule:evenodd;enable-background:new;stop-color:#000000"
         id="path71" /><path
         d="M 348.51367,77 C 343.31198,76.9985 343.01557,76.94145 343,82 v 1 4 1 4 1 c 0.0156,5.058551 0.312,5.00152 5.51367,5 0.0496,-1.6e-5 0.1,0 0.15039,0 H 349 h 1 0.33594 c 0.0504,0 0.10084,-1.6e-5 0.15039,0 5.20168,0.0015 5.4981,0.05854 5.51367,-5 v -1 -4 -1 -4 -1 c -0.0156,-5.058551 -0.312,-5.001521 -5.51367,-5 -0.0496,1.5e-5 -0.1,0 -0.15039,0 h -1.67188 c -0.0504,0 -0.10084,1.5e-5 -0.15039,0 z"
         style="baseline-shift:baseline;display:inline;overflow:visible;vector-effect:none;fill:#ffffff;fill-opacity:1;fill-rule:evenodd;enable-background:new;stop-color:#000000;opacity:0.35"
         id="path71-6" /><path
         d="m 356,82 c -0.0156,-5.058551 -0.312,-5.001521 -5.51367,-5 -0.0496,1.5e-5 -0.1,0 -0.15039,0 h -1.67188 c -0.0504,0 -0.10084,1.5e-5 -0.15039,0 -5.20169,-0.0015 -5.4981,-0.05855 -5.51367,5 v 1 h 13 z"
         style="fill:#ffffff;fill-rule:evenodd;fill-opacity:1;opacity:0.4"
         id="path78" /><path
         d="m 348.51367,77.000147 c -5.20169,-0.0015 -5.4981,-0.05855 -5.51367,5 v 1 4 1 4 1 c 0.0156,5.058551 0.312,5.00152 5.51367,5 0.0496,-1.6e-5 0.1,0 0.15039,0 H 349 h 1 0.33594 c 0.0504,0 0.10084,-1.6e-5 0.15039,0 5.20168,0.0015 5.4981,0.05854 5.51367,-5 v -1 -4 -1 -4 -1 c -0.0156,-5.058551 -0.312,-5.001521 -5.51367,-5 -0.0496,1.5e-5 -0.1,0 -0.15039,0 h -1.67188 c -0.0504,0 -0.10084,1.5e-5 -0.15039,0 z m 0,1 c 0.05,1.5e-5 0.10019,0 0.15039,0 H 349 v 4 h -4.99805 c 0.004,-1.091988 0.0217,-1.925377 0.0898,-2.513672 0.13078,-1.129848 0.3382,-1.299009 1.3789,-1.412109 0.67334,-0.07318 1.6844,-0.07462 3.04297,-0.07422 z m 1.48633,0 h 0.33594 c 0.0502,0 0.10038,1.5e-5 0.15039,0 1.35856,-3.97e-4 2.36963,9.98e-4 3.04297,0.07422 1.04079,0.113116 1.24808,0.282299 1.3789,1.412109 0.0681,0.588294 0.0856,1.421684 0.0898,2.513672 H 350 Z m -6,5 h 5 v 4 h -5 z m 6,0 h 5 v 4 h -5 z m -6,5 h 5 v 4 h -5 z m 6,0 h 5 v 4 h -5 z m -5.99805,5 H 349 v 4 h -0.33594 c -0.0502,0 -0.10035,-1.6e-5 -0.15039,0 -1.35856,3.97e-4 -2.36963,-9.98e-4 -3.04297,-0.07422 -1.04079,-0.113116 -1.24808,-0.282299 -1.3789,-1.412109 -0.0681,-0.588296 -0.0856,-1.421684 -0.0898,-2.513672 z m 5.99805,0 h 4.99805 c -0.004,1.091987 -0.0217,1.925377 -0.0898,2.513672 -0.13078,1.129846 -0.33819,1.299009 -1.3789,1.412109 -0.67334,0.07318 -1.68441,0.07462 -3.04297,0.07422 -0.05,-1.6e-5 -0.1002,0 -0.15039,0 H 350 Z"
         style="baseline-shift:baseline;display:inline;overflow:visible;vector-effect:none;fill:#f9f9f9;fill-rule:evenodd;enable-background:new;stop-color:#000000;stop-opacity:1"
         id="path70" /><path
         d="m 338.5,81 a 6.5,2 0 0 0 -6.5,2 v 5 5 5 a 6.5,2 0 0 0 6.5,2 6.5,2 0 0 0 6.5,-2 v -5 -5 -5 a 6.5,2 0 0 0 -6.5,-2 z"
         style="display:inline;fill:#000000;fill-rule:evenodd;stroke-width:1.26492;enable-background:new;fill-opacity:1;stroke:#000000;stroke-opacity:1;opacity:0.15"
         id="path9" /><path
         d="m 338.5,82.00046 a 6.5,2 0 0 0 -6.5,2 v 5 5 5 a 6.5,2 0 0 0 6.5,2 6.5,2 0 0 0 6.5,-2 v -5 -5 -5 a 6.5,2 0 0 0 -6.5,-2 z"
         style="display:inline;opacity:0.15;fill:#000000;fill-opacity:1;fill-rule:evenodd;stroke:#000000;stroke-width:1.26492;stroke-opacity:1;enable-background:new"
         id="path9-0" /><path
         d="m 338.5,81 a 6.5,2 0 0 0 -6.5,2 v 5 5 5 a 6.5,2 0 0 0 6.5,2 6.5,2 0 0 0 6.5,-2 v -5 -5 -5 a 6.5,2 0 0 0 -6.5,-2 z"
         style="display:inline;fill:#d85eca;fill-rule:evenodd;stroke-width:1.23744;enable-background:new;fill-opacity:1"
         id="path8" /><path
         d="m 345,88 a 6.5,2 0 0 1 -6.5,2 6.5,2 0 0 1 -6.5,-2 v 5 a 6.5,2 0 0 0 6.5,2 6.5,2 0 0 0 6.5,-2 z"
         style="display:inline;fill:#e97cc8;fill-rule:evenodd;stroke-width:1.23744;enable-background:new;fill-opacity:1"
         id="path4-9" /><path
         d="m 345,83 a 6.5,2 0 0 1 -6.5,2 6.5,2 0 0 1 -6.5,-2 v 5 a 6.5,2 0 0 0 6.5,2 6.5,2 0 0 0 6.5,-2 z"
         style="display:inline;fill:#f0a8db;fill-rule:evenodd;stroke-width:1.23744;enable-background:new;fill-opacity:1"
         id="path4-2" /><path
         d="m 338.5,81 a 6.5,2 0 0 0 -6.5,2 6.5,2 0 0 0 6.5,2 6.5,2 0 0 0 6.5,-2 6.5,2 0 0 0 -6.5,-2 z"
         style="fill:#f9dbf0;fill-opacity:1;fill-rule:evenodd;stroke-width:1.26492"
         id="path74" /><path
         d="m 339,145 c -3.63424,0 -3.96571,0 -3.99609,3 -0.002,0.15736 -0.004,0.32374 -0.004,0.49805 V 149 v 2 0.50195 c 3.7e-4,0.17431 0.002,0.34069 0.004,0.49805 0.0304,3 0.36185,3 3.99609,3 h 1 c 3.63424,0 3.96571,0 3.99609,-3 0.002,-0.15902 0.004,-0.32562 0.004,-0.50195 V 151 v -2 -0.49805 c -3.6e-4,-0.17633 -0.002,-0.34293 -0.004,-0.50195 -0.0304,-3 -0.36185,-3 -3.99609,-3 z"
         style="baseline-shift:baseline;display:inline;overflow:visible;vector-effect:none;fill:#9b33ae;fill-rule:evenodd;enable-background:new;stop-color:#000000;fill-opacity:1"
         id="path104" /><path
         d="m 338.99991,145 c -3.63424,0 -3.96571,0 -3.99609,3 -0.002,0.15736 -0.004,0.32374 -0.004,0.49805 V 149 v 2 0.50195 c 3.7e-4,0.17431 0.002,0.34069 0.004,0.49805 0.0304,3 0.36185,3 3.99609,3 h 1 c 3.63424,0 3.96571,0 3.99609,-3 0.002,-0.15902 0.004,-0.32562 0.004,-0.50195 V 151 v -2 -0.49805 c -3.6e-4,-0.17633 -0.002,-0.34293 -0.004,-0.50195 -0.0304,-3 -0.36185,-3 -3.99609,-3 z"
         style="baseline-shift:baseline;display:inline;overflow:visible;vector-effect:none;fill:#ffffff;fill-opacity:1;fill-rule:evenodd;enable-background:new;stop-color:#000000;opacity:0.35"
         id="path104-1" /><path
         d="m 339,145 c -3.63424,0 -3.96571,0 -3.99609,3 -0.002,0.15736 -0.004,0.32374 -0.004,0.49805 V 149 h 9 v -0.49805 c -3.6e-4,-0.17633 -0.002,-0.34293 -0.004,-0.50195 -0.0304,-3 -0.36185,-3 -3.99609,-3 z"
         style="fill:#ffffff;fill-rule:evenodd;stroke-width:1.07859;opacity:0.4;fill-opacity:1"
         id="path105" /><path
         d="m 339,145 c -3.63424,0 -3.96571,0 -3.99609,3 -0.002,0.15736 -0.004,0.32374 -0.004,0.49805 V 149 v 2 0.50195 c 3.7e-4,0.17431 0.002,0.34069 0.004,0.49805 0.0304,3 0.36185,3 3.99609,3 h 2 c 3.63424,0 3.96571,0 3.99609,-3 0.002,-0.15902 0.004,-0.32562 0.004,-0.50195 V 151 v -2 -0.49805 c -3.6e-4,-0.17633 -0.002,-0.34293 -0.004,-0.50195 -0.0304,-3 -0.36185,-3 -3.99609,-3 z m 0,1 v 2 h -2.99609 c 0.006,-0.5068 0.0202,-0.90767 0.0527,-1.20117 0.0517,-0.46554 0.13609,-0.5775 0.15039,-0.5918 0.0143,-0.0143 0.12626,-0.0987 0.5918,-0.15039 C 337.26447,146.00491 338,146 339,146 Z m 1,0 h 2 v 0.004 c 0.50683,0.006 0.90766,0.0202 1.20117,0.0527 0.46554,0.0517 0.5775,0.13609 0.5918,0.15039 0.0143,0.0143 0.0987,0.12626 0.15039,0.5918 0.0326,0.29355 0.0468,0.69438 0.0527,1.20117 H 342 340 Z m -4,3 h 3 v 2 h -3 z m 4,0 h 2 2 v 2 h -2 -2 z m -3.99609,3 H 339 v 2 c -1,0 -1.73564,-0.005 -2.20117,-0.0566 -0.46554,-0.0517 -0.5775,-0.13609 -0.5918,-0.15039 -0.0143,-0.0143 -0.0987,-0.12626 -0.15039,-0.5918 -0.0326,-0.29355 -0.0468,-0.69438 -0.0527,-1.20117 z M 340,152 h 2 1.99609 c -0.006,0.5068 -0.0202,0.90767 -0.0527,1.20117 -0.0517,0.46554 -0.13609,0.5775 -0.15039,0.5918 -0.0143,0.0143 -0.12626,0.0987 -0.5918,0.15039 -0.29358,0.0326 -0.69437,0.0468 -1.20117,0.0527 V 154 h -2 z"
         style="baseline-shift:baseline;display:inline;overflow:visible;vector-effect:none;fill:#f9f9f9;fill-rule:evenodd;enable-background:new;stop-color:#000000;stop-opacity:1"
         id="path115" /><path
         d="m 332,147 a 4.9999527,1.5 0 0 0 -5,1.5 v 0.004 3.99609 4 c 0,0.82843 2.23859,1.50001 5,1.5 2.75888,1e-5 5,-0.67037 5,-1.49805 v -0.002 -3.99805 -0.002 -3.99805 c -1.1e-4,0.0256 -0.003,0.051 -0.008,0.0762 A 4.9999527,1.5 0 0 0 337,148.50195 V 148.5 a 4.9999527,1.5 0 0 0 -5,-1.5 z m 1.78906,2.89844 a 4.9999527,1.5 0 0 1 -1.47851,0.0977 C 332.2078,149.99798 332.10433,150 332,150 c -0.10412,0 -0.20801,-0.002 -0.31055,-0.004 a 4.9999527,1.5 0 0 1 -1.15429,-0.0645 C 330.9984,149.97498 331.489,150 332,150 c 0.63159,0 1.23333,-0.0369 1.78906,-0.10156 z"
         style="display:inline;fill:#000000;fill-rule:evenodd;stroke-width:1;enable-background:new;fill-opacity:1;stroke:#000000;stroke-opacity:1;stroke-dasharray:none;opacity:0.15"
         id="path116" /><path
         d="m 332,147.5 a 4.9999527,1.5 0 0 0 -5,1.5 v 0.004 3.99609 4 c 0,0.82843 2.23859,1.50001 5,1.5 2.75888,1e-5 5,-0.67037 5,-1.49805 v -0.002 -3.99805 -0.002 -3.99805 c -1.1e-4,0.0256 -0.003,0.051 -0.008,0.0762 A 4.9999527,1.5 0 0 0 337,149.00194 V 149 a 4.9999527,1.5 0 0 0 -5,-1.5 z m 1.78906,2.89844 a 4.9999527,1.5 0 0 1 -1.47851,0.0977 c -0.10275,0.002 -0.20622,0.004 -0.31055,0.004 -0.10412,0 -0.20801,-0.002 -0.31055,-0.004 a 4.9999527,1.5 0 0 1 -1.15429,-0.0645 c 0.46324,0.0435 0.95384,0.0685 1.46484,0.0685 0.63159,0 1.23333,-0.0369 1.78906,-0.10156 z"
         style="display:inline;opacity:0.15;fill:#000000;fill-opacity:1;fill-rule:evenodd;stroke:#000000;stroke-width:1;stroke-dasharray:none;stroke-opacity:1;enable-background:new"
         id="path116-1" /><path
         d="m 332,147.5 a 4.9999527,1.5 0 0 0 -5,1.5 v 0.004 3.49609 0.5 3.5 c 0,0.82843 2.23859,1.50001 5,1.5 2.75888,1e-5 5,-0.67037 5,-1.49805 V 156.5 153.00195 153 v -0.49805 -3.5 c -1.4e-4,0.0317 -0.005,0.0626 -0.0117,0.0937 A 4.9999527,1.5 0 0 0 337,149.00195 V 149 a 4.9999527,1.5 0 0 0 -5,-1.5 z m 2.09375,2.85937 a 4.9999527,1.5 0 0 1 -1.7832,0.13868 c -0.10275,0.002 -0.20622,0.002 -0.31055,0.002 -0.10413,0 -0.208,-7e-5 -0.31055,-0.002 a 4.9999527,1.5 0 0 1 -1.47461,-0.0996 c 0.55565,0.0639 1.15455,0.10156 1.78516,0.10156 0.74882,0 1.45594,-0.0521 2.09375,-0.14063 z"
         style="display:inline;fill:#e97cc8;fill-rule:evenodd;enable-background:new"
         id="path10" /><path
         d="m 332,147 a 4.9999527,1.5 0 0 0 -5,1.5 4.9999527,1.5 0 0 0 5,1.5 4.9999527,1.5 0 0 0 5,-1.49805 V 148.5 a 4.9999527,1.5 0 0 0 -5,-1.5 z"
         style="fill:#f9dbf0;fill-opacity:1;fill-rule:evenodd;stroke-width:1.22474"
         id="path109" /><path
         d="m 327,148.5 v 4 c 0,0.82843 2.23859,1.50001 5,1.5 2.75888,1e-5 5,-0.67037 5,-1.49805 v -0.002 -3.99805 c -0.003,0.82767 -2.24112,1.49806 -5,1.49805 -2.76141,10e-6 -5,-0.67157 -5,-1.5 z"
         style="fill:#f0a8db;fill-opacity:1;fill-rule:evenodd;stroke-width:1"
         id="path110"
         sodipodi:nodetypes="csssccsc" /><path
         d="m 333.07422,198 c -3.04298,1e-5 -3.07408,0.006 -3.07422,3.09961 l 8e-5,2.80049 c -1.4e-4,3.09361 0.0312,3.09961 3.07422,3.09961 h 0.0254 1.80078 0.0254 c 3.04302,0 3.07393,-0.006 3.07422,-3.09961 l -8e-5,-0.90791 v -0.002 -0.002 -0.97656 -0.002 -0.002 -0.9082 c 0,-3.09387 -0.0312,-3.0996 -3.07422,-3.09961 h -0.0254 -1.80078 z"
         style="baseline-shift:baseline;display:inline;overflow:visible;opacity:1;vector-effect:none;fill:#9b33ae;fill-opacity:1;fill-rule:evenodd;enable-background:new;stop-color:#000000"
         id="path130"
         sodipodi:nodetypes="cccsccscccccccssccc" /><path
         d="m 333.07422,197.99982 c -3.04298,1e-5 -3.07408,0.006 -3.07422,3.09961 l 8e-5,2.80049 c -1.4e-4,3.09361 0.0312,3.09961 3.07422,3.09961 h 0.0254 1.80078 0.0254 c 3.04302,0 3.07393,-0.006 3.07422,-3.09961 l -8e-5,-0.90791 v -0.002 -0.002 -0.97656 -0.002 -0.002 -0.9082 c 0,-3.09387 -0.0312,-3.0996 -3.07422,-3.09961 h -0.0254 -1.80078 z"
         style="baseline-shift:baseline;display:inline;overflow:visible;opacity:0.3;vector-effect:none;fill:#ffffff;fill-opacity:1;fill-rule:evenodd;enable-background:new;stop-color:#000000"
         id="path130-4"
         sodipodi:nodetypes="cccsccscccccccssccc" /><rect
         style="fill:#ffffff;fill-rule:evenodd;fill-opacity:1;opacity:0.4"
         id="rect130"
         width="6.3794594"
         height="4.7725911"
         x="330.62054"
         y="198.2276"
         ry="0.011622963" /><path
         d="m 333.07422,198 c -3.04298,1e-5 -3.07412,0.006 -3.07422,3.09961 l -10e-5,2.80049 c -1e-4,3.09362 0.0312,3.09961 3.07423,3.09961 h 0.0254 1.80077 0.0254 c 3.04302,0 3.0739,-0.006 3.07423,-3.09961 l 9e-5,-0.90791 v -0.002 -0.002 -0.97656 -0.002 -0.002 -0.9082 c 0,-3.09387 -0.0312,-3.0996 -3.07422,-3.09961 h -0.0254 -1.80078 z m 0,1 h 0.0254 1.80078 0.0254 c 0.76044,0 1.31954,0.005 1.65234,0.043 0.1876,0.0213 0.27699,0.0479 0.3125,0.0606 -0.004,-0.01 -0.005,-0.0153 -0.006,-0.0176 l 0.0117,0.0117 c 0.006,0.006 0.0118,0.01 0.0137,0.0117 v 0.002 c -0.002,-7.2e-4 -0.009,-0.004 -0.0195,-0.008 0.0131,0.0362 0.0421,0.12898 0.0645,0.32226 0.0391,0.33765 0.0449,0.90204 0.0449,1.67383 V 202 h -5.98828 -0.002 -0.002 l -0.002,0.002 h -0.002 v 0.002 h -0.002 v 0.002 l -0.002,0.002 v -0.9082 c 0,-0.77172 0.006,-1.33619 0.0449,-1.67383 0.0224,-0.1931 0.0513,-0.28594 0.0645,-0.32226 -0.007,0.002 -0.0125,0.005 -0.0156,0.006 l -0.002,0.002 h -0.002 v -0.002 c 0.002,-0.002 0.007,-0.005 0.0137,-0.0117 l 0.008,-0.008 h 0.002 c -8.5e-4,0.003 -8.4e-4,0.006 -0.004,0.0137 0.0355,-0.0124 0.12532,-0.0391 0.31446,-0.0606 0.33278,-0.0378 0.88997,-0.043 1.65039,-0.043 z M 331,202.99219 l 0.002,0.002 v 0.002 h 0.002 v 0.002 h 0.002 l 0.002,0.002 h 0.002 0.002 5.988 l -9e-5,0.9001 c -9e-5,0.77173 -0.006,1.3362 -0.0449,1.67383 -0.0224,0.19311 -0.0513,0.28595 -0.0645,0.32227 0.007,-0.002 0.0125,-0.005 0.0156,-0.006 l 0.002,-0.002 h 0.002 v 0.002 c -0.002,0.002 -0.007,0.005 -0.0137,0.0117 l -0.008,0.008 h -0.002 c 8.5e-4,-0.003 8.4e-4,-0.006 0.004,-0.0137 -0.0355,0.0124 -0.12532,0.0391 -0.31445,0.0606 -0.33279,0.0378 -0.88996,0.043 -1.65039,0.043 h -0.0254 -1.80078 -0.0254 c -0.76043,0 -1.3176,-0.005 -1.65039,-0.043 -0.18926,-0.0215 -0.27905,-0.048 -0.31446,-0.0606 0.004,0.0103 0.005,0.0152 0.006,0.0176 l -0.0117,-0.0117 -0.008,-0.008 -0.002,-0.002 v -0.002 c 0.004,0.001 0.01,0.003 0.0156,0.006 -0.0132,-0.0364 -0.0421,-0.12922 -0.0645,-0.32227 -0.0385,-0.33764 -0.0447,-0.90217 -0.0446,-1.67392 z"
         style="baseline-shift:baseline;display:inline;overflow:visible;vector-effect:none;fill:#f9f9f9;fill-rule:evenodd;enable-background:new;stop-color:#000000;stop-opacity:1"
         id="path128"
         sodipodi:nodetypes="csssccssccccccssccccccscccscccssccccccccccsccccccscccsccccccccccccsccccccscccssccscccccccccsc" /><path
         d="M 329.61133,198 A 3.6112926,2 0 0 0 326,200 c 0,0.001 0,0.003 0,0.004 v 0.002 0.99414 4 1 c 5e-5,1.10455 1.6169,2 3.61133,2 1.99442,-3e-5 3.61133,-0.89545 3.61133,-2 v -1 -4 -0.99609 c -3e-4,0.0851 -0.0115,0.1697 -0.0312,0.25195 a 3.6112926,2 0 0 0 0.0312,-0.25195 c 0,-0.001 0,-0.003 0,-0.004 a 3.6112926,2 0 0 0 -3.61133,-2 z"
         style="display:inline;fill:#000000;fill-rule:evenodd;stroke-width:1;enable-background:new;fill-opacity:1;stroke:#000000;stroke-opacity:1;stroke-dasharray:none;opacity:0.15"
         id="path132" /><path
         d="m 329.61124,198.5 a 3.6112926,2 0 0 0 -3.61133,2 c 0,0.001 0,0.003 0,0.004 v 0.002 0.99414 4 1 c 5e-5,1.10455 1.6169,2 3.61133,2 1.99442,-3e-5 3.61133,-0.89545 3.61133,-2 v -1 -4 -0.99609 c -3e-4,0.0851 -0.0115,0.1697 -0.0312,0.25195 a 3.6112926,2 0 0 0 0.0312,-0.25195 c 0,-0.001 0,-0.003 0,-0.004 a 3.6112926,2 0 0 0 -3.61133,-2 z"
         style="display:inline;opacity:0.15;fill:#000000;fill-opacity:1;fill-rule:evenodd;stroke:#000000;stroke-width:1;stroke-dasharray:none;stroke-opacity:1;enable-background:new"
         id="path132-3" /><path
         d="M 329.61133,198 A 3.6112926,2 0 0 0 326,200 v 0.004 0.002 2.99414 3 c 0,1.10457 1.61687,2 3.61133,2 1.99446,0 3.61133,-0.89543 3.61133,-2 v -3 -3 a 3.6112926,2 0 0 0 -3.61133,-2 z"
         style="fill:#e97cc8;fill-rule:evenodd;stroke-width:0.999996"
         id="path13" /><path
         d="m 329.61127,198 a 3.6112926,2 0 0 0 -3.61128,2 3.6112926,2 0 0 0 1.22257,1.5 3.6112926,2 0 0 0 2.38871,0.5 3.6112926,2 0 0 0 2.38873,-0.5 3.6112926,2 0 0 0 1.22257,-1.5 3.6112926,2 0 0 0 -3.6113,-2 z"
         style="fill:#f9dbf0;fill-opacity:1;fill-rule:evenodd;stroke-width:0.999996"
         id="path120" /><path
         d="m 333.22266,200 c -2e-5,0.57396 -0.44539,1.12035 -1.22266,1.5 -0.65972,0.32222 -1.50904,0.50001 -2.38867,0.5 -0.87962,1e-5 -1.72896,-0.17778 -2.38867,-0.5 -0.77728,-0.37965 -1.22264,-0.92604 -1.22266,-1.5 v 3 c 0,1.10457 1.61687,2 3.61133,2 1.99446,0 3.61133,-0.89543 3.61133,-2 z"
         style="display:inline;fill:#f0a8db;fill-rule:evenodd;stroke-width:0.999996;enable-background:new;fill-opacity:1"
         id="path136" /><path
         d="m 328.00008,239 a 4.134063,2 0 0 0 -4.13411,2 c 0,0.001 0,0.003 0,0.004 v 0.002 0.99414 4 1 c 6e-5,1.10455 1.85097,2 4.13411,2 2.28313,-3e-5 4.13411,-0.89545 4.13411,-2 v -1 -4 -0.99609 c -3.5e-4,0.0851 -0.0132,0.1697 -0.0357,0.25195 a 4.134063,2 0 0 0 0.0357,-0.25195 c 0,-0.001 0,-0.003 0,-0.004 a 4.134063,2 0 0 0 -4.13411,-2 z"
         style="display:inline;opacity:0.15;fill:#000000;fill-opacity:1;fill-rule:evenodd;stroke:#000000;stroke-width:1;stroke-dasharray:none;stroke-opacity:1;enable-background:new"
         id="path132-8" /><path
         d="m 327.99998,239.5 a 4.134063,2 0 0 0 -4.13411,2 c 0,0.001 0,0.003 0,0.004 v 0.002 0.99414 4 1 c 6e-5,1.10455 1.85096,2 4.13411,2 2.28313,-3e-5 4.1341,-0.89545 4.1341,-2 v -1 -4 -0.99609 c -3.4e-4,0.0851 -0.0132,0.1697 -0.0357,0.25195 a 4.134063,2 0 0 0 0.0357,-0.25195 c 0,-0.001 0,-0.003 0,-0.004 a 4.134063,2 0 0 0 -4.1341,-2 z"
         style="display:inline;opacity:0.15;fill:#000000;fill-opacity:1;fill-rule:evenodd;stroke:#000000;stroke-width:1;stroke-dasharray:none;stroke-opacity:1;enable-background:new"
         id="path132-3-9" /><path
         d="m 328,239 a 4.134063,2 0 0 0 -4.13477,2 v 1 0.004 0.99609 0.004 0.99609 1 2 c 0,1.10457 1.85159,2 4.13477,2 2.28318,0 4.13477,-0.89543 4.13477,-2 v -2 -1 -1 -1 -1 A 4.134063,2 0 0 0 328,239 Z"
         style="display:inline;opacity:1;fill:#d85eca;fill-rule:evenodd;stroke-width:0.999996;enable-background:new"
         id="path15" /><path
         d="m 328.00001,239 a 4.134063,2 0 0 0 -4.13405,2 4.134063,2 0 0 0 1.39955,1.5 4.134063,2 0 0 0 2.7345,0.5 4.134063,2 0 0 0 2.73452,-0.5 4.134063,2 0 0 0 1.39955,-1.5 4.134063,2 0 0 0 -4.13407,-2 z"
         style="display:inline;fill:#f9dbf0;fill-opacity:1;fill-rule:evenodd;stroke-width:0.999996;enable-background:new"
         id="path120-1" /><path
         d="m 323.86523,241 v 1 c 0,0.001 0,0.003 0,0.004 V 243 c 0,1.10457 1.85159,2 4.13477,2 2.28318,0 4.13477,-0.89543 4.13477,-2 v -1 -1 c 2e-5,0.57399 -0.51058,1.12033 -1.4004,1.5 -0.75522,0.32222 -1.7274,0.50001 -2.73437,0.5 -1.00695,1e-5 -1.97916,-0.17778 -2.73438,-0.5 -0.88983,-0.37967 -1.40041,-0.92601 -1.40039,-1.5 z"
         style="display:inline;opacity:1;fill:#f0a8db;fill-rule:evenodd;stroke-width:0.999996;enable-background:new;fill-opacity:1"
         id="path142" /><path
         d="m 332.13477,243 c 0,1.10457 -1.85159,2 -4.13477,2 -2.28012,0 -4.12981,-0.89357 -4.13477,-1.99609 V 244 v 1 c 0,1.10457 1.85159,2 4.13477,2 2.28318,0 4.13477,-0.89543 4.13477,-2 v -1 z"
         style="display:inline;opacity:1;fill:#e97cc8;fill-rule:evenodd;stroke-width:0.999996;enable-background:new;fill-opacity:1"
         id="path141" /><g
         id="g136"
         transform="translate(0.0429,-0.09192)"><path
           d="m 334.45701,241.59192 c -2.6464,-2.6464 -3.90949,-3.92026 -5,-5 v 1.67578 c 0,3.01438 0.31186,3.32422 3.35352,3.32422 z"
           style="display:inline;fill:#f9f9f9;fill-opacity:1;enable-background:new"
           id="path62"
           sodipodi:nodetypes="ccssc" /><path
           d="m 330.16599,236.59192 h -1.20898 v 1.67578 c 0,0.76223 0.0172,1.36593 0.10352,1.875 0.0863,0.50909 0.2528,0.94896 0.58007,1.27344 0.32728,0.32448 0.76903,0.48886 1.28125,0.57422 0.51222,0.0854 1.11977,0.10156 1.88868,0.10156 h 1.64648 v -1.20703 c -2.13733,-2.13811 -3.3222,-3.3297 -4.29102,-4.29297 z m -0.20898,1.20703 c 0.7793,0.77642 1.83717,1.83538 3.29297,3.29297 h -0.43945 c -0.75193,0 -1.32289,-0.0209 -1.72461,-0.0879 -0.40173,-0.0669 -0.60934,-0.16905 -0.74024,-0.29885 -0.13089,-0.12978 -0.23158,-0.33365 -0.29883,-0.73047 -0.0673,-0.3968 -0.0898,-0.96206 -0.0898,-1.70703 z"
           style="baseline-shift:baseline;display:inline;overflow:visible;opacity:0.15;vector-effect:none;enable-background:new;stop-color:#000000"
           id="path92" /></g></g><g
       inkscape:groupmode="layer"
       id="layer6"
       inkscape:label="Pictograms"
       style="display:inline"><path
         d="m 362.5,75.5 -14,-14 v 4.251953 c 0.002,8.841321 1.50125,9.748136 9.73047,9.748047 z"
         style="display:inline;enable-background:new;fill:#f9f9f9"
         id="path45" /><path
         d="m 348.5,143.5 -10,-10 v 3.7168 c 0,5.69824 1.01385,6.2832 6.57422,6.2832 z"
         style="display:inline;enable-background:new;opacity:1;fill:#f9f9f9;fill-opacity:1"
         id="path44"
         sodipodi:nodetypes="ccssc" /><path
         d="M 339.20703,133.5 H 338 v 3.7168 c 0,1.43938 0.0607,2.57161 0.25586,3.49023 0.1952,0.91862 0.54102,1.642 1.11133,2.1582 1.14062,1.03241 2.90931,1.13477 5.70703,1.13477 H 348.5 v -1.20117 h 0.006 z M 339,134.70703 347.29297,143 h -2.21875 c -2.76265,0 -4.28071,-0.19036 -5.03711,-0.875 -0.3782,-0.34232 -0.63406,-0.83327 -0.80274,-1.62695 C 339.06572,139.70436 339,138.62653 339,137.2168 Z"
         style="display:inline;enable-background:new;baseline-shift:baseline;overflow:visible;opacity:0.15;vector-effect:none;stop-color:#000000;stop-opacity:1"
         id="path57" /><path
         d="M 349.20703,61.5 H 348 v 4.251953 c 5e-4,2.22446 0.0915,3.963323 0.37305,5.351563 0.28157,1.38824 0.76632,2.445748 1.5625,3.201171 1.59236,1.510847 4.16194,1.695358 8.29492,1.695313 H 362.5 V 74.792969 Z M 349,62.707031 361.29297,75 h -3.0625 c -4.09625,4.4e-5 -6.3904,-0.269006 -7.60547,-1.421875 -0.60753,-0.576435 -1.01422,-1.403468 -1.27148,-2.671875 C 349.09625,69.637843 349.0005,67.948154 349,65.751953 Z"
         style="display:inline;enable-background:new;baseline-shift:baseline;overflow:visible;opacity:0.15;vector-effect:none;stop-color:#000000;stop-opacity:1"
         id="path50" /><path
         inkscape:connector-curvature="0"
         style="color:#000000;display:inline;overflow:visible;visibility:visible;fill:#f9f9f9;fill-opacity:1;fill-rule:nonzero;stroke:none;stroke-width:1;marker:none;enable-background:accumulate"
         d="M 240,107.99416 176.00586,44 v 22.99805 1 0.53711 c 0,35.29429 3.62603,39.63198 38.99414,39.459 z"
         id="rect4158-0-3" /><path
         d="m 178.83398,44 h -2.82812 l 63.98828,63.99414 0.01,-0.01 v -2.8086 z"
         style="opacity:0.15;fill:#000000;stroke:none;stroke-width:4;fill-opacity:1"
         id="path11" /><path
         d="m 341.5,196.5 -8,-8.01167 v 2.9043 c 0,4.62202 0.47778,5.07673 5.13477,5.0957 z"
         style="display:inline;enable-background:new;opacity:1;fill:#faf8f6;fill-opacity:1;stroke-width:2"
         id="path54"
         sodipodi:nodetypes="ccssc" /><path
         d="M 334.21875,188.5 H 333 v 2.89258 c 0,1.16412 0.0272,2.07703 0.1543,2.82617 0.1271,0.74914 0.36537,1.35862 0.81445,1.80273 0.44908,0.44411 1.06203,0.67994 1.81641,0.80664 0.75437,0.12671 1.6753,0.15539 2.84765,0.16016 L 341.5,197 v -1.20703 z M 334,189.69727 l 6.28906,6.29687 -1.65234,-0.006 c -1.15615,-0.005 -2.04056,-0.0382 -2.68555,-0.14648 -0.64499,-0.10833 -1.02679,-0.28156 -1.2793,-0.53125 -0.25248,-0.24969 -0.42323,-0.62116 -0.53125,-1.25782 C 334.03261,193.41636 334,192.53947 334,191.39258 Z"
         style="display:inline;enable-background:new;baseline-shift:baseline;overflow:visible;opacity:0.15;vector-effect:none;stop-color:#000000;stop-opacity:1"
         id="path64" /></g></g></svg>
