<?xml version="1.0" encoding="UTF-8" standalone="no"?>
<svg
   inkscape:export-ydpi="96"
   inkscape:export-xdpi="96"
   width="400"
   height="300"
   id="svg11300"
   sodipodi:version="0.32"
   inkscape:version="1.4.2 (ebf0e940d0, 2025-05-08)"
   sodipodi:docname="libreoffice-calc.svg"
   inkscape:output_extension="org.inkscape.output.svg.inkscape"
   version="1.0"
   style="display:inline;enable-background:new"
   inkscape:export-filename="/home/stuart/Pictures/evince rearranged.png"
   xml:space="preserve"
   xmlns:inkscape="http://www.inkscape.org/namespaces/inkscape"
   xmlns:sodipodi="http://sodipodi.sourceforge.net/DTD/sodipodi-0.dtd"
   xmlns:xlink="http://www.w3.org/1999/xlink"
   xmlns="http://www.w3.org/2000/svg"
   xmlns:svg="http://www.w3.org/2000/svg"
   xmlns:rdf="http://www.w3.org/1999/02/22-rdf-syntax-ns#"
   xmlns:cc="http://creativecommons.org/ns#"
   xmlns:dc="http://purl.org/dc/elements/1.1/"><title
     id="title3004">Suru Icon Theme Template</title><sodipodi:namedview
     stroke="#ef2929"
     fill="#f57900"
     id="base"
     pagecolor="#aeaeae"
     bordercolor="#000000"
     borderopacity="0.25490196"
     inkscape:pageopacity="0"
     inkscape:pageshadow="2"
     inkscape:zoom="2.7221204"
     inkscape:cx="286.90869"
     inkscape:cy="175.41472"
     inkscape:current-layer="layer8"
     showgrid="false"
     inkscape:grid-bbox="true"
     inkscape:document-units="px"
     inkscape:showpageshadow="false"
     inkscape:window-width="1870"
     inkscape:window-height="1011"
     inkscape:window-x="0"
     inkscape:window-y="0"
     width="400px"
     height="300px"
     inkscape:snap-nodes="true"
     inkscape:snap-bbox="true"
     gridtolerance="10000"
     inkscape:object-nodes="true"
     inkscape:snap-grids="true"
     showguides="false"
     inkscape:guide-bbox="true"
     inkscape:window-maximized="1"
     inkscape:bbox-paths="true"
     inkscape:snap-bbox-midpoints="true"
     inkscape:snap-global="false"
     inkscape:object-paths="true"
     inkscape:snap-intersection-paths="true"
     inkscape:snap-smooth-nodes="true"
     inkscape:pagecheckerboard="false"
     showborder="false"
     inkscape:document-rotation="0"
     inkscape:deskcolor="#d1d1d1"><inkscape:grid
       spacingy="1"
       spacingx="1"
       id="grid5883"
       type="xygrid"
       enabled="true"
       visible="false"
       empspacing="4"
       snapvisiblegridlinesonly="true"
       originx="0"
       originy="0"
       units="px" /><inkscape:grid
       type="xygrid"
       id="grid11592"
       empspacing="2"
       visible="true"
       enabled="false"
       spacingx="0.5"
       spacingy="0.5"
       color="#ff0000"
       opacity="0.1254902"
       empcolor="#ff0000"
       empopacity="0.25098039"
       snapvisiblegridlinesonly="true"
       originx="0"
       originy="0"
       units="px" /><sodipodi:guide
       position="130.09589,144"
       orientation="0,-1"
       id="guide2"
       inkscape:locked="false" /></sodipodi:namedview><defs
     id="defs3"><filter
       inkscape:collect="always"
       style="color-interpolation-filters:sRGB"
       id="filter4346"
       x="-0.014454287"
       width="1.0289086"
       y="-0.011357288"
       height="1.0227146"><feGaussianBlur
         inkscape:collect="always"
         stdDeviation="2.120027"
         id="feGaussianBlur4348" /></filter><filter
       inkscape:collect="always"
       style="color-interpolation-filters:sRGB"
       id="filter4380"
       x="-0.057817147"
       width="1.1156343"
       y="-0.045429151"
       height="1.0908583"><feGaussianBlur
         inkscape:collect="always"
         stdDeviation="8.4801079"
         id="feGaussianBlur4382" /></filter><linearGradient
       inkscape:collect="always"
       id="linearGradient927"><stop
         style="stop-color:#ffffff;stop-opacity:1;"
         offset="0"
         id="stop923" /><stop
         id="stop933"
         offset="0.125"
         style="stop-color:#ffffff;stop-opacity:0.09803922" /><stop
         id="stop931"
         offset="0.92500001"
         style="stop-color:#ffffff;stop-opacity:0.09803922" /><stop
         style="stop-color:#ffffff;stop-opacity:0.49803922"
         offset="1"
         id="stop925" /></linearGradient><clipPath
       clipPathUnits="userSpaceOnUse"
       id="clipPath994"><path
         style="color:#000000;display:inline;overflow:visible;visibility:visible;fill:#cdcdcd;fill-opacity:1;fill-rule:nonzero;stroke:none;stroke-width:2;stroke-miterlimit:4;stroke-dasharray:none;stroke-opacity:1;marker:none;enable-background:accumulate"
         d="m 335.73108,62 c -8.82418,0 -9.77365,0.90635 -9.7304,9.74838 V 84 96.25162 c -0.0433,8.84203 0.90622,9.74838 9.7304,9.74838 h 16.53919 c 8.82418,0 9.7304,-0.90625 9.7304,-9.74838 V 84 71.74838 C 362.00067,62.90625 361.09445,62 352.27027,62 Z"
         id="path996"
         inkscape:connector-curvature="0"
         sodipodi:nodetypes="scccssscsss" /></clipPath><linearGradient
       inkscape:collect="always"
       xlink:href="#linearGradient4245"
       id="linearGradient916"
       gradientUnits="userSpaceOnUse"
       gradientTransform="matrix(0,-0.05921519,0.05978336,0,313.2699,214.63635)"
       x1="441.37936"
       y1="240.30258"
       x2="52.965523"
       y2="386.30795" /><clipPath
       clipPathUnits="userSpaceOnUse"
       id="clipPath971"><path
         style="color:#000000;display:inline;overflow:visible;visibility:visible;opacity:1;fill:#46a926;fill-opacity:1;fill-rule:nonzero;stroke:none;stroke-width:2;stroke-miterlimit:4;stroke-dasharray:none;stroke-opacity:1;marker:none;enable-background:accumulate"
         d="m 327.8652,189 c -4.41209,0 -4.88682,0.45318 -4.8652,4.87419 V 200 206.12581 C 322.9783,210.54682 323.45311,211 327.8652,211 h 8.2696 C 340.54689,211 341,210.54688 341,206.12581 V 200 193.87419 C 341,189.45313 340.54688,189 336.13479,189 Z"
         id="path973"
         inkscape:connector-curvature="0"
         sodipodi:nodetypes="scccssscsss" /></clipPath><linearGradient
       inkscape:collect="always"
       xlink:href="#linearGradient927"
       id="linearGradient981"
       x1="332"
       y1="189"
       x2="332"
       y2="211"
       gradientUnits="userSpaceOnUse" /><clipPath
       clipPathUnits="userSpaceOnUse"
       id="clipPath983"><path
         sodipodi:nodetypes="scccssscsss"
         inkscape:connector-curvature="0"
         id="path985"
         d="m 325.09646,237 c -2.80769,0 -3.10979,0.28839 -3.09603,3.10176 V 244 v 3.89824 c -0.0138,2.81337 0.28834,3.10176 3.09603,3.10176 h 5.8075 C 333.71166,251 334,250.71165 334,247.89824 V 244 240.10176 C 334,237.28836 333.71165,237 330.90396,237 Z"
         style="color:#000000;display:inline;overflow:visible;visibility:visible;opacity:1;fill:#46a926;fill-opacity:1;fill-rule:nonzero;stroke:none;stroke-width:2;stroke-miterlimit:4;stroke-dasharray:none;stroke-opacity:1;marker:none;enable-background:accumulate" /></clipPath><linearGradient
       inkscape:collect="always"
       xlink:href="#linearGradient927"
       id="linearGradient1004-8"
       x1="344"
       y1="62"
       x2="344"
       y2="106"
       gradientUnits="userSpaceOnUse" /><clipPath
       clipPathUnits="userSpaceOnUse"
       id="clipPath994-1"><path
         style="color:#000000;display:inline;overflow:visible;visibility:visible;fill:#cdcdcd;fill-opacity:1;fill-rule:nonzero;stroke:none;stroke-width:2;stroke-miterlimit:4;stroke-dasharray:none;stroke-opacity:1;marker:none;enable-background:accumulate"
         d="m 335.73108,62 c -8.82418,0 -9.77365,0.90635 -9.7304,9.74838 V 84 96.25162 c -0.0433,8.84203 0.90622,9.74838 9.7304,9.74838 h 16.53919 c 8.82418,0 9.7304,-0.90625 9.7304,-9.74838 V 84 71.74838 C 362.00067,62.90625 361.09445,62 352.27027,62 Z"
         id="path996-8"
         inkscape:connector-curvature="0"
         sodipodi:nodetypes="scccssscsss" /></clipPath><linearGradient
       id="linearGradient4245"
       inkscape:collect="always"><stop
         id="stop4241"
         offset="0"
         style="stop-color:#e8e8e8;stop-opacity:1" /><stop
         id="stop4243"
         offset="1"
         style="stop-color:#f5f5f5;stop-opacity:1" /></linearGradient><linearGradient
       inkscape:collect="always"
       xlink:href="#linearGradient927"
       id="linearGradient2673"
       x1="344"
       y1="62"
       x2="344"
       y2="106"
       gradientUnits="userSpaceOnUse"
       gradientTransform="translate(2.9751576e-4)" /><clipPath
       clipPathUnits="userSpaceOnUse"
       id="clipPath994-1-3"><path
         style="color:#000000;display:inline;overflow:visible;visibility:visible;fill:#cdcdcd;fill-opacity:1;fill-rule:nonzero;stroke:none;stroke-width:2;stroke-miterlimit:4;stroke-dasharray:none;stroke-opacity:1;marker:none;enable-background:accumulate"
         d="m 335.73108,62 c -8.82418,0 -9.77365,0.90635 -9.7304,9.74838 V 84 96.25162 c -0.0433,8.84203 0.90622,9.74838 9.7304,9.74838 h 16.53919 c 8.82418,0 9.7304,-0.90625 9.7304,-9.74838 V 84 71.74838 C 362.00067,62.90625 361.09445,62 352.27027,62 Z"
         id="path996-8-2"
         inkscape:connector-curvature="0"
         sodipodi:nodetypes="scccssscsss" /></clipPath><linearGradient
       inkscape:collect="always"
       xlink:href="#linearGradient927"
       id="linearGradient920-6"
       gradientUnits="userSpaceOnUse"
       gradientTransform="matrix(0,-0.0386186,0.03904659,0,315.4715,253.5572)"
       x1="428.4324"
       y1="320.86029"
       x2="65.912796"
       y2="320.86029" /><filter
       inkscape:collect="always"
       style="color-interpolation-filters:sRGB"
       id="filter8"
       x="-0.046956531"
       y="-0.049090893"
       width="1.0939131"
       height="1.0981818"><feGaussianBlur
         inkscape:collect="always"
         stdDeviation="2.2499994"
         id="feGaussianBlur8" /></filter><filter
       inkscape:collect="always"
       style="color-interpolation-filters:sRGB"
       id="filter9"
       x="-0.011739133"
       y="-0.012272723"
       width="1.0234783"
       height="1.0245454"><feGaussianBlur
         inkscape:collect="always"
         stdDeviation="0.56249985"
         id="feGaussianBlur9" /></filter></defs><metadata
     id="metadata4"><rdf:RDF><cc:Work
         rdf:about=""><dc:format>image/svg+xml</dc:format><dc:type
           rdf:resource="http://purl.org/dc/dcmitype/StillImage" /><dc:creator><cc:Agent><dc:title>Sam Hewitt</dc:title></cc:Agent></dc:creator><dc:source /><cc:license
           rdf:resource="http://creativecommons.org/licenses/by-sa/4.0/" /><dc:title>Suru Icon Theme Template</dc:title><dc:subject><rdf:Bag /></dc:subject><dc:date /><dc:rights><cc:Agent><dc:title /></cc:Agent></dc:rights><dc:publisher><cc:Agent><dc:title /></cc:Agent></dc:publisher><dc:identifier /><dc:relation /><dc:language /><dc:coverage /><dc:description /><dc:contributor><cc:Agent><dc:title /></cc:Agent></dc:contributor></cc:Work><cc:Work
         rdf:about=""><dc:format>image/svg+xml</dc:format><dc:type
           rdf:resource="http://purl.org/dc/dcmitype/StillImage" /></cc:Work><cc:License
         rdf:about="http://creativecommons.org/licenses/by-sa/4.0/"><cc:permits
           rdf:resource="http://creativecommons.org/ns#Reproduction" /><cc:permits
           rdf:resource="http://creativecommons.org/ns#Distribution" /><cc:requires
           rdf:resource="http://creativecommons.org/ns#Notice" /><cc:requires
           rdf:resource="http://creativecommons.org/ns#Attribution" /><cc:permits
           rdf:resource="http://creativecommons.org/ns#DerivativeWorks" /><cc:requires
           rdf:resource="http://creativecommons.org/ns#ShareAlike" /></cc:License></rdf:RDF></metadata><g
     style="display:inline"
     inkscape:groupmode="layer"
     inkscape:label="Icon"
     id="layer1"><g
       style="display:none"
       inkscape:label="Baseplate"
       id="layer7"
       inkscape:groupmode="layer"><text
         y="-8.2548828"
         xml:space="preserve"
         x="19.006836"
         style="font-style:normal;font-variant:normal;font-weight:normal;font-stretch:normal;line-height:0%;font-family:'DejaVu Sans';-inkscape-font-specification:'DejaVu Sans';display:inline;fill:#000000;fill-opacity:1;stroke:none;enable-background:new"
         inkscape:label="context"
         id="context"><tspan
           style="font-style:normal;font-variant:normal;font-weight:normal;font-stretch:normal;font-size:18px;line-height:1.25;font-family:'DejaVu Sans';-inkscape-font-specification:'DejaVu Sans'"
           y="-8.2548828"
           x="19.006836"
           sodipodi:role="line"
           id="tspan3933">apps</tspan></text><text
         y="-8.2548828"
         xml:space="preserve"
         x="146.48828"
         style="font-style:normal;font-variant:normal;font-weight:bold;font-stretch:normal;line-height:0%;font-family:'DejaVu Sans';-inkscape-font-specification:'DejaVu Sans Bold';text-align:start;writing-mode:lr-tb;text-anchor:start;display:inline;fill:#000000;fill-opacity:1;stroke:none;enable-background:new"
         inkscape:label="icon-name"
         id="icon-name"><tspan
           style="font-style:normal;font-variant:normal;font-weight:bold;font-stretch:normal;font-size:18px;line-height:1.25;font-family:'DejaVu Sans';-inkscape-font-specification:'DejaVu Sans Bold'"
           y="-8.2548828"
           x="146.48828"
           sodipodi:role="line"
           id="tspan1">libreoffice-calc</tspan></text><rect
         style="display:inline;overflow:visible;visibility:visible;fill:#cdcdcd;fill-opacity:1;fill-rule:nonzero;stroke:none;stroke-width:2;marker:none;enable-background:accumulate"
         id="rect16x16"
         width="16"
         height="16"
         x="320"
         y="236"
         inkscape:label="16x16" /><rect
         style="display:inline;overflow:visible;visibility:visible;fill:#cdcdcd;fill-opacity:1;fill-rule:nonzero;stroke:none;stroke-width:2;marker:none;enable-background:accumulate"
         id="rect24x24"
         width="24"
         height="24"
         x="320"
         y="188"
         inkscape:label="24x24" /><rect
         style="display:inline;overflow:visible;visibility:visible;fill:#cdcdcd;fill-opacity:1;fill-rule:nonzero;stroke:none;stroke-width:2;marker:none;enable-background:accumulate"
         id="rect32x32"
         width="32"
         height="32"
         x="320"
         y="132"
         inkscape:label="32x32" /><rect
         inkscape:label="48x48"
         y="60"
         x="320"
         height="48"
         width="48"
         id="rect48x48"
         style="display:inline;overflow:visible;visibility:visible;fill:#cdcdcd;fill-opacity:1;fill-rule:nonzero;stroke:none;stroke-width:2;marker:none;enable-background:accumulate" /><rect
         style="display:inline;overflow:visible;visibility:visible;fill:#cdcdcd;fill-opacity:1;fill-rule:nonzero;stroke:none;stroke-width:2;marker:none;enable-background:accumulate"
         id="rect3951"
         width="256"
         height="256"
         x="24"
         y="28"
         inkscape:label="48x48" /></g><g
       inkscape:groupmode="layer"
       id="layer8"
       inkscape:label="Backgrounds"
       style="display:inline"><path
         style="color:#000000;font-style:normal;font-variant:normal;font-weight:normal;font-stretch:normal;font-size:medium;line-height:normal;font-family:sans-serif;font-variant-ligatures:normal;font-variant-position:normal;font-variant-caps:normal;font-variant-numeric:normal;font-variant-alternates:normal;font-feature-settings:normal;text-indent:0;text-align:start;text-decoration:none;text-decoration-line:none;text-decoration-style:solid;text-decoration-color:#000000;letter-spacing:normal;word-spacing:normal;text-transform:none;writing-mode:lr-tb;direction:ltr;text-orientation:mixed;dominant-baseline:auto;baseline-shift:baseline;text-anchor:start;white-space:normal;shape-padding:0;clip-rule:nonzero;display:inline;overflow:visible;visibility:visible;opacity:0.1;isolation:auto;mix-blend-mode:normal;color-interpolation:sRGB;color-interpolation-filters:linearRGB;solid-color:#000000;solid-opacity:1;vector-effect:none;fill:#000000;fill-opacity:1;fill-rule:nonzero;stroke:none;stroke-width:2;stroke-linecap:butt;stroke-linejoin:miter;stroke-miterlimit:4;stroke-dasharray:none;stroke-dashoffset:0;stroke-opacity:1;marker:none;color-rendering:auto;image-rendering:auto;shape-rendering:auto;text-rendering:auto;enable-background:accumulate"
         d="m 327.86523,189 c -1.12014,0 -2.01524,0.0241 -2.79101,0.1543 -0.77577,0.13022 -1.48014,0.38763 -2.00977,0.91601 -0.52962,0.52838 -0.79079,1.23687 -0.91992,2.01367 -0.12912,0.77681 -0.15002,1.67169 -0.14453,2.79493 V 201 v 6.125 c -0.005,1.12104 0.0156,2.01529 0.14453,2.79102 0.12912,0.77681 0.39029,1.48529 0.91992,2.01367 0.52964,0.52838 1.234,0.78579 2.00977,0.91601 0.77577,0.13022 1.67087,0.1543 2.79101,0.1543 h 8.26954 c 1.12013,0 2.01264,-0.024 2.78711,-0.1543 0.77446,-0.13033 1.48001,-0.38927 2.00781,-0.91797 0.5278,-0.52869 0.78594,-1.23438 0.91601,-2.00976 C 341.97577,209.14258 342,208.24735 342,207.125 V 201 194.875 c 0,-1.12235 -0.0242,-2.01758 -0.1543,-2.79297 -0.13007,-0.77538 -0.38821,-1.48107 -0.91601,-2.00976 -0.5278,-0.5287 -1.23334,-0.78764 -2.00781,-0.91797 C 338.1474,189.02397 337.25491,189 336.13477,189 Z"
         id="path995"
         inkscape:connector-curvature="0"
         sodipodi:nodetypes="sccccccccssscccscscccss" /><path
         style="color:#000000;font-style:normal;font-variant:normal;font-weight:normal;font-stretch:normal;font-size:medium;line-height:normal;font-family:sans-serif;font-variant-ligatures:normal;font-variant-position:normal;font-variant-caps:normal;font-variant-numeric:normal;font-variant-alternates:normal;font-feature-settings:normal;text-indent:0;text-align:start;text-decoration:none;text-decoration-line:none;text-decoration-style:solid;text-decoration-color:#000000;letter-spacing:normal;word-spacing:normal;text-transform:none;writing-mode:lr-tb;direction:ltr;text-orientation:mixed;dominant-baseline:auto;baseline-shift:baseline;text-anchor:start;white-space:normal;shape-padding:0;clip-rule:nonzero;display:inline;overflow:visible;visibility:visible;opacity:0.1;isolation:auto;mix-blend-mode:normal;color-interpolation:sRGB;color-interpolation-filters:linearRGB;solid-color:#000000;solid-opacity:1;vector-effect:none;fill:#000000;fill-opacity:1;fill-rule:nonzero;stroke:none;stroke-width:2;stroke-linecap:butt;stroke-linejoin:miter;stroke-miterlimit:4;stroke-dasharray:none;stroke-dashoffset:0;stroke-opacity:1;marker:none;color-rendering:auto;image-rendering:auto;shape-rendering:auto;text-rendering:auto;enable-background:accumulate"
         d="m 325.0957,237 c -0.71904,0 -1.30185,0.0139 -1.83593,0.10352 -0.53409,0.0897 -1.0683,0.27628 -1.47657,0.68359 -0.40826,0.4073 -0.59657,0.94323 -0.68554,1.47851 -0.089,0.53529 -0.10119,1.12048 -0.0977,1.8418 V 244 v 3.89844 c -0.003,0.71816 0.009,1.30235 0.0977,1.83594 0.089,0.53528 0.27727,1.07121 0.68554,1.47851 0.40827,0.40731 0.94248,0.59394 1.47657,0.68359 0.53408,0.0897 1.11689,0.10352 1.83593,0.10352 h 5.8086 c 0.71904,0 1.30058,-0.0137 1.83398,-0.10352 0.53341,-0.0898 1.06768,-0.27792 1.47461,-0.68554 0.40693,-0.40762 0.59404,-0.94271 0.68359,-1.47656 C 334.98604,249.20052 335,248.61887 335,247.89844 V 244 241.10156 c 0,-0.72043 -0.014,-1.30208 -0.10352,-1.83594 -0.0895,-0.53385 -0.27666,-1.06894 -0.68359,-1.47656 -0.40693,-0.40762 -0.9412,-0.59578 -1.47461,-0.68554 C 332.20488,237.01375 331.62334,237 330.9043,237 Z"
         id="path997"
         inkscape:connector-curvature="0"
         sodipodi:nodetypes="scscccccccsscscscscscss" /><path
         style="color:#000000;font-style:normal;font-variant:normal;font-weight:normal;font-stretch:normal;font-size:medium;line-height:normal;font-family:sans-serif;font-variant-ligatures:normal;font-variant-position:normal;font-variant-caps:normal;font-variant-numeric:normal;font-variant-alternates:normal;font-feature-settings:normal;text-indent:0;text-align:start;text-decoration:none;text-decoration-line:none;text-decoration-style:solid;text-decoration-color:#000000;letter-spacing:normal;word-spacing:normal;text-transform:none;writing-mode:lr-tb;direction:ltr;text-orientation:mixed;dominant-baseline:auto;baseline-shift:baseline;text-anchor:start;white-space:normal;shape-padding:0;clip-rule:nonzero;display:inline;overflow:visible;visibility:visible;opacity:0.1;isolation:auto;mix-blend-mode:normal;color-interpolation:sRGB;color-interpolation-filters:linearRGB;solid-color:#000000;solid-opacity:1;vector-effect:none;fill:#000000;fill-opacity:1;fill-rule:nonzero;stroke:none;stroke-width:2;stroke-linecap:butt;stroke-linejoin:miter;stroke-miterlimit:4;stroke-dasharray:none;stroke-dashoffset:0;stroke-opacity:1;marker:none;color-rendering:auto;image-rendering:auto;shape-rendering:auto;text-rendering:auto;enable-background:accumulate"
         d="m 330.19336,134 c -1.42096,0 -2.54883,0.0308 -3.50586,0.19141 -0.95703,0.16064 -1.79146,0.4726 -2.41211,1.09179 -0.62065,0.61919 -0.93647,1.45612 -1.0957,2.41407 -0.15924,0.95795 -0.18666,2.08705 -0.17969,3.51171 V 149 v 7.79688 c -0.007,1.42131 0.0207,2.5495 0.17969,3.50585 0.15923,0.95796 0.47505,1.79488 1.0957,2.41407 0.62065,0.61919 1.45508,0.93115 2.41211,1.09179 0.95703,0.16065 2.0849,0.19141 3.50586,0.19141 h 11.61523 c 1.42097,0 2.54669,-0.0307 3.50196,-0.19141 0.95527,-0.16075 1.78779,-0.47425 2.40625,-1.09375 0.61845,-0.6195 0.93134,-1.45363 1.09179,-2.41015 C 348.96905,159.34816 349,158.22066 349,156.79688 V 149 141.20312 c 0,-1.42378 -0.031,-2.55128 -0.19141,-3.50781 -0.16045,-0.95653 -0.47334,-1.79065 -1.09179,-2.41015 -0.61846,-0.61951 -1.45098,-0.933 -2.40625,-1.09375 C 344.35528,134.03065 343.22956,134 341.80859,134 Z"
         id="path999"
         inkscape:connector-curvature="0"
         sodipodi:nodetypes="scscccccscsscccscscscss" /><path
         style="color:#000000;font-style:normal;font-variant:normal;font-weight:normal;font-stretch:normal;font-size:medium;line-height:normal;font-family:sans-serif;font-variant-ligatures:normal;font-variant-position:normal;font-variant-caps:normal;font-variant-numeric:normal;font-variant-alternates:normal;font-feature-settings:normal;text-indent:0;text-align:start;text-decoration:none;text-decoration-line:none;text-decoration-style:solid;text-decoration-color:#000000;letter-spacing:normal;word-spacing:normal;text-transform:none;writing-mode:lr-tb;direction:ltr;text-orientation:mixed;dominant-baseline:auto;baseline-shift:baseline;text-anchor:start;white-space:normal;shape-padding:0;clip-rule:nonzero;display:inline;overflow:visible;visibility:visible;opacity:0.1;isolation:auto;mix-blend-mode:normal;color-interpolation:sRGB;color-interpolation-filters:linearRGB;solid-color:#000000;solid-opacity:1;vector-effect:none;fill:#000000;fill-opacity:1;fill-rule:nonzero;stroke:none;stroke-width:2;stroke-linecap:butt;stroke-linejoin:miter;stroke-miterlimit:4;stroke-dasharray:none;stroke-dashoffset:0;stroke-opacity:1;marker:none;color-rendering:auto;image-rendering:auto;shape-rendering:auto;text-rendering:auto;enable-background:accumulate"
         d="m 335.23093,61.500047 c -2.22316,0 -3.97368,0.05118 -5.41406,0.292969 -1.44039,0.241784 -2.61905,0.695299 -3.48243,1.55664 -0.86337,0.861342 -1.31906,2.039471 -1.55859,3.480469 -0.23953,1.440999 -0.28629,3.195341 -0.27539,5.423828 V 85 97.752143 c -0.0108,2.225063 0.0361,3.978517 0.27539,5.417967 0.23953,1.441 0.69522,2.61913 1.55859,3.48047 0.86338,0.86134 2.04204,1.31486 3.48243,1.55664 1.44039,0.24179 3.1909,0.29297 5.41406,0.29297 h 17.53883 c 2.22317,0 3.97276,-0.0511 5.41017,-0.29297 1.4374,-0.24189 2.61246,-0.69694 3.47265,-1.55859 0.8602,-0.86165 1.31319,-2.03894 1.55468,-3.47852 0.24149,-1.43957 0.29297,-3.190353 0.29297,-5.417967 V 85 72.248094 c 0,-2.227614 -0.0515,-3.978392 -0.29297,-5.417969 -0.24149,-1.439576 -0.69449,-2.616863 -1.55469,-3.478516 -0.86019,-0.861652 -2.03525,-1.316704 -3.47265,-1.558593 -1.4374,-0.24189 -3.187,-0.292969 -5.41016,-0.292969 z"
         id="path1020"
         inkscape:connector-curvature="0"
         sodipodi:nodetypes="sccsccccccsscccscsccsss" /><path
         style="color:#000000;display:inline;overflow:visible;visibility:visible;fill:#e6e6e6;fill-opacity:1;fill-rule:nonzero;stroke:none;stroke-width:1;marker:none;enable-background:accumulate"
         d="m 335.23001,61.500047 c -8.23154,0 -9.77365,0.90635 -9.7304,9.74838 V 84 96.75181 c -0.0433,8.84203 1.49886,9.74838 9.7304,9.74838 h 17.53897 c 8.22949,0 9.73039,-0.90625 9.73039,-9.74838 V 84 71.248427 c 0,-8.84213 -1.5009,-9.74838 -9.7304,-9.74838 z"
         id="path964"
         inkscape:connector-curvature="0"
         sodipodi:nodetypes="scccssscsss" /><path
         d="m 335.23242,61.5 c -2.57235,-9e-6 -4.49246,0.08897 -5.91406,0.480469 -0.28361,0.07818 -0.5497,0.16941 -0.79492,0.273437 -0.36797,0.156244 -0.6959,0.344253 -0.98438,0.56836 -0.19214,0.14939 -0.36738,0.316207 -0.52734,0.5 -0.24,0.275983 -0.44663,0.593914 -0.6211,0.957031 -0.69823,1.454493 -0.90488,3.654173 -0.88867,6.96875 V 84 96.751953 c -0.0433,8.842027 1.49893,9.748047 9.73047,9.748047 h 17.53906 c 8.22949,0 9.72852,-0.90592 9.72852,-9.748047 V 84 l 8.9e-4,-8.5 -4.26954,4.6e-5 c -8.22922,8.9e-5 -9.72862,-0.906726 -9.73046,-9.748047 L 348.5,61.500046 Z"
         style="opacity:1;fill:#28851e;fill-opacity:1"
         id="path7"
         sodipodi:nodetypes="sccccccccsssccsscs" /><path
         style="color:#000000;display:inline;overflow:visible;visibility:visible;opacity:0.1;fill:#000000;fill-opacity:1;fill-rule:nonzero;stroke:none;stroke-width:2;marker:none;filter:url(#filter4346);enable-background:accumulate"
         d="M 189.84323,74 C 119.24979,74 111.65402,81.250835 112,151.98706 V 298 444.01294 C 111.65402,514.74917 119.24979,522 189.84323,522 H 386.15677 C 456.75021,522 462.16345,514.72616 464,444.01294 V 298 151.98706 C 464,81.249993 456.75021,74 386.15677,74 Z"
         id="rect4158-9"
         inkscape:connector-curvature="0"
         sodipodi:nodetypes="scccssscsss"
         transform="matrix(0.5,0,0,0.5,8,8)" /><path
         sodipodi:nodetypes="scccssscsss"
         inkscape:connector-curvature="0"
         id="path4350"
         d="M 189.84323,74 C 119.24979,74 111.65402,81.250835 112,151.98706 V 298 444.01294 C 111.65402,514.74917 119.24979,522 189.84323,522 H 386.15677 C 456.75021,522 464,514.75001 464,444.01294 V 298 151.98706 C 464,81.249993 456.75021,74 386.15677,74 Z"
         style="color:#000000;display:inline;overflow:visible;visibility:visible;opacity:0.1;fill:#000000;fill-opacity:1;fill-rule:nonzero;stroke:none;stroke-width:2;marker:none;filter:url(#filter4380);enable-background:accumulate"
         transform="matrix(0.5,0,0,0.5,8,8)" /><path
         style="color:#000000;display:inline;overflow:visible;visibility:visible;opacity:0.1;fill:#000000;fill-opacity:1;fill-rule:nonzero;stroke:none;stroke-width:1.02028775;marker:none;enable-background:accumulate"
         d="M 101.8116,42 C 65.712789,42 61.828597,45.690158 62.005519,81.689842 V 156 230.31016 C 61.828597,266.30985 65.712789,270 101.8116,270 h 100.38732 c 36.09881,0 39.80608,-3.68973 39.80608,-39.68984 V 156 81.689842 C 242.005,45.689729 238.29773,42 202.19892,42 Z"
         id="rect4158-7"
         inkscape:connector-curvature="0"
         sodipodi:nodetypes="scccssscsss" /><path
         style="color:#000000;display:inline;overflow:visible;visibility:visible;fill:#28851e;fill-opacity:1;fill-rule:nonzero;stroke:none;stroke-width:1;marker:none;enable-background:accumulate"
         d="m 201.07298,44 c 35.29673,0 39.09461,3.625418 38.92162,38.99353 V 156 229.00647 C 240.16759,264.37459 236.36971,268 201.07298,268 H 102.91622 C 67.619504,268 63.994604,264.375 63.994604,229.00647 V 156 82.99353 C 63.994604,47.624997 67.619504,44 102.91622,44 Z"
         id="rect4158"
         inkscape:connector-curvature="0"
         sodipodi:nodetypes="scccssscsss" /><path
         d="m 176.00391,44 63.99023,63.99219 V 82.994141 C 240.16713,47.626029 236.369,44 201.07227,44 Z"
         style="display:inline;overflow:visible;fill:#e6e6e6;marker:none;enable-background:accumulate"
         id="path2" /><path
         style="color:#000000;display:inline;overflow:visible;visibility:visible;opacity:0.3;fill:#ffffff;fill-opacity:1;fill-rule:nonzero;stroke:none;stroke-width:1;marker:none;enable-background:accumulate"
         d="M 102.92188,44 C 67.625152,44 63.82701,47.626029 64,82.994141 v 2 C 63.82701,49.626029 67.625152,46 102.92188,46 h 98.15624 C 236.37485,46 240,49.625608 240,84.994141 v -2 C 240,47.625608 236.37485,44 201.07812,44 Z"
         id="path931"
         inkscape:connector-curvature="0" /><path
         sodipodi:nodetypes="scccssscsss"
         inkscape:connector-curvature="0"
         id="path914"
         d="m 327.636,188.49999 c -4.65703,0 -5.15812,0.47378 -5.1353,5.09575 v 6.40425 6.40426 c -0.0229,4.62196 0.47827,5.09574 5.1353,5.09574 h 8.72869 c 4.65703,0 5.1353,-0.47372 5.1353,-5.09574 v -6.40426 -6.40425 c 0,-4.62202 -0.47828,-5.09575 -5.13531,-5.09575 z"
         style="color:#000000;display:inline;overflow:visible;visibility:visible;fill:url(#linearGradient916);fill-opacity:1;fill-rule:nonzero;stroke:none;stroke-width:1;marker:none;enable-background:accumulate" /><path
         d="m 327.63672,188.5 c -4.65703,0 -5.15954,0.47373 -5.13672,5.0957 V 200 v 6.4043 c -0.0229,4.62196 0.47969,5.0957 5.13672,5.0957 h 8.72851 c 4.65703,0 5.13477,-0.47368 5.13477,-5.0957 V 200 196.5 l -7.98828,-8 H 333.5 Z"
         style="display:inline;overflow:visible;fill:#28851e;marker:none;enable-background:accumulate;fill-opacity:1"
         id="path58" /><path
         style="color:#000000;display:inline;overflow:visible;visibility:visible;fill:#e6e6e6;fill-opacity:1;fill-rule:nonzero;stroke:none;stroke-width:1;marker:none;enable-background:accumulate"
         d="m 324.8545,236.50001 c -3.04166,0 -3.36894,0.30899 -3.35403,3.32331 v 4.17669 4.17668 c -0.0149,3.01433 0.31237,3.32332 3.35403,3.32332 h 6.29146 c 3.04167,0 3.35404,-0.30895 3.35404,-3.32332 v -4.17668 -4.17669 c 0,-3.01436 -0.31238,-3.32331 -3.35404,-3.32331 z"
         id="path918"
         inkscape:connector-curvature="0"
         sodipodi:nodetypes="scccssscsss" /><path
         d="m 324.85547,236.5 c -3.04166,0 -3.37038,0.3099 -3.35547,3.32422 V 244 v 4.17578 c -0.0149,3.01433 0.31381,3.32422 3.35547,3.32422 h 6.29101 c 3.04167,0 3.35352,-0.30985 3.35352,-3.32422 V 244 241.5 c -2.64639,-2.64639 -3.90949,-3.92027 -5,-5 z"
         style="display:inline;overflow:visible;fill:#28851e;marker:none;enable-background:accumulate;fill-opacity:1"
         id="path87" /><path
         d="m 334.5,244 h -13 v 4.17578 c -0.0149,3.01433 0.31381,3.32422 3.35547,3.32422 h 6.29101 c 3.04167,0 3.35352,-0.30985 3.35352,-3.32422 z"
         style="opacity:0.1;fill:#ffffff"
         id="path96" /><path
         d="m 328,251.48828 h 3.20508 c 3.04167,0 3.35351,-0.30985 3.35351,-3.32422 v -4.17578 -2.5 c -2.64639,-2.64639 -3.90949,-3.92027 -5,-5 H 328 Z"
         style="opacity:0.1;fill:#ffffff;fill-opacity:1"
         id="path95" /><path
         style="color:#000000;display:inline;overflow:visible;visibility:visible;opacity:0.2;fill:#000000;fill-opacity:1;fill-rule:nonzero;stroke:none;stroke-width:1;marker:none;enable-background:accumulate"
         d="m 102.92728,268 c -35.296731,0 -39.094875,-3.62603 -38.921885,-38.99414 v -2 C 63.832405,262.37397 67.630549,266 102.92728,266 h 98.15624 c 35.29673,0 38.92188,-3.62561 38.92188,-38.99414 v 2 C 240.0054,264.37439 236.38025,268 201.08352,268 Z"
         id="path931-8"
         inkscape:connector-curvature="0" /><path
         d="m 341.5,200 h -19 v 6.4043 c -0.0229,4.62196 0.47969,5.0957 5.13672,5.0957 h 8.72851 c 4.65703,0 5.13477,-0.47368 5.13477,-5.0957 z"
         style="display:inline;enable-background:new;opacity:0.1;fill:#ffffff"
         id="path77" /><path
         d="m 362.5,84 h -36.99805 v 13.439453 c 0.0434,8.201267 1.7177,9.060547 9.73047,9.060547 h 17.53906 c 8.22949,0 9.72852,-0.90592 9.72852,-9.748047 z"
         style="display:inline;enable-background:new;opacity:0.1;fill:#ffffff;stroke-width:2;fill-opacity:1"
         id="path21" /><path
         d="m 344.00195,61.5 v 45 h 8.76953 c 8.22949,0 9.72852,-0.90592 9.72852,-9.748047 V 84 75.5 h -4.26953 c -8.22922,8.9e-5 -9.72863,-0.906726 -9.73047,-9.748047 V 61.5 Z"
         style="display:inline;enable-background:new;opacity:0.1;fill:#ffffff;stroke-width:4;fill-opacity:1"
         id="path51" /><path
         d="m 338.39648,210.96972 c 2.76444,-0.22355 3.0918,-1.20403 3.0918,-5.03516 v -6.40429 -3.5 l -7.98828,-8 H 333.48828 332 v 22.93945 z"
         style="display:inline;enable-background:new;opacity:0.1;fill:#ffffff;fill-opacity:1"
         id="path76" /><path
         style="color:#000000;display:inline;overflow:visible;visibility:visible;opacity:0.4;fill:none;fill-opacity:1;fill-rule:nonzero;stroke:#000000;stroke-width:1;stroke-miterlimit:4;stroke-dasharray:none;stroke-opacity:1;marker:none;enable-background:accumulate"
         d="m 335.23154,61.500047 c -8.23154,0 -9.77365,0.90635 -9.7304,9.74838 V 84 96.75181 c -0.0433,8.84203 1.49886,9.74838 9.7304,9.74838 h 17.53897 c 8.22949,0 9.73039,-0.90625 9.73039,-9.74838 V 84 71.248427 c 0,-8.84213 -1.5009,-9.74838 -9.7304,-9.74838 z"
         id="path958"
         inkscape:connector-curvature="0"
         sodipodi:nodetypes="scccssscsss" /><path
         style="color:#000000;display:inline;overflow:visible;visibility:visible;fill:#e6e6e6;fill-opacity:1;fill-rule:nonzero;stroke:none;stroke-width:1;marker:none;enable-background:accumulate"
         d="m 330.07509,133.5 c -5.56175,0 -6.6037,0.58409 -6.57447,6.28227 v 8.21765 8.21781 c -0.0293,5.69818 1.01272,6.28227 6.57447,6.28227 h 11.85044 c 5.56037,0 6.57447,-0.58403 6.57447,-6.28227 v -8.21781 -8.21765 c 0,-5.69824 -1.0141,-6.28227 -6.57447,-6.28227 z"
         id="path964-7"
         inkscape:connector-curvature="0"
         sodipodi:nodetypes="scccssscsss" /><path
         d="m 330.07425,133.5 c -0.6945,0 -1.32061,0.0101 -1.88086,0.0371 -1.54101,0.0745 -2.60071,0.28461 -3.31641,0.81445 -0.12975,0.0962 -0.24743,0.20395 -0.35547,0.32227 -0.0541,0.0593 -0.10724,0.12217 -0.15625,0.1875 -0.196,0.26136 -0.35054,0.57137 -0.47265,0.93945 -0.1832,0.55205 -0.29086,1.23422 -0.34571,2.07617 -0.0365,0.56133 -0.0505,1.19398 -0.0469,1.90625 V 148 v 8.2168 c -0.0293,5.69818 1.01247,6.2832 6.57422,6.2832 h 11.85156 c 5.56037,0 6.57422,-0.58496 6.57422,-6.2832 V 148 143.5 l -10,-10 z"
         style="opacity:1;fill:#28851e"
         id="path52" /><path
         d="m 348.5,148 h -25 v 8.2168 c -0.0293,5.69818 1.01247,6.2832 6.57422,6.2832 h 11.85156 c 5.56037,0 6.57422,-0.58496 6.57422,-6.2832 z"
         style="display:inline;enable-background:new;opacity:0.1;fill:#ffffff;stroke-width:2.24784;fill-opacity:1"
         id="path25" /><path
         d="m 336,133.5 v 29 h 5.92578 c 5.56037,0 6.57422,-0.58496 6.57422,-6.2832 V 148 143.5 l -10,-10 z"
         style="display:inline;enable-background:new;opacity:0.1;fill:#ffffff;fill-opacity:1"
         id="path65" /><path
         style="color:#000000;display:inline;overflow:visible;visibility:visible;opacity:0.4;fill:none;fill-opacity:1;fill-rule:nonzero;stroke:#000000;stroke-width:1;stroke-miterlimit:4;stroke-dasharray:none;stroke-opacity:1;marker:none;enable-background:accumulate"
         d="m 330.07509,133.5 c -5.56175,0 -6.6037,0.58409 -6.57447,6.28227 v 8.21765 8.21781 c -0.0293,5.69818 1.01272,6.28227 6.57447,6.28227 h 11.85044 c 5.56037,0 6.57447,-0.58403 6.57447,-6.28227 v -8.21781 -8.21765 c 0,-5.69824 -1.0141,-6.28227 -6.57447,-6.28227 z"
         id="path958-1"
         inkscape:connector-curvature="0"
         sodipodi:nodetypes="scccssscsss" /><path
         transform="matrix(0.66664182,0,0,0.63636364,106.67521,94.545454)"
         sodipodi:nodetypes="scccssscsss"
         inkscape:connector-curvature="0"
         id="path990-8"
         d="m 335.73108,62 c -8.82418,0 -9.77365,0.90635 -9.7304,9.74838 V 84 96.25162 c -0.0433,8.84203 0.90622,9.74838 9.7304,9.74838 h 16.53919 c 8.82418,0 9.7304,-0.90625 9.7304,-9.74838 V 84 71.74838 C 362.00067,62.90625 361.09445,62 352.27027,62 Z"
         style="color:#000000;display:inline;overflow:visible;visibility:visible;opacity:0.6;fill:none;fill-opacity:1;fill-rule:nonzero;stroke:url(#linearGradient1004-8);stroke-width:3.07066;stroke-miterlimit:4;stroke-dasharray:none;stroke-opacity:1;marker:none;enable-background:accumulate"
         clip-path="url(#clipPath994-1)" /><path
         sodipodi:nodetypes="scccssscsss"
         inkscape:connector-curvature="0"
         id="path935"
         d="m 327.8652,189 c -4.41209,0 -4.88682,0.45318 -4.8652,4.87419 V 200 206.12581 C 322.9783,210.54682 323.45311,211 327.8652,211 h 8.2696 C 340.54689,211 341,210.54688 341,206.12581 V 200 193.87419 C 341,189.45313 340.54688,189 336.13479,189 Z"
         style="color:#000000;display:inline;overflow:visible;visibility:visible;opacity:0.6;fill:none;fill-opacity:1;fill-rule:nonzero;stroke:url(#linearGradient981);stroke-width:2;stroke-miterlimit:4;stroke-dasharray:none;stroke-opacity:1;marker:none;enable-background:accumulate"
         clip-path="url(#clipPath971)" /><path
         d="m 334.5,241.5 c -2.6464,-2.6464 -3.90949,-3.92027 -5,-5 v 1.67578 c 0,3.01436 0.31186,3.32422 3.35352,3.32422 z"
         style="display:inline;enable-background:new;opacity:1;fill:#f9f9f9;fill-opacity:1"
         id="path62"
         sodipodi:nodetypes="ccssc" /><path
         style="color:#000000;display:inline;overflow:visible;visibility:visible;fill:url(#linearGradient920-6);fill-opacity:1;fill-rule:nonzero;stroke:none;stroke-width:1;marker:none;enable-background:accumulate;opacity:0.6"
         d="m 324.91406,237.00002 c -1.43089,0 -2.16322,0.12118 -2.46484,0.39258 -0.15081,0.1357 -0.26235,0.33219 -0.34375,0.71289 -0.0814,0.3807 -0.11719,0.92536 -0.11719,1.64844 v 4.25781 4.25781 c 0,0.72309 0.0358,1.26774 0.11719,1.64844 0.0814,0.3807 0.19294,0.57719 0.34375,0.71289 0.30162,0.2714 1.03395,0.39258 2.46484,0.39258 h 6.17188 c 1.43125,0 2.16767,-0.1209 2.4707,-0.39258 0.15152,-0.13584 0.26315,-0.33097 0.34375,-0.71094 0.0805,-0.37996 0.11533,-0.92581 0.11133,-1.64843 v -0.002 -4.25777 -4.25781 -0.002 c 0.004,-0.72262 -0.0308,-1.26847 -0.11133,-1.64843 -0.0806,-0.37997 -0.19224,-0.5751 -0.34375,-0.71094 -0.30303,-0.27167 -1.03945,-0.39258 -2.4707,-0.39258 z m 2.31641,1.0293 c 0.90892,-0.001 1.81765,-0.001 2.72656,0.004 0.91032,0.0328 1.83236,-0.0486 2.73438,0.0996 0.24585,-0.0171 0.20202,0.27429 0.23632,0.4375 0.0753,2.8091 0.0533,5.67804 0.043,8.51368 -0.0226,0.85541 0.0164,1.70681 -0.0684,2.54882 0.0121,0.3147 -0.35695,0.2628 -0.57617,0.3125 -2.08305,0.061 -4.22761,0.0369 -6.33789,0.0371 -0.88599,-0.0302 -1.78126,0.0435 -2.66016,-0.0859 -0.25376,0.0253 -0.21301,-0.26186 -0.25781,-0.42579 -0.0802,-2.89787 -0.0539,-5.83578 -0.043,-8.7539 0.0277,-0.79099 -0.0254,-1.57718 0.0781,-2.36524 -0.0231,-0.27517 0.29693,-0.21327 0.47265,-0.26367 1.21401,-0.0833 2.43564,-0.0401 3.65235,-0.0586 z"
         id="path918-3"
         inkscape:connector-curvature="0" /><path
         d="M 330.20898,236.5 H 329 v 1.67578 c 0,0.76221 0.0172,1.36593 0.10352,1.875 0.0863,0.50907 0.2528,0.94896 0.58007,1.27344 0.32728,0.32448 0.76903,0.48886 1.28125,0.57422 0.51222,0.0854 1.11977,0.10156 1.88868,0.10156 H 334.5 v -1.20703 c -2.13733,-2.13811 -3.3222,-3.3297 -4.29102,-4.29297 z M 330,237.70703 c 0.7793,0.77642 1.83717,1.83537 3.29297,3.29297 h -0.43945 c -0.75193,0 -1.32289,-0.0209 -1.72461,-0.0879 -0.40173,-0.0669 -0.60934,-0.16905 -0.74024,-0.29883 -0.13089,-0.12978 -0.23158,-0.33365 -0.29883,-0.73047 -0.0673,-0.3968 -0.0898,-0.96206 -0.0898,-1.70703 z"
         style="baseline-shift:baseline;display:inline;overflow:visible;opacity:0.15;vector-effect:none;enable-background:new;stop-color:#000000;stop-opacity:1"
         id="path92" /><path
         style="color:#000000;display:inline;overflow:visible;visibility:visible;opacity:0.4;fill:none;fill-opacity:1;fill-rule:nonzero;stroke:#000000;stroke-width:0.97652888;stroke-miterlimit:4;stroke-dasharray:none;stroke-opacity:1;marker:none;enable-background:accumulate"
         d="m 336.50849,211.51179 c 4.23214,0 5.02499,-0.46371 5.00275,-4.98757 v -6.5241 -6.52423 c 0.0222,-4.52386 -0.77061,-4.98757 -5.00275,-4.98757 h -9.01743 c -4.23108,0 -5.00275,0.46366 -5.00275,4.98757 v 6.52423 6.5241 c 0,4.52391 0.77167,4.98757 5.00275,4.98757 z"
         id="path958-6"
         inkscape:connector-curvature="0"
         sodipodi:nodetypes="scccssscsss" /><path
         style="color:#000000;display:inline;overflow:visible;visibility:visible;opacity:0.4;fill:none;fill-opacity:1;fill-rule:nonzero;stroke:#000000;stroke-width:0.97652888;stroke-miterlimit:4;stroke-dasharray:none;stroke-opacity:1;marker:none;enable-background:accumulate"
         d="m 331.08651,251.51179 c 2.89732,0 3.44011,-0.30259 3.42488,-3.25454 v -4.25716 -4.25724 c 0.0152,-2.95195 -0.52756,-3.25453 -3.42488,-3.25453 h -6.17331 c -2.8966,0 -3.42488,0.30255 -3.42488,3.25453 v 4.25724 4.25716 c 0,2.95199 0.52828,3.25454 3.42488,3.25454 z"
         id="path958-6-0"
         inkscape:connector-curvature="0"
         sodipodi:nodetypes="scccssscsss" /><path
         inkscape:connector-curvature="0"
         style="color:#000000;display:inline;overflow:visible;visibility:visible;opacity:0.2;fill:#000000;fill-opacity:1;fill-rule:nonzero;stroke:none;stroke-width:1;marker:none;enable-background:accumulate"
         d="m 240.00293,109.99708 v -2 l -64,-64 h -2 v 24.999094 1 0.53711 c 0,34.463796 6,39.463796 38.99414,39.458996 z"
         id="rect4158-0-3-2"
         sodipodi:nodetypes="ccccccscc" /><path
         style="color:#000000;display:inline;overflow:visible;visibility:visible;fill:url(#linearGradient2673);fill-opacity:1;fill-rule:nonzero;stroke:none;stroke-width:2;stroke-miterlimit:4;stroke-dasharray:none;stroke-opacity:1;marker:none;enable-background:accumulate;opacity:0.65"
         d="m 335.73077,62 c -8.82418,0 -9.77372,0.906017 -9.73047,9.748047 V 84 96.251953 C 325.957,105.09398 326.90659,106 335.73077,106 h 16.53906 c 8.82418,0 9.73047,-0.90592 9.73047,-9.748047 V 84 71.748047 C 362.0003,62.905917 361.09401,62 352.26983,62 Z m 11.58594,1.083984 c 1.58586,-0.002 3.172,-0.0046 4.75781,0.0098 2.24104,0.112648 4.61852,-0.159439 6.77539,0.677734 1.61064,0.815891 1.89861,2.822819 1.97851,4.447266 0.1486,8.949973 0.0584,17.944327 0.0664,26.912109 -0.1124,2.417589 0.23363,4.901277 -0.50976,7.251947 -0.35209,1.46925 -1.87421,2.11123 -3.22266,2.33594 -7.11783,0.21369 -14.25487,0.17302 -21.38281,0.16602 -2.37545,-0.10878 -4.96603,0.29495 -7.1211,-0.96485 -1.54366,-1.12044 -1.37997,-3.32646 -1.48632,-4.964838 -0.13752,-9.226199 -0.0249,-18.549024 0.004,-27.8125 0.10712,-1.790293 -0.16515,-3.606621 0.3418,-5.359375 0.3631,-1.607644 2.01509,-2.381908 3.52344,-2.517578 5.40981,-0.227052 10.84859,-0.125241 16.27539,-0.181641 z"
         id="path996-9"
         inkscape:connector-curvature="0" /><path
         d="M 239.99414,156 H 63.994141 v 73.00586 C 63.994141,264.37439 67.6193,268 102.91602,268 h 98.15625 c 35.29673,0 39.09486,-3.62602 38.92187,-38.99414 z"
         style="display:inline;enable-background:new;opacity:0.1;fill:#e6e6e6;stroke-width:7.16596"
         id="path3" /><path
         d="m 152.00586,44 v 224 h 49.06641 c 35.29673,0 39.09486,-3.62602 38.92187,-38.99414 V 156 107.99414 L 176.00195,44 Z"
         style="display:inline;enable-background:new;opacity:0.1;fill:#e6e6e6;stroke-width:4"
         id="path5" /><path
         style="color:#000000;display:inline;overflow:visible;visibility:visible;opacity:0.08;fill:#ffffff;fill-opacity:1;fill-rule:nonzero;stroke:none;stroke-width:8;stroke-linecap:butt;stroke-linejoin:miter;stroke-miterlimit:4;stroke-dasharray:none;stroke-dashoffset:0;stroke-opacity:1;marker:none;enable-background:accumulate"
         d="m 179.99954,268 60,-60 v 22.48388 C 239.94724,264.47969 236.19686,268 201.82544,268 Z"
         id="path4254"
         inkscape:connector-curvature="0"
         sodipodi:nodetypes="cccsc" /></g><g
       inkscape:groupmode="layer"
       id="layer6"
       inkscape:label="Pictograms"
       style="display:inline"><path
         d="m 129,124 c -26.959,0 -31.20988,0.31667 -31.87695,20 -0.0523,1.54438 -0.0822,3.20798 -0.0996,5 -0.0209,2.14421 -0.0234,4.47229 -0.0234,7 v 8 5 15 5 8 c 0,2.52771 0.002,4.85579 0.0234,7 0.0175,1.79202 0.0473,3.45562 0.0996,5 0.66707,19.68333 4.91795,20 31.87695,20 h 3 5 20.65625 c 1.2449,4.89938 4.8588,5 15.34375,5 h 1.5 2.5 14.99805 2.5 1.5 c 13.4773,0 15.60208,-0.16624 15.93554,-10.47656 0.022,-0.80896 0.0437,-1.68046 0.0547,-2.61914 0.0104,-1.12316 0.0117,-2.34199 0.0117,-3.66602 v -4.19141 -2.61914 -7.85742 -2.61914 -4.18945 c 0,-1.32403 -0.003,-2.54286 -0.0117,-3.66602 -0.009,-0.93869 -0.0217,-1.81018 -0.0547,-2.61914 -0.20619,-6.37523 -1.09722,-8.87242 -4.93359,-9.84961 V 169 v -5 -8 c 0,-2.52771 -0.003,-4.85579 -0.0234,-7 -0.0175,-1.79202 -0.0473,-3.45562 -0.0996,-5 -0.66712,-19.68333 -4.918,-20 -31.877,-20 h -3 -5 -30 -5 z"
         style="baseline-shift:baseline;display:inline;overflow:visible;vector-effect:none;fill:#000000;fill-opacity:1;enable-background:new;stop-color:#000000;opacity:0.2;filter:url(#filter8)"
         id="path8" /><path
         d="m 362.5,75.5 -14,-14 v 4.251953 c 0.002,8.841321 1.50125,9.748136 9.73047,9.748047 z"
         style="display:inline;enable-background:new;fill:#f9f9f9"
         id="path45" /><path
         d="m 348.5,143.5 -10,-10 v 3.7168 c 0,5.69824 1.01385,6.2832 6.57422,6.2832 z"
         style="display:inline;enable-background:new;opacity:1;fill:#f9f9f9;fill-opacity:1"
         id="path44"
         sodipodi:nodetypes="ccssc" /><path
         d="M 339.20703,133.5 H 338 v 3.7168 c 0,1.43938 0.0607,2.57161 0.25586,3.49023 0.1952,0.91862 0.54102,1.642 1.11133,2.1582 1.14062,1.03241 2.90931,1.13477 5.70703,1.13477 H 348.5 v -1.20117 h 0.006 z M 339,134.70703 347.29297,143 h -2.21875 c -2.76265,0 -4.28071,-0.19036 -5.03711,-0.875 -0.3782,-0.34232 -0.63406,-0.83327 -0.80274,-1.62695 C 339.06572,139.70436 339,138.62653 339,137.2168 Z"
         style="display:inline;enable-background:new;baseline-shift:baseline;overflow:visible;opacity:0.15;vector-effect:none;stop-color:#000000;stop-opacity:1"
         id="path57" /><path
         d="M 349.20703,61.5 H 348 v 4.251953 c 5e-4,2.22446 0.0915,3.963323 0.37305,5.351563 0.28157,1.38824 0.76632,2.445748 1.5625,3.201171 1.59236,1.510847 4.16194,1.695358 8.29492,1.695313 H 362.5 V 74.792969 Z M 349,62.707031 361.29297,75 h -3.0625 c -4.09625,4.4e-5 -6.3904,-0.269006 -7.60547,-1.421875 -0.60753,-0.576435 -1.01422,-1.403468 -1.27148,-2.671875 C 349.09625,69.637843 349.0005,67.948154 349,65.751953 Z"
         style="display:inline;enable-background:new;baseline-shift:baseline;overflow:visible;opacity:0.15;vector-effect:none;stop-color:#000000;stop-opacity:1"
         id="path50" /><path
         d="m 129,124 c -26.959,0 -31.20988,0.31667 -31.87695,20 -0.0523,1.54438 -0.0822,3.20798 -0.0996,5 -0.0209,2.14421 -0.0234,4.47229 -0.0234,7 v 8 5 15 5 8 c 0,2.52771 0.002,4.85579 0.0234,7 0.0175,1.79202 0.0473,3.45562 0.0996,5 0.66707,19.68333 4.91795,20 31.87695,20 h 3 5 20.65625 c 1.2449,4.89938 4.8588,5 15.34375,5 h 1.5 2.5 14.99805 2.5 1.5 c 13.4773,0 15.60208,-0.16624 15.93554,-10.47656 0.022,-0.80896 0.0437,-1.68046 0.0547,-2.61914 0.0104,-1.12316 0.0117,-2.34199 0.0117,-3.66602 v -4.19141 -2.61914 -7.85742 -2.61914 -4.18945 c 0,-1.32403 -0.003,-2.54286 -0.0117,-3.66602 -0.009,-0.93869 -0.0217,-1.81018 -0.0547,-2.61914 -0.20619,-6.37523 -1.09722,-8.87242 -4.93359,-9.84961 V 169 v -5 -8 c 0,-2.52771 -0.003,-4.85579 -0.0234,-7 -0.0175,-1.79202 -0.0473,-3.45562 -0.0996,-5 -0.66712,-19.68333 -4.918,-20 -31.877,-20 h -3 -5 -30 -5 z"
         style="baseline-shift:baseline;display:inline;overflow:visible;vector-effect:none;fill:#000000;fill-opacity:1;enable-background:new;stop-color:#000000;opacity:0.2;filter:url(#filter9)"
         id="path8-1" /><path
         d="m 129,126 c -26.959,0 -31.20988,0.31667 -31.87695,20 -0.0523,1.54438 -0.0822,3.20798 -0.0996,5 -0.0209,2.14421 -0.0234,4.47229 -0.0234,7 v 8 5 15 5 8 c 0,2.52771 0.002,4.85579 0.0234,7 0.0175,1.79202 0.0473,3.45562 0.0996,5 0.66707,19.68333 4.91795,20 31.87695,20 h 3 5 20.65625 c 1.2449,4.89939 4.8588,5 15.34375,5 h 1.5 2.5 14.99805 2.5 1.5 c 13.4773,0 15.60208,-0.16624 15.93554,-10.47656 0.022,-0.80896 0.0437,-1.68046 0.0547,-2.61914 0.0104,-1.12316 0.0117,-2.34199 0.0117,-3.66602 v -4.19141 -2.61914 -7.85742 -2.61914 -4.18945 c 0,-1.32403 -0.003,-2.54286 -0.0117,-3.66602 -0.009,-0.93869 -0.0217,-1.81018 -0.0547,-2.61914 -0.20619,-6.37523 -1.09722,-8.87242 -4.93359,-9.84961 V 171 v -5 -8 c 0,-2.52771 -0.003,-4.85579 -0.0234,-7 -0.0175,-1.79202 -0.0473,-3.45562 -0.0996,-5 -0.66712,-19.68333 -4.918,-20 -31.877,-20 h -3 -5 -30 -5 z m 33.66211,60.5957 h 0.002 0.002 v 0.002 h 0.002 v 0.002 c 0.002,0.009 -1.6e-4,0.0306 -0.01,0.0723 -0.008,0.003 -0.0124,0.006 -0.0156,0.008 l -0.002,0.002 h -0.002 -0.002 -0.002 -0.002 -0.002 v -0.002 -0.002 l -0.002,-0.002 c -5.3e-4,-0.0175 0.0157,-0.0591 0.0273,-0.0742 l 0.002,-0.002 0.002,-0.002 h 0.002 z"
         style="baseline-shift:baseline;display:inline;overflow:visible;opacity:0.1;vector-effect:none;fill:#000000;fill-opacity:1;enable-background:new;stop-color:#000000"
         id="path9" /><path
         d="m 129,124 c -26.959,0 -31.209879,0.31667 -31.876953,20 -0.05234,1.54438 -0.08215,3.20798 -0.09961,5 C 97.002549,151.14421 97,153.47229 97,156 v 8 5 15 5 8 c 0,2.52771 0.0025,4.85579 0.02344,7 0.01746,1.79202 0.04727,3.45562 0.09961,5 0.667068,19.68333 4.91795,20 31.87695,20 h 3 5 30 5 3 c 26.959,0 31.20988,-0.31667 31.87695,-20 0.0523,-1.54438 0.0822,-3.20798 0.0996,-5 0.0209,-2.14421 0.0234,-4.47229 0.0234,-7 v -8 -5 -15 -5 -8 c 0,-2.52771 -0.003,-4.85579 -0.0234,-7 -0.0175,-1.79202 -0.0473,-3.45562 -0.0996,-5 C 206.20988,124.31667 201.959,124 175,124 h -3 -5 -30 -5 z"
         style="display:inline;enable-background:new;baseline-shift:baseline;overflow:visible;vector-effect:none;fill:#28851e;fill-opacity:1;stop-color:#000000"
         id="path81" /><path
         d="m 129,124 c -26.959,0 -31.20988,0.31667 -31.87695,20 -0.0523,1.54438 -0.0822,3.20798 -0.0996,5 -0.0209,2.14421 -0.0234,4.47229 -0.0234,7 v 8 5 15 5 8 c 0,2.52771 0.002,4.85579 0.0234,7 0.0175,1.79202 0.0473,3.45562 0.0996,5 0.66707,19.68333 4.91795,20 31.87695,20 h 3 5 30 5 3 c 26.959,0 31.20988,-0.31667 31.87695,-20 0.0523,-1.54438 0.0822,-3.20798 0.0996,-5 0.0209,-2.14421 0.0234,-4.47229 0.0234,-7 v -8 -5 -15 -5 -8 c 0,-2.52771 -0.003,-4.85579 -0.0234,-7 -0.0175,-1.79202 -0.0473,-3.45562 -0.0996,-5 C 206.20988,124.31667 201.959,124 175,124 h -3 -5 -30 -5 z"
         style="display:inline;enable-background:new;baseline-shift:baseline;overflow:visible;opacity:0.2;vector-effect:none;fill:#ffffff;fill-opacity:1;stop-color:#000000"
         id="path81-6" /><path
         d="m 206.97656,149 c -0.0175,-1.79202 -0.0473,-3.45562 -0.0996,-5 C 206.20988,124.31667 201.959,124 175,124 h -3 -5 -30 -5 -3 c -26.959,0 -31.209883,0.31667 -31.876953,20 -0.0523,1.54438 -0.08221,3.20798 -0.09961,5 z"
         style="display:inline;enable-background:new;opacity:0.35;fill:#ffffff;fill-opacity:1;stroke-width:10.9099"
         id="path82" /><path
         d="m 129,124 c -26.959,0 -31.209879,0.31667 -31.876953,20 -0.05234,1.54438 -0.08215,3.20798 -0.09961,5 C 97.002549,151.14421 97,153.47229 97,156 v 8 5 15 5 8 c 0,2.52771 0.0025,4.85579 0.02344,7 0.01746,1.79202 0.04727,3.45562 0.09961,5 0.667071,19.68333 4.91795,20 31.87695,20 h 3 5 30 5 3 c 26.959,0 31.20988,-0.31667 31.87695,-20 0.0523,-1.54438 0.0822,-3.20798 0.0996,-5 0.0209,-2.14421 0.0234,-4.47229 0.0234,-7 v -8 -5 -15 -5 -8 c 0,-2.52771 -0.003,-4.85579 -0.0234,-7 -0.0175,-1.79202 -0.0473,-3.45562 -0.0996,-5 C 206.20988,124.31667 201.959,124 175,124 h -3 -5 -30 -5 z m 0,5 h 3 v 15 h -29.86719 c 0.0774,-2.21953 0.1988,-4.12604 0.38867,-5.72852 0.47214,-3.98415 1.28701,-5.69606 2.16407,-6.57421 0.87706,-0.87816 2.58733,-1.69705 6.57226,-2.17188 C 115.24275,129.05056 121.11018,129 129,129 Z m 8,0 h 30 v 15 h -30 z m 35,0 h 3 c 7.88982,0 13.75725,0.0506 17.74219,0.52539 3.98493,0.47483 5.6952,1.29372 6.57226,2.17188 0.87706,0.87815 1.69193,2.59006 2.16407,6.57421 0.18989,1.60248 0.31126,3.50899 0.38867,5.72852 H 172 Z m -69.97266,20 H 132 v 15 h -30 v -8 c 0,-2.5416 0.005,-4.87339 0.0273,-7 z M 137,149 h 30 v 15 h -30 z m 35,0 h 29.97266 c 0.0228,2.12661 0.0273,4.4584 0.0273,7 v 8 h -30 z m -70,20 h 30 v 15 h -30 z m 35,0 h 30 v 15 h -30 z m 35,0 h 30 v 15 h -30 z m -70,20 h 30 v 15 H 102.02734 C 102.00455,201.87339 102,199.5416 102,197 Z m 35,0 h 30 v 15 h -30 z m 35,0 h 30 v 8 c 0,2.5416 -0.005,4.87339 -0.0273,7 H 172 Z m -69.86719,20 H 132 v 15 h -3 c -7.88982,0 -13.75725,-0.0506 -17.74219,-0.52539 -3.98493,-0.47483 -5.6952,-1.29372 -6.57226,-2.17188 -0.87706,-0.87815 -1.69193,-2.59006 -2.16407,-6.57421 -0.18989,-1.60248 -0.31126,-3.50899 -0.38867,-5.72852 z M 137,209 h 30 v 15 h -30 z m 35,0 h 29.86719 c -0.0774,2.21953 -0.1988,4.12604 -0.38867,5.72852 -0.47214,3.98415 -1.28701,5.69606 -2.16407,6.57421 -0.87706,0.87816 -2.58733,1.69705 -6.57226,2.17188 C 188.75725,223.94944 182.88982,224 175,224 h -3 z"
         style="display:inline;enable-background:new;baseline-shift:baseline;overflow:visible;vector-effect:none;fill:#f9f9f9;stop-color:#000000"
         id="path80" /><path
         d="m 173,179 c -13.4773,0 -15.60209,0.16623 -15.93555,10.47656 -0.022,0.80897 -0.0437,1.68046 -0.0547,2.61914 -0.0104,1.12316 -0.01,2.34199 -0.01,3.66602 v 4.18945 2.61914 7.85742 2.61914 4.19141 c 0,1.32403 -0.001,2.54286 0.01,3.66602 0.009,0.93868 0.0217,1.81018 0.0547,2.61914 C 157.39769,233.83376 159.5227,234 173,234 h 1.5 2.5 14.99805 2.5 1.5 c 13.4773,0 15.60208,-0.16624 15.93554,-10.47656 0.022,-0.80896 0.0437,-1.68046 0.0547,-2.61914 0.0104,-1.12316 0.0117,-2.34199 0.0117,-3.66602 v -4.19141 -2.61914 -7.85742 -2.61914 -4.18945 c 0,-1.32403 -0.003,-2.54286 -0.0117,-3.66602 -0.009,-0.93869 -0.0217,-1.81018 -0.0547,-2.61914 C 211.60013,179.16624 209.47535,179 195.99805,179 h -1.5 -2.5 H 177 174.5 Z"
         style="display:inline;enable-background:new;baseline-shift:baseline;overflow:visible;vector-effect:none;fill:#28851e;fill-opacity:1;stop-color:#000000"
         id="path1" /><path
         d="m 173,179 c -13.4773,0 -15.60209,0.16623 -15.93555,10.47656 -0.022,0.80897 -0.0437,1.68046 -0.0547,2.61914 -0.0104,1.12316 -0.01,2.34199 -0.01,3.66602 v 4.18945 2.61914 7.85742 2.61914 4.19141 c 0,1.32403 -0.001,2.54286 0.01,3.66602 0.009,0.93868 0.0217,1.81018 0.0547,2.61914 C 157.39769,233.83376 159.5227,234 173,234 h 1.5 2.5 14.99805 2.5 1.5 c 13.4773,0 15.60208,-0.16624 15.93554,-10.47656 0.022,-0.80896 0.0437,-1.68046 0.0547,-2.61914 0.0104,-1.12316 0.0117,-2.34199 0.0117,-3.66602 v -4.19141 -2.61914 -7.85742 -2.61914 -4.18945 c 0,-1.32403 -0.003,-2.54286 -0.0117,-3.66602 -0.009,-0.93869 -0.0217,-1.81018 -0.0547,-2.61914 C 211.60013,179.16624 209.47535,179 195.99805,179 h -1.5 -2.5 H 177 174.5 Z"
         style="display:inline;enable-background:new;baseline-shift:baseline;overflow:visible;vector-effect:none;fill:#ffffff;fill-opacity:1;stop-color:#000000;opacity:0.1"
         id="path1-5" /><path
         d="m 173,179 c -13.4773,0 -15.60209,0.16623 -15.93555,10.47656 -0.022,0.80897 -0.0437,1.68046 -0.0547,2.61914 -0.0104,1.12316 -0.01,2.34199 -0.01,3.66602 v 4.18945 2.61914 7.85742 2.61914 4.19141 c 0,1.32403 -9.3e-4,2.54286 0.01,3.66602 0.009,0.93868 0.0217,1.81018 0.0547,2.61914 C 157.39769,233.83376 159.5227,234 173,234 h 1.5 2.5 14.99805 2.5 1.5 c 13.4773,0 15.60208,-0.16624 15.93554,-10.47656 0.022,-0.80896 0.0437,-1.68046 0.0547,-2.61914 0.0104,-1.12316 0.0117,-2.34199 0.0117,-3.66602 v -4.19141 -2.61914 -7.85742 -2.61914 -4.18945 c 0,-1.32403 -0.003,-2.54286 -0.0117,-3.66602 -0.009,-0.93869 -0.0217,-1.81018 -0.0547,-2.61914 C 211.60013,179.16624 209.47535,179 195.99805,179 h -1.5 -2.5 H 177 174.5 Z m -3.02344,5 h 29.04688 c 7.97216,0 7.97656,0.11205 7.97656,7.96289 1e-5,0.004 0,0.009 0,0.0137 v 29.04688 c 0,7.86355 -6e-5,7.97656 -7.97656,7.97656 H 169.97656 C 162.00006,229 162,228.88699 162,221.02344 v -29.04688 c 0,-7.86355 6e-5,-7.97656 7.97656,-7.97656 z m -7.31445,0.5957 h 0.002 0.002 v 0.002 h 0.002 v 0.002 c 0.002,0.009 -3.9e-4,0.0306 -0.01,0.0723 -0.008,0.003 -0.0124,0.006 -0.0156,0.008 l -0.002,0.002 h -0.002 -0.002 -0.002 -0.002 -0.002 v -0.002 -0.002 l -0.002,-0.002 c -5.3e-4,-0.0175 0.0157,-0.0591 0.0273,-0.0742 l 0.002,-0.002 0.002,-0.002 h 0.002 z m -0.0293,43.72266 h 0.002 0.002 0.002 0.002 l 0.002,0.002 h 0.002 l 0.002,0.002 c 0.004,0.001 0.008,0.002 0.0137,0.004 0.009,0.0416 0.01,0.0634 0.008,0.0723 v 0.002 0.002 h -0.002 v 0.002 h -0.002 -0.002 v -0.002 h -0.002 l -0.002,-0.002 c -0.0117,-0.0151 -0.0298,-0.0567 -0.0293,-0.0742 v -0.002 l 0.002,-0.002 v -0.002 z"
         style="display:inline;enable-background:new;baseline-shift:baseline;overflow:visible;vector-effect:none;fill:#f9f9f9;fill-opacity:1;stop-color:#000000"
         id="path88" /><rect
         style="display:inline;enable-background:new;opacity:0.35;fill:#ffffff;fill-opacity:1;stroke:none;stroke-width:5.68998"
         id="rect1-5"
         width="15"
         height="40"
         x="177"
         y="189.00003" /><rect
         style="display:inline;enable-background:new;fill:#f9f9f9;fill-opacity:1;stroke:none;stroke-width:2.84499"
         id="rect1"
         width="5"
         height="30"
         x="182"
         y="194.00003" /><rect
         style="display:inline;enable-background:new;opacity:0.2;fill:#ffffff;fill-opacity:1;stroke:none;stroke-width:4.84484"
         id="rect1-5-2"
         width="15"
         height="29"
         x="162"
         y="200.00003" /><rect
         style="display:inline;enable-background:new;fill:#f9f9f9;fill-opacity:1;stroke:none;stroke-width:2.2641"
         id="rect1-9"
         width="5"
         height="19"
         x="167"
         y="205.00003" /><rect
         style="display:inline;enable-background:new;opacity:0.2;fill:#ffffff;fill-opacity:1;stroke:none;stroke-width:4.40744"
         id="rect1-5-2-2"
         width="15"
         height="24"
         x="192"
         y="205.00003" /><rect
         style="display:inline;enable-background:new;fill:#f9f9f9;fill-opacity:1;stroke:none;stroke-width:1.94349"
         id="rect1-9-7"
         width="5"
         height="14"
         x="197"
         y="210.00003" /><path
         inkscape:connector-curvature="0"
         style="color:#000000;display:inline;overflow:visible;visibility:visible;fill:#f9f9f9;fill-opacity:1;fill-rule:nonzero;stroke:none;stroke-width:1;marker:none;enable-background:accumulate"
         d="M 240,107.99416 176.00586,44 v 22.99805 1 0.53711 c 0,35.29429 3.62603,39.63198 38.99414,39.459 z"
         id="rect4158-0-3" /><path
         d="m 178.83398,44 h -2.82812 l 63.98828,63.99414 0.01,-0.01 v -2.8086 z"
         style="opacity:0.15;fill:#000000;stroke:none;stroke-width:4;fill-opacity:1"
         id="path11" /><path
         d="m 347.00022,79 -6,0.0078 h -1 -0.59961 c -5.38914,0 -6.24094,0.06281 -6.375,3.992188 v 0.0059 c -0.0105,0.308759 -0.016,0.641733 -0.0195,1 -0.004,0.428679 -0.006,0.895042 -0.006,1.400391 v 1.59958 0.998047 V 91 v 1 0.0039 1.59961 c 0,0.505357 5.8e-4,0.96976 0.006,1.398437 0.004,0.358273 0.009,0.691247 0.0195,1 0.13341,3.935199 0.98319,3.998053 6.375,3.998053 h 0.59961 1 l 4.13086,-0.0059 c 0.24767,0.9853 0.96749,1.0059 3.06836,1.0059 h 0.30078 0.5 3 0.5 0.29883 c 2.69544,0 3.12081,-0.0336 3.1875,-2.095703 0.004,-0.1618 0.01,-0.335698 0.0117,-0.523438 0.002,-0.22463 0.002,-0.467621 0.002,-0.732422 v -0.839843 -0.523438 -1.570312 -0.525391 -0.837891 c 0,-0.264809 -5.5e-4,-0.507791 -0.002,-0.732421 -0.002,-0.18774 -0.005,-0.361648 -0.0117,-0.523438 -0.0412,-1.274952 -0.21919,-1.775239 -0.98633,-1.970703 V 88 87 86.9961 85.398443 c 0,-0.505347 -5.8e-4,-0.971711 -0.006,-1.40039 -10e-4,-0.16965 -0.003,-0.333766 -0.006,-0.492188 -0.003,-0.175359 -0.008,-0.343962 -0.0137,-0.505859 v -0.002 C 354.84162,79.063301 353.99164,79 348.59983,79 h -0.59961 z"
         style="display:inline;fill:#000000;fill-opacity:1;stroke-width:2.00037;enable-background:new;opacity:0.2"
         id="path23" /><path
         d="m 347.00011,78 -6,0.0078 h -1 -0.59961 c -5.38914,0 -6.24094,0.06281 -6.375,3.992188 v 0.0059 c -0.0105,0.308759 -0.016,0.641733 -0.0195,1 C 333.002,83.434567 333,83.90093 333,84.406279 v 1.59958 0.998047 V 90 v 1 0.0039 1.59961 c 0,0.505357 5.8e-4,0.96976 0.006,1.39844 0.004,0.35827 0.009,0.69124 0.0195,1 0.13341,3.9352 0.98319,3.99805 6.375,3.99805 h 0.59961 1 l 6,-0.008 h 1 0.59961 c 5.38905,0 6.24092,-0.063 6.375,-3.99219 7e-5,-0.002 -7e-5,-0.004 0,-0.006 0.0104,-0.30701 0.016,-0.63817 0.0195,-0.994141 2e-5,-0.002 -2e-5,-0.0038 0,-0.0059 0.004,-0.428667 0.006,-0.895034 0.006,-1.400391 V 90.994141 89.996094 87 86 85.9961 84.398443 c 0,-0.505347 -5.8e-4,-0.971711 -0.006,-1.40039 -10e-4,-0.16965 -0.003,-0.333766 -0.006,-0.492188 -0.003,-0.175359 -0.008,-0.343962 -0.0137,-0.505859 v -0.002 C 354.84151,78.063301 353.99153,78 348.59972,78 h -0.59961 z"
         style="display:inline;fill:#28851e;fill-opacity:1;stroke-width:2.00037;enable-background:new"
         id="path18" /><path
         d="m 347.00011,78 -6,0.0078 h -1 -0.59961 c -5.38914,0 -6.24094,0.06281 -6.375,3.992188 v 0.0059 c -0.0105,0.308759 -0.016,0.641733 -0.0195,1 C 333.002,83.434567 333,83.90093 333,84.406279 v 1.59958 0.998047 V 90 v 1 0.0039 1.59961 c 0,0.505357 5.8e-4,0.96976 0.006,1.39844 0.004,0.35827 0.009,0.69124 0.0195,1 0.13341,3.9352 0.98319,3.99805 6.375,3.99805 h 0.59961 1 l 6,-0.008 h 1 0.59961 c 5.38905,0 6.24092,-0.063 6.375,-3.99219 7e-5,-0.002 -7e-5,-0.004 0,-0.006 0.0104,-0.30701 0.016,-0.63817 0.0195,-0.994141 2e-5,-0.002 -2e-5,-0.0038 0,-0.0059 0.004,-0.428667 0.006,-0.895034 0.006,-1.400391 V 90.994141 89.996094 87 86 85.9961 84.398443 c 0,-0.505347 -5.8e-4,-0.971711 -0.006,-1.40039 -10e-4,-0.16965 -0.003,-0.333766 -0.006,-0.492188 -0.003,-0.175359 -0.008,-0.343962 -0.0137,-0.505859 v -0.002 C 354.84151,78.063301 353.99153,78 348.59972,78 h -0.59961 z"
         style="display:inline;opacity:0.2;fill:#ffffff;fill-opacity:1;stroke-width:2.00037;enable-background:new"
         id="path18-3" /><path
         d="m 347.00011,78 -6,0.0078 h -1 -0.59961 c -5.38914,0 -6.24094,0.06281 -6.375,3.992188 v 0.0059 c -0.0104,0.307066 -0.016,0.638114 -0.0195,0.994141 h 21.98828 v -0.002 c -10e-4,-0.16965 -0.003,-0.333766 -0.006,-0.492188 -0.003,-0.175359 -0.008,-0.343962 -0.0137,-0.505859 v -0.002 C 354.84151,78.063301 353.99153,78 348.59972,78 h -0.59961 z"
         style="opacity:0.35;fill:#ffffff;stroke-width:2.52188"
         id="path19" /><path
         d="m 347.00011,78 -6,0.0078 h -1 -0.59961 c -5.38914,0 -6.24094,0.06281 -6.375,3.992188 v 0.0059 c -0.0105,0.308759 -0.016,0.641733 -0.0195,1 C 333.002,83.434567 333,83.90093 333,84.406279 v 1.59958 0.998047 V 90 v 1 0.0039 1.59961 c 0,0.505357 7.2e-4,0.96976 0.006,1.398437 0.004,0.358273 0.009,0.691247 0.0195,1 C 333.15891,98.93714 334.00869,99 339.4005,99 h 0.59961 1 l 6,-0.008 h 1 0.59961 c 5.38905,0 6.24092,-0.063 6.375,-3.99219 7e-5,-0.002 -7e-5,-0.0038 0,-0.0059 0.0104,-0.307015 0.016,-0.638168 0.0195,-0.994141 2e-5,-0.002 -2e-5,-0.0038 0,-0.0059 0.004,-0.428667 0.006,-0.895034 0.006,-1.400391 V 90.994141 89.996094 87 86 85.9961 84.398443 c 0,-0.505347 -7.2e-4,-0.971711 -0.006,-1.40039 -10e-4,-0.16965 -0.003,-0.333766 -0.006,-0.492188 -0.003,-0.175359 -0.008,-0.343962 -0.0137,-0.505859 v -0.002 C 354.84131,78.06326 353.99153,78 348.59972,78 h -0.59961 z m -8.08203,1 h 1.08203 v 3 h -5.98047 c 0.10395,-2.966482 0.76019,-3 4.89844,-3 z m 2.08203,0 h 6 v 3 h -6 z m 7,0 h 1.08203 c 4.13825,0 4.79449,0.03352 4.89844,3 h -5.98047 z m -13.99805,4 h 5.99805 v 3 h -6 v -2.082031 c 0,-0.327285 2.2e-4,-0.632792 0.002,-0.917969 z m 6.99805,0 h 6 v 3 h -6 z m 7,0 h 5.99805 c 0.002,0.285177 0.002,0.590684 0.002,0.917969 V 86 h -6 z m -14,4 h 6 v 3 h -6 z m 7,0 h 6 v 3 h -6 z m 7,0 h 6 v 3 h -6 z m -14,4 h 6 v 3 h -5.99805 c -0.002,-0.285177 -0.002,-0.590684 -0.002,-0.917969 z m 7,0 h 6 v 3 h -6 z m 7,0 h 6 v 2.082031 c 0,0.327285 -2.2e-4,0.632792 -0.002,0.917969 h -5.998 z m -13.98047,4 h 5.98047 v 3 h -1.08203 c -4.13825,0 -4.79449,-0.03352 -4.89844,-3 z m 6.98047,0 h 6 v 3 h -6 z m 7,0 h 5.98047 c -0.10395,2.966482 -0.76019,3 -4.89844,3 h -1.08203 z"
         style="opacity:1;fill:#f9f9f9;stroke-width:2.00037"
         id="path17" /><path
         d="m 338.18189,145 -4.36328,0.006 h -0.72852 -0.43554 c -3.91933,0 -4.53923,0.0466 -4.63672,2.9043 v 0.004 c -10e-4,0.0283 -9.6e-4,0.0571 -0.002,0.0859 -0.006,0.20001 -0.009,0.41291 -0.0117,0.64062 -10e-4,0.11601 -9.6e-4,0.2359 -0.002,0.35938 -0.001,0.2084 -0.002,0.42742 -0.002,0.6582 v 3.68946 c 0,0.22845 9.2e-4,0.44584 0.002,0.65234 6e-4,0.12572 5.3e-4,0.24726 0.002,0.36523 0.003,0.22532 0.006,0.4366 0.0117,0.63477 9e-4,0.031 8.8e-4,0.0614 0.002,0.0918 0.097,2.86193 0.71545,2.9082 4.63672,2.9082 h 0.43554 0.72852 l 3.22656,-0.004 c 0.12268,0.98637 0.58092,1.00391 2.2832,1.00391 h 0.2168 0.36328 2.1836 0.36328 0.21679 c 1.9606,0 2.26987,-0.0236 2.31836,-1.52344 0.003,-0.11767 0.007,-0.24431 0.008,-0.38086 0.001,-0.16337 0.002,-0.34061 0.002,-0.5332 v -0.60938 -0.38085 -1.14454 -0.38086 -0.60937 c 0,-0.1926 -8.5e-4,-0.36982 -0.002,-0.5332 -10e-4,-0.13654 -0.003,-0.26318 -0.008,-0.38086 -0.0344,-1.06244 -0.19975,-1.38321 -0.99023,-1.48047 -0.32535,-0.04 -0.75645,-0.043 -1.32813,-0.043 0.0211,0 0.0418,-1e-5 0.0625,0 0.54071,1.9e-4 0.95226,0.004 1.26563,0.043 v -1.38867 c 0,-0.22874 -9.2e-4,-0.44699 -0.002,-0.6543 -6e-4,-0.12579 -5.3e-4,-0.2475 -0.002,-0.36523 -7.3e-4,-0.12338 -0.002,-0.24222 -0.004,-0.35743 -0.002,-0.0953 -0.004,-0.18766 -0.008,-0.27734 -9.9e-4,-0.0303 -0.003,-0.0601 -0.004,-0.0898 v -0.002 c -0.0969,-2.86161 -0.7135,-2.90625 -4.63477,-2.90625 h -0.4375 z"
         style="baseline-shift:baseline;display:inline;overflow:visible;opacity:0.2;vector-effect:none;fill:#000000;fill-opacity:1;stroke-width:0.145466;enable-background:new;stop-color:#000000"
         id="path41" /><path
         d="m 338.18189,143.99993 -4.36328,0.006 h -0.72852 -0.43554 c -3.91933,0 -4.53923,0.0466 -4.63672,2.9043 v 0.004 c -10e-4,0.0283 -9.5e-4,0.0571 -0.002,0.0859 -0.006,0.20001 -0.009,0.41291 -0.0117,0.64062 -10e-4,0.11601 -9.6e-4,0.2359 -0.002,0.35938 -0.001,0.2084 -0.002,0.42742 -0.002,0.6582 v 3.68946 c 0,0.22845 9.2e-4,0.44584 0.002,0.65234 6e-4,0.12572 5.3e-4,0.24726 0.002,0.36523 0.003,0.22532 0.006,0.4366 0.0117,0.63477 9e-4,0.031 8.8e-4,0.0614 0.002,0.0918 0.097,2.86193 0.71545,2.9082 4.63672,2.9082 h 0.43554 0.72852 l 4.36328,-0.006 h 0.72656 0.4375 c 3.91927,0 4.53726,-0.0467 4.63477,-2.9043 6e-5,-0.001 -5e-5,-0.003 0,-0.004 10e-4,-0.0284 9.5e-4,-0.057 0.002,-0.0859 0.006,-0.19875 0.0114,-0.41073 0.0137,-0.63672 10e-6,-0.001 -2e-5,-0.003 0,-0.004 10e-4,-0.11584 9.6e-4,-0.23572 0.002,-0.35937 10e-4,-0.20912 0.002,-0.42921 0.002,-0.66016 v -3.68554 c 0,-0.22874 -9.2e-4,-0.44699 -0.002,-0.6543 -6e-4,-0.12579 -5.3e-4,-0.2475 -0.002,-0.36523 -7.3e-4,-0.12338 -0.002,-0.24222 -0.004,-0.35743 -0.002,-0.0953 -0.004,-0.18766 -0.008,-0.27734 -9.9e-4,-0.0303 -0.003,-0.0601 -0.004,-0.0898 v -0.002 c -0.0969,-2.86161 -0.7135,-2.90625 -4.63477,-2.90625 h -0.4375 z"
         style="display:inline;fill:#3b8f32;fill-opacity:1;stroke-width:1.4548;enable-background:new"
         id="path34" /><path
         d="m 338.18189,143.99993 -4.36328,0.006 h -0.72852 -0.43554 c -3.91933,0 -4.53923,0.0466 -4.63672,2.9043 v 0.004 c -10e-4,0.0283 -9.5e-4,0.0571 -0.002,0.0859 -0.006,0.20001 -0.009,0.41291 -0.0117,0.64062 -10e-4,0.11601 -9.6e-4,0.2359 -0.002,0.35938 -0.001,0.2084 -0.002,0.42742 -0.002,0.6582 v 3.68946 c 0,0.22845 9.2e-4,0.44584 0.002,0.65234 6e-4,0.12572 5.3e-4,0.24726 0.002,0.36523 0.003,0.22532 0.006,0.4366 0.0117,0.63477 9e-4,0.031 8.8e-4,0.0614 0.002,0.0918 0.097,2.86193 0.71545,2.9082 4.63672,2.9082 h 0.43554 0.72852 l 4.36328,-0.006 h 0.72656 0.4375 c 3.91927,0 4.53726,-0.0467 4.63477,-2.9043 6e-5,-0.001 -5e-5,-0.003 0,-0.004 10e-4,-0.0284 9.5e-4,-0.057 0.002,-0.0859 0.006,-0.19875 0.0114,-0.41073 0.0137,-0.63672 10e-6,-0.001 -2e-5,-0.003 0,-0.004 10e-4,-0.11584 9.6e-4,-0.23572 0.002,-0.35937 10e-4,-0.20912 0.002,-0.42921 0.002,-0.66016 v -3.68554 c 0,-0.22874 -9.2e-4,-0.44699 -0.002,-0.6543 -6e-4,-0.12579 -5.3e-4,-0.2475 -0.002,-0.36523 -7.3e-4,-0.12338 -0.002,-0.24222 -0.004,-0.35743 -0.002,-0.0953 -0.004,-0.18766 -0.008,-0.27734 -9.9e-4,-0.0303 -0.003,-0.0601 -0.004,-0.0898 v -0.002 c -0.0969,-2.86161 -0.7135,-2.90625 -4.63477,-2.90625 h -0.4375 z"
         style="display:inline;opacity:0.2;fill:#ffffff;fill-opacity:1;stroke-width:1.4548;enable-background:new"
         id="path34-6" /><path
         d="m 343.9983,147.99993 c -6e-4,-0.12579 -4.9e-4,-0.2475 -0.002,-0.36523 -7.3e-4,-0.12338 -0.002,-0.24222 -0.004,-0.35743 -0.002,-0.0953 -0.004,-0.18766 -0.008,-0.27734 -9.9e-4,-0.0303 -0.003,-0.0601 -0.004,-0.0898 v -0.002 c -0.0969,-2.86161 -0.7135,-2.90625 -4.63477,-2.90625 h -0.4375 l -0.72656,-0.002 -4.36327,0.006 h -0.72852 -0.43554 c -3.91933,0 -4.53923,0.0466 -4.63673,2.9043 v 0.004 c -9.9e-4,0.0283 -9e-4,0.0571 -0.002,0.0859 -0.006,0.20001 -0.009,0.41292 -0.0117,0.64063 -10e-4,0.11595 -9.2e-4,0.23597 -0.002,0.35937 z"
         style="opacity:0.35;fill:#ffffff;stroke-width:5.02225"
         id="path35" /><path
         d="m 338.18189,143.99993 -4.36328,0.006 h -0.72852 -0.43554 c -3.91933,0 -4.53923,0.0466 -4.63672,2.9043 v 0.004 c -10e-4,0.0283 -10e-4,0.0571 -0.002,0.0859 -0.006,0.20001 -0.009,0.41291 -0.0117,0.64062 -10e-4,0.116 -10e-4,0.2359 -0.002,0.35938 -0.001,0.2084 -0.002,0.42742 -0.002,0.6582 v 3.68946 c 0,0.22845 9.7e-4,0.44584 0.002,0.65234 6e-4,0.12572 5.7e-4,0.24726 0.002,0.36523 0.003,0.22532 0.006,0.4366 0.0117,0.63477 8.9e-4,0.031 9.2e-4,0.0614 0.002,0.0918 0.097,2.86193 0.71545,2.9082 4.63672,2.9082 h 0.43554 0.72852 l 4.36328,-0.006 h 0.72656 0.4375 c 3.91927,0 4.53726,-0.0467 4.63477,-2.9043 6e-5,-0.001 -5e-5,-0.003 0,-0.004 10e-4,-0.0284 10e-4,-0.057 0.002,-0.0859 0.006,-0.19875 0.0114,-0.41073 0.0137,-0.63672 10e-6,-0.001 -2e-5,-0.003 0,-0.004 10e-4,-0.11584 10e-4,-0.23572 0.002,-0.35937 10e-4,-0.20912 0.002,-0.42921 0.002,-0.66016 v -3.68554 c 0,-0.22874 -9.7e-4,-0.44699 -0.002,-0.6543 -6e-4,-0.12579 -5.7e-4,-0.2475 -0.002,-0.36523 -7.3e-4,-0.12338 -0.002,-0.24222 -0.004,-0.35743 -0.002,-0.0953 -0.004,-0.18766 -0.008,-0.27734 -10e-4,-0.0303 -0.003,-0.0601 -0.004,-0.0898 v -0.002 c -0.0969,-2.86161 -0.7135,-2.90625 -4.63477,-2.90625 h -0.4375 z m -6.16992,1 h 0.98828 v 2 h -3.99414 c 0.0448,-1.98322 0.38835,-2 3.00586,-2 z m 1.98828,0 h 4 v 2 h -4 z m 5,0 h 0.98828 c 2.61751,0 2.96103,0.0168 3.00586,2 h -3.99414 z m -10,3 h 4 v 2 h -4 v -1.98828 z m 5,0 h 4 v 2 h -4 z m 5,0 h 4 v 0.0117 1.98831 h -4 z m -10,3 h 4 v 2 h -4 v -0.0117 z m 5,0 h 4 v 2 h -4 z m 5,0 h 4 v 1.98828 0.0117 h -4 z m -9.99414,3 h 3.99414 v 2 h -0.98828 c -2.61751,0 -2.96103,-0.0168 -3.00586,-2 z m 4.99414,0 h 4 v 2 h -4 z m 5,0 h 3.99414 c -0.0448,1.98321 -0.3881,2 -3.00586,2 h -0.98828 z"
         style="display:inline;fill:#f9f9f9;stroke-width:1.4548;enable-background:new"
         id="path33" /><path
         d="m 332.36231,198 -2.72852,0.006 h -0.45507 -0.27149 c -2.44954,0 -2.83749,0.0284 -2.89844,1.81445 v 0.002 c -6.2e-4,0.0177 4.1e-4,0.0347 0,0.0527 -0.004,0.12501 -0.007,0.25808 -0.008,0.40039 -6.3e-4,0.0725 4.1e-4,0.14744 0,0.22461 -6.3e-4,0.13025 -0.002,0.26787 -0.002,0.41211 v 3.17969 c 0,0.14278 0.002,0.27914 0.002,0.4082 3.7e-4,0.0786 -6.8e-4,0.15479 0,0.22852 0.002,0.14082 0.005,0.27263 0.008,0.39648 5.6e-4,0.0194 -4.5e-4,0.0376 0,0.0566 0.0606,1.78867 0.44769,1.81836 2.89844,1.81836 h 0.27148 0.45507 l 1.36524,-0.002 c 2.2e-4,0.11886 8.6e-4,0.23078 0.002,0.33593 8.7e-4,0.11948 0.004,0.22908 0.008,0.33204 0.0423,1.31226 0.31184,1.33398 2.02735,1.33398 h 0.18945 0.31836 1.91016 0.31836 0.18945 c 1.71553,0 1.98687,-0.0216 2.0293,-1.33398 0.003,-0.10296 0.005,-0.21256 0.006,-0.33204 8.8e-4,-0.14295 0.002,-0.29828 0.002,-0.46679 v -0.53321 -0.33398 -1 -0.33398 -0.53321 c 0,-0.16852 -6.3e-4,-0.32383 -0.002,-0.46679 -8.7e-4,-0.11947 -0.002,-0.23102 -0.006,-0.33399 -0.0421,-1.30316 -0.31031,-1.3317 -1.99414,-1.33203 v -1.0918 c 0,-0.14296 4.2e-4,-0.28058 0,-0.41015 -3.7e-4,-0.0786 -9.2e-4,-0.15494 -0.002,-0.22852 -4.6e-4,-0.0771 -8.5e-4,-0.15065 -0.002,-0.22266 -0.001,-0.0596 -7.3e-4,-0.11777 -0.004,-0.17382 -6.2e-4,-0.0189 -0.002,-0.0381 -0.002,-0.0566 -0.0607,-1.78827 -0.44573,-1.81641 -2.89648,-1.81641 h -0.27344 z"
         style="baseline-shift:baseline;display:inline;overflow:visible;opacity:0.2;vector-effect:none;fill:#000000;fill-opacity:1;stroke-width:0.127283;enable-background:new;stop-color:#000000"
         id="path93" /><path
         d="m 332.36328,197 -2.72851,0.006 h -0.45508 -0.27149 c -2.44954,0 -2.83749,0.0284 -2.89843,1.81445 v 0.002 c -6.2e-4,0.0177 4.1e-4,0.0347 0,0.0527 -0.004,0.12501 -0.007,0.25808 -0.008,0.40039 -6.3e-4,0.0725 4.1e-4,0.14744 0,0.22461 -6.3e-4,0.13025 -0.002,0.26787 -0.002,0.41211 v 3.17969 c 0,0.14278 0.002,0.27914 0.002,0.4082 3.7e-4,0.0786 -6.8e-4,0.15479 0,0.22852 0.002,0.14082 0.005,0.27263 0.008,0.39648 5.6e-4,0.0194 -4.5e-4,0.0376 0,0.0566 0.0606,1.78867 0.44768,1.81836 2.89843,1.81836 h 0.27149 0.45508 l 2.72851,-0.004 h 0.45313 0.27343 c 2.4495,0 2.83555,-0.0285 2.89649,-1.81445 4e-5,-6.3e-4 -3e-5,-0.003 0,-0.004 6.2e-4,-0.0178 0.002,-0.0366 0.002,-0.0547 0.004,-0.12421 0.006,-0.2572 0.008,-0.39844 v -0.002 c 6.3e-4,-0.0724 0.002,-0.14733 0.002,-0.22461 6.3e-4,-0.1307 0,-0.26777 0,-0.41211 v -3.17774 c 0,-0.14296 4.2e-4,-0.28058 0,-0.41015 -3.7e-4,-0.0786 -9.2e-4,-0.15494 -0.002,-0.22852 -4.6e-4,-0.0771 -8.5e-4,-0.15065 -0.002,-0.22266 -0.001,-0.0596 -7.3e-4,-0.11777 -0.004,-0.17382 -6.2e-4,-0.0189 -0.002,-0.0381 -0.002,-0.0566 C 335.92758,197.02814 335.54255,197 333.0918,197 h -0.27344 z"
         style="display:inline;fill:#3b8f32;stroke-width:0.909233;enable-background:new;fill-opacity:1"
         id="path71" /><rect
         style="opacity:0.35;fill:#ffffff;fill-opacity:1;stroke:none;stroke-width:0.948684;stroke-dasharray:none;stroke-opacity:1"
         id="rect71"
         width="10.000487"
         height="5.0000062"
         x="325.99976"
         y="197"
         ry="2.5000031" /><path
         d="m 332.36328,197 -2.72851,0.006 h -0.45508 -0.27149 c -2.44954,0 -2.83749,0.0284 -2.89843,1.81445 v 0.002 c -6.2e-4,0.0177 4.1e-4,0.0347 0,0.0527 -0.004,0.12501 -0.007,0.25808 -0.008,0.40039 -6.3e-4,0.0725 4.1e-4,0.14744 0,0.22461 -6.3e-4,0.13025 -0.002,0.26787 -0.002,0.41211 v 3.17969 c 0,0.14278 0.002,0.27914 0.002,0.4082 3.7e-4,0.0786 -6.8e-4,0.15479 0,0.22852 0.002,0.14082 0.005,0.27263 0.008,0.39648 5.6e-4,0.0194 -4.5e-4,0.0376 0,0.0566 0.0606,1.78867 0.44768,1.81836 2.89843,1.81836 h 0.27149 0.45508 l 2.72851,-0.004 h 0.45313 0.27343 c 2.4495,0 2.83555,-0.0285 2.89649,-1.81445 4e-5,-6.3e-4 -3e-5,-0.003 0,-0.004 6.2e-4,-0.0178 0.002,-0.0366 0.002,-0.0547 0.004,-0.12421 0.006,-0.2572 0.008,-0.39844 v -0.002 c 6.3e-4,-0.0724 0.002,-0.14733 0.002,-0.22461 6.3e-4,-0.1307 0,-0.26777 0,-0.41211 v -3.17774 c 0,-0.14296 4.2e-4,-0.28058 0,-0.41015 -3.7e-4,-0.0786 -9.2e-4,-0.15494 -0.002,-0.22852 -4.6e-4,-0.0771 -8.5e-4,-0.15065 -0.002,-0.22266 -10e-4,-0.0596 -7.3e-4,-0.11777 -0.004,-0.17382 -6.2e-4,-0.0189 -0.002,-0.0381 -0.002,-0.0566 C 335.92758,197.02814 335.54255,197 333.0918,197 h -0.27344 z"
         style="display:inline;fill:#ffffff;fill-opacity:1;stroke-width:0.909233;enable-background:new;opacity:0.2"
         id="path71-6" /><path
         d="m 332.36328,197 -2.72851,0.006 h -0.45508 -0.27149 c -2.44954,0 -2.83749,0.0284 -2.89843,1.81445 v 0.002 c -6.2e-4,0.0177 4.1e-4,0.0347 0,0.0527 -0.004,0.12501 -0.007,0.25808 -0.008,0.40039 -6.3e-4,0.0725 4.1e-4,0.14744 0,0.22461 -6.3e-4,0.13025 -0.002,0.26787 -0.002,0.41211 v 3.17969 c 0,0.14278 0.002,0.27914 0.002,0.4082 3.7e-4,0.0786 -6.8e-4,0.15479 0,0.22852 0.002,0.14082 0.005,0.27263 0.008,0.39648 5.6e-4,0.0194 -4.5e-4,0.0376 0,0.0566 0.0606,1.78867 0.44768,1.81836 2.89843,1.81836 h 0.27149 0.45508 l 2.72851,-0.004 h 0.45313 0.27343 c 2.4495,0 2.83555,-0.0285 2.89649,-1.81445 4e-5,-6.3e-4 -3e-5,-0.003 0,-0.004 6.2e-4,-0.0178 0.002,-0.0366 0.002,-0.0547 0.004,-0.12421 0.006,-0.2572 0.008,-0.39844 v -0.002 c 6.3e-4,-0.0724 0.002,-0.14733 0.002,-0.22461 6.3e-4,-0.1307 0,-0.26777 0,-0.41211 v -3.17774 c 0,-0.14296 4.2e-4,-0.28058 0,-0.41015 -3.7e-4,-0.0786 -9.6e-4,-0.15494 -0.002,-0.22852 -4.6e-4,-0.0771 -9e-4,-0.15065 -0.002,-0.22266 -10e-4,-0.0596 -8.2e-4,-0.11777 -0.004,-0.17382 -6.2e-4,-0.0189 -0.002,-0.0381 -0.002,-0.0566 C 335.92763,197.02804 335.54255,197 333.0918,197 h -0.27344 z m -4.1543,1 H 329 v 3 h -2 v -1.79102 C 327,197.9961 327.03451,198 328.20898,198 Z M 330,198 h 2 v 3 h -2 z m 3,0 h 0.79102 C 334.96549,198 335,197.996 335,199.20898 V 201 h -2 z m -6,4 h 2 v 3 h -0.79102 C 327.03451,205 327,205.0039 327,203.79102 Z m 3,0 h 2 v 3 h -2 z m 3,0 h 2 v 1.79102 C 335,205.0039 334.96549,205 333.79102,205 H 333 Z"
         style="display:inline;fill:#f9f9f9;stroke-width:0.909233;enable-background:new"
         id="path70" /><path
         d="M 329.0918,243 327,243.006 h -0.0918 -0.36328 -0.21875 c -1.95967,0 -2.31836,0.0215 -2.31836,1.45117 v 0.002 c 0,0.0142 3.3e-4,0.0266 0,0.041 -0.003,0.1 -0.006,0.20645 -0.006,0.32031 -5e-4,0.058 0,0.11795 0,0.17969 v 0.002 c 0,0.95571 -0.002,1.71466 -0.002,2.67188 0,0.11422 0.002,0.22292 0.002,0.32617 3e-4,0.0629 -5.4e-4,0.12461 0,0.18359 0.002,0.11266 0.004,0.21733 0.006,0.31641 4.5e-4,0.0155 -3.6e-4,0.0297 0,0.0449 0.0485,1.43095 0.35773,1.45508 2.31836,1.45508 h 0.21875 0.36328 l 2.1836,-0.004 h 0.36132 0.21875 c 1.95964,0 2.26962,-0.0224 2.31836,-1.45117 v -0.002 c 5e-4,-0.0142 0.002,-0.0304 0.002,-0.0449 0.003,-0.0994 0.006,-0.20536 0.006,-0.31836 v -0.002 c 0,-0.0579 0.002,-0.11786 0.002,-0.17968 5e-4,-0.10456 0,-0.2146 0,-0.33008 1e-5,-0.95678 0,-1.71314 0,-2.66992 -3e-4,-0.0629 -5.2e-4,-0.12279 -0.002,-0.18164 -3.7e-4,-0.0617 -5.2e-4,-0.12013 -0.002,-0.17774 -8e-4,-0.0477 -0.002,-0.0958 -0.004,-0.14062 -5e-4,-0.0151 -0.002,-0.0301 -0.002,-0.0449 C 331.94163,243.0223 331.63447,243 329.67383,243 h -0.21875 z"
         style="display:inline;opacity:0.2;fill:#000000;fill-opacity:1;stroke-width:0.727398;enable-background:new"
         id="path94" /><path
         d="m 329.0918,243 -2.0918,0.006 h -0.0918 -0.36328 -0.21875 c -1.95967,0 -2.26961,0.0223 -2.31836,1.45117 v 0.002 c -5e-4,0.0142 3.3e-4,0.0266 0,0.041 -0.003,0.10001 -0.006,0.20646 -0.006,0.32031 -5e-4,0.058 3.3e-4,0.11796 0,0.17969 v 0.002 c -0.005,0.9557 -0.002,0.71466 -0.002,1.67188 0,0.11422 0.002,0.22292 0.002,0.32617 3e-4,0.0629 -5.4e-4,0.12461 0,0.18359 0.002,0.11266 0.004,0.21733 0.006,0.31641 4.5e-4,0.0155 -3.6e-4,0.0297 0,0.0449 0.0485,1.43095 0.35773,1.45508 2.31836,1.45508 h 0.21875 0.36328 l 2.1836,-0.004 h 0.36132 0.21875 c 1.95964,0 2.26962,-0.0224 2.31836,-1.45117 v -0.002 c 5e-4,-0.0142 0.002,-0.0304 0.002,-0.0449 0.003,-0.0994 0.006,-0.20536 0.006,-0.31836 v -0.002 c 0,-0.0579 0.002,-0.11786 0.002,-0.17968 5e-4,-0.10456 0,-0.2146 0,-0.33008 10e-6,-0.95678 0,-0.71314 0,-1.66992 -3e-4,-0.0629 -5.2e-4,-0.12278 -0.002,-0.18164 -3.7e-4,-0.0617 -5.2e-4,-0.12013 -0.002,-0.17774 -8e-4,-0.0477 -0.002,-0.0958 -0.004,-0.14062 -5e-4,-0.0151 -0.002,-0.0301 -0.002,-0.0449 C 331.94163,243.02231 331.63447,243 329.67383,243 h -0.21875 z"
         style="display:inline;fill:#28851e;stroke-width:0.727398;enable-background:new;fill-opacity:1"
         id="path86" /><path
         d="M 329.0918,243 327,243.006 h -0.0918 -0.36328 -0.21875 c -1.95967,0 -2.26961,0.0223 -2.31836,1.45117 v 0.002 c -5e-4,0.0142 3.3e-4,0.0266 0,0.041 -0.003,0.10001 -0.006,0.20646 -0.006,0.32031 -5e-4,0.058 3.3e-4,0.11796 0,0.17969 v 0.002 c -0.005,0.9557 -0.002,0.71466 -0.002,1.67188 0,0.11422 0.002,0.22292 0.002,0.32617 3e-4,0.0629 -5.4e-4,0.12461 0,0.18359 0.002,0.11266 0.004,0.21733 0.006,0.31641 4.5e-4,0.0155 -3.6e-4,0.0297 0,0.0449 0.0485,1.43095 0.35773,1.45508 2.31836,1.45508 h 0.21875 0.36328 l 2.1836,-0.004 h 0.36132 0.21875 c 1.95964,0 2.26962,-0.0224 2.31836,-1.45117 v -0.002 c 5e-4,-0.0142 0.002,-0.0304 0.002,-0.0449 0.003,-0.0994 0.006,-0.20536 0.006,-0.31836 v -0.002 c 0,-0.0579 0.002,-0.11786 0.002,-0.17968 5e-4,-0.10456 0,-0.2146 0,-0.33008 1e-5,-0.95678 0,-0.71314 0,-1.66992 -3e-4,-0.0629 -5.2e-4,-0.12278 -0.002,-0.18164 -3.7e-4,-0.0617 -5.2e-4,-0.12013 -0.002,-0.17774 -8e-4,-0.0477 -0.002,-0.0958 -0.004,-0.14062 -5e-4,-0.0151 -0.002,-0.0301 -0.002,-0.0449 C 331.94163,243.02231 331.63447,243 329.67383,243 h -0.21875 z"
         style="display:inline;fill:#ffffff;fill-opacity:1;stroke-width:0.727398;enable-background:new;opacity:0.2"
         id="path86-0" /><rect
         style="opacity:0.35;fill:#ffffff;fill-opacity:1;stroke:none;stroke-width:1.16855;stroke-dasharray:none;stroke-opacity:1"
         id="rect86"
         width="8.0021257"
         height="2.9999986"
         x="323.99893"
         y="243"
         ry="1.4546338" /><path
         d="m 329.0918,241.99992 -2.0918,0.006 h -0.0918 -0.36328 -0.21875 c -1.95967,0 -2.31836,0.0215 -2.31836,1.45116 v 0.002 c 0,0.0142 3.3e-4,0.0266 0,0.041 -0.003,0.1 -0.006,0.20645 -0.006,0.32031 -5e-4,0.058 0,0.11795 0,0.17969 v 0.002 c 0,0.95571 -0.002,1.71474 -0.002,2.67196 0,0.11422 0.002,0.22292 0.002,0.32617 3e-4,0.0629 -5.4e-4,0.12461 0,0.18359 0.002,0.11266 0.004,0.21733 0.006,0.31641 4.5e-4,0.0155 -3.6e-4,0.0297 0,0.0449 0.0485,1.43095 0.35773,1.45508 2.31836,1.45508 h 0.21875 0.36328 l 2.1836,-0.004 h 0.36132 0.21875 c 1.95964,0 2.26962,-0.0224 2.31836,-1.45117 v -0.002 c 5e-4,-0.0142 0.002,-0.0304 0.002,-0.0449 0.003,-0.0994 0.006,-0.20536 0.006,-0.31836 v -0.002 c 0,-0.0579 0.002,-0.11786 0.002,-0.17968 5e-4,-0.10456 0,-0.2146 0,-0.33008 1e-5,-0.95678 0,-1.71323 0,-2.67001 -3e-4,-0.0629 -5.7e-4,-0.12278 -0.002,-0.18163 -3.7e-4,-0.0617 -5.6e-4,-0.12013 -0.002,-0.17774 -8e-4,-0.0477 -0.002,-0.0958 -0.004,-0.14063 -5e-4,-0.0151 -0.002,-0.0301 -0.002,-0.0449 -0.0486,-1.43082 -0.35576,-1.45318 -2.3164,-1.45318 h -0.21875 z m -3.28321,1 H 327 V 245 h -2 v -1.19149 c 0,-0.75742 0.0806,-0.80859 0.80859,-0.80859 z m 2.19141,0 h 2.19141 c 0.72795,0 0.80859,0.0512 0.80859,0.80859 V 245 h -3 z M 325,246 h 2 v 2 h -1.19141 C 325.08064,248 325,247.94883 325,247.19141 Z m 3,0 h 3 v 1.19141 C 331,247.94883 330.91936,248 330.19141,248 H 328 Z"
         style="display:inline;fill:#f9f9f9;stroke-width:0.727398;enable-background:new"
         id="path85"
         sodipodi:nodetypes="ccccsssccsssccccsccccssscsscscccccsccscccsscssccccccsscccsscc" /><path
         d="m 348.19968,89.000352 c -2.69545,0 -3.11885,0.0336 -3.18555,2.095703 -0.004,0.1618 -0.01,0.335698 -0.0117,0.523438 -0.002,0.22463 -0.002,0.467612 -0.002,0.732421 v 0.837891 0.525391 1.570316 0.52343 0.83985 c 0,0.2648 -2.3e-4,0.50779 0.002,0.73242 0.002,0.18774 0.005,0.36164 0.0117,0.52344 0.0666,2.062048 0.4901,2.095698 3.18555,2.095698 h 0.30078 0.5 3 0.5 0.29883 c 2.69544,0 3.12081,-0.0336 3.1875,-2.095698 0.004,-0.1618 0.01,-0.3357 0.0117,-0.52344 0.002,-0.22463 0.002,-0.46762 0.002,-0.73242 v -0.83985 -0.52343 -1.570316 -0.525391 -0.837891 c 0,-0.264809 -5.5e-4,-0.507791 -0.002,-0.732421 -0.002,-0.18774 -0.005,-0.361648 -0.0117,-0.523438 -0.0667,-2.06205 -0.49206,-2.095703 -3.1875,-2.095703 h -0.29883 -0.5 -3 -0.5 z"
         style="baseline-shift:baseline;display:inline;overflow:visible;vector-effect:none;fill:#28851e;fill-opacity:1;stroke-width:0.199999;enable-background:new;stop-color:#000000"
         id="path20" /><path
         d="m 348.19968,89.000352 c -2.69545,0 -3.11885,0.0336 -3.18555,2.095703 -0.004,0.1618 -0.01,0.335698 -0.0117,0.523438 -0.002,0.22463 -0.002,0.467612 -0.002,0.732421 v 0.837891 0.525391 1.570316 0.52343 0.83985 c 0,0.2648 -2.3e-4,0.50779 0.002,0.73242 0.002,0.18774 0.005,0.36164 0.0117,0.52344 0.0666,2.062048 0.4901,2.095698 3.18555,2.095698 h 0.30078 0.5 3 0.5 0.29883 c 2.69544,0 3.12081,-0.0336 3.1875,-2.095698 0.004,-0.1618 0.01,-0.3357 0.0117,-0.52344 0.002,-0.22463 0.002,-0.46762 0.002,-0.73242 v -0.83985 -0.52343 -1.570316 -0.525391 -0.837891 c 0,-0.264809 -5.5e-4,-0.507791 -0.002,-0.732421 -0.002,-0.18774 -0.005,-0.361648 -0.0117,-0.523438 -0.0667,-2.06205 -0.49206,-2.095703 -3.1875,-2.095703 h -0.29883 -0.5 -3 -0.5 z"
         style="baseline-shift:baseline;display:inline;overflow:visible;opacity:0.1;vector-effect:none;fill:#ffffff;fill-opacity:1;stroke-width:0.199999;enable-background:new;stop-color:#000000"
         id="path20-8" /><path
         d="m 348.20011,89 c -2.69545,0 -3.1204,0.0332 -3.1871,2.0953 -0.004,0.1618 -0.009,0.33609 -0.0109,0.52383 -0.002,0.22463 -0.002,0.46839 -0.002,0.7332 v 0.83788 0.52383 1.57148 0.523824 0.83828 c 0,0.2648 -1.8e-4,0.508568 0.002,0.733198 0.002,0.18774 0.004,0.36203 0.0109,0.52383 0.0666,2.062048 0.49165,2.095298 3.1871,2.095298 h 0.3 0.5 2.99959 0.5 0.3 c 2.69544,0 3.1204,-0.0332 3.18709,-2.095298 0.004,-0.1618 0.009,-0.33609 0.0109,-0.52383 0.002,-0.22463 0.002,-0.468398 0.002,-0.733198 v -0.83828 -0.523824 -1.57148 -0.52383 -0.83788 c 0,-0.26481 -6e-4,-0.50857 -0.002,-0.7332 -0.002,-0.18774 -0.004,-0.36204 -0.0109,-0.52383 C 355.92009,89.03325 355.49514,89 352.7997,89 h -0.3 -0.5 -2.99959 -0.5 z m -0.60469,1 h 5.80935 c 1.59443,0 1.59531,0.0224 1.59531,1.59257 0,8e-4 0,0.002 0,0.003 v 5.809342 c 0,1.572708 -1e-5,1.595308 -1.59531,1.595308 h -5.80935 c -1.59529,-1e-5 -1.5953,-0.0226 -1.5953,-1.595308 V 91.59556 c 0,-1.5727 1e-5,-1.5953 1.5953,-1.5953 z m -1.46288,0.11913 h 4e-4 4e-4 v 4e-4 h 4e-4 v 4e-4 c 4e-4,0.002 -8e-5,0.006 -0.002,0.0145 -0.002,6e-4 -0.002,0.001 -0.003,0.002 l -4e-4,4e-4 h -4e-4 -4e-4 -4e-4 -4e-4 -4e-4 v -4e-4 -4e-4 l -4e-4,-4e-4 c -1.1e-4,-0.004 0.003,-0.0118 0.005,-0.0148 l 4e-4,-4e-4 4e-4,-4e-4 h 4e-4 z m -0.006,8.7445 h 4e-4 4e-4 4e-4 4e-4 l 4e-4,4e-4 h 4e-4 l 4e-4,4e-4 c 8e-4,2e-4 0.002,4e-4 0.003,8e-4 0.002,0.008 0.002,0.0127 0.002,0.0145 v 4e-4 4e-4 h -4e-4 v 4e-4 h -4e-4 -4e-4 v -4e-4 h -4e-4 l -4e-4,-4e-4 c -0.002,-0.003 -0.006,-0.0113 -0.006,-0.0148 v -4e-4 l 4e-4,-4e-4 v -4e-4 z"
         style="baseline-shift:baseline;display:inline;overflow:visible;vector-effect:none;fill:#f9f9f9;fill-opacity:1;stroke-width:0.199999;enable-background:new;stop-color:#000000"
         id="path88-6" /><rect
         style="display:inline;opacity:0.35;fill:#ffffff;fill-opacity:1;stroke:none;stroke-width:1.13799;enable-background:new"
         id="rect1-5-8"
         width="2.9999859"
         height="7.9999623"
         x="349.00012"
         y="90.999992" /><rect
         style="display:inline;fill:#f9f9f9;fill-opacity:1;stroke:none;stroke-width:0.614596;enable-background:new"
         id="rect1-8"
         width="0.99999529"
         height="7.0002303"
         x="350.00012"
         y="91.999992" /><rect
         style="display:inline;opacity:0.2;fill:#ffffff;fill-opacity:1;stroke:none;stroke-width:0.968963;enable-background:new"
         id="rect1-5-2-4"
         width="2.9999859"
         height="5.7999725"
         x="346.00015"
         y="93.199982" /><rect
         style="display:inline;fill:#f9f9f9;fill-opacity:1;stroke:none;stroke-width:0.508502;enable-background:new"
         id="rect1-9-3"
         width="0.99999529"
         height="4.7920208"
         x="347.00012"
         y="94.199982" /><rect
         style="display:inline;opacity:0.2;fill:#ffffff;fill-opacity:1;stroke:none;stroke-width:0.881484;enable-background:new"
         id="rect1-5-2-2-1"
         width="2.9999859"
         height="4.7999773"
         x="352.00012"
         y="94.199982" /><rect
         style="display:inline;fill:#f9f9f9;fill-opacity:1;stroke:none;stroke-width:0.46458;enable-background:new"
         id="rect1-9-3-0"
         width="0.99999529"
         height="3.999959"
         x="353.00012"
         y="95" /><path
         d="m 339.32837,149.99993 c -1.96058,0 -2.26983,0.0237 -2.31835,1.52343 -0.003,0.11769 -0.007,0.24432 -0.008,0.38087 -0.001,0.16338 -0.002,0.3406 -0.002,0.5332 v 0.60937 0.38086 1.14454 0.38085 0.60938 c 0,0.19259 7.2e-4,0.36983 0.002,0.5332 10e-4,0.13655 0.003,0.26319 0.008,0.38086 0.0484,1.49973 0.35777,1.52344 2.31835,1.52344 h 0.2168 0.36328 2.1836 0.36328 0.21679 c 1.9606,0 2.26986,-0.0236 2.31835,-1.52344 0.003,-0.11767 0.007,-0.24431 0.008,-0.38086 10e-4,-0.16337 0.002,-0.34061 0.002,-0.5332 v -0.60938 -0.38085 -1.14454 -0.38086 -0.60937 c 0,-0.1926 -9e-4,-0.36982 -0.002,-0.5332 -10e-4,-0.13654 -0.003,-0.26319 -0.008,-0.38087 -0.0485,-1.49972 -0.35774,-1.52343 -2.31835,-1.52343 h -0.21679 -0.36328 -2.1836 -0.36328 z"
         style="baseline-shift:baseline;display:inline;overflow:visible;vector-effect:none;fill:#3b8f32;fill-opacity:1;stroke-width:0.145466;enable-background:new;stop-color:#000000"
         id="path38" /><path
         d="m 339.32837,149.99993 c -1.96058,0 -2.26983,0.0237 -2.31835,1.52343 -0.003,0.11769 -0.007,0.24432 -0.008,0.38087 -0.001,0.16338 -0.002,0.3406 -0.002,0.5332 v 0.60937 0.38086 1.14454 0.38085 0.60938 c 0,0.19259 7.2e-4,0.36983 0.002,0.5332 10e-4,0.13655 0.003,0.26319 0.008,0.38086 0.0484,1.49973 0.35777,1.52344 2.31835,1.52344 h 0.2168 0.36328 2.1836 0.36328 0.21679 c 1.9606,0 2.26986,-0.0236 2.31835,-1.52344 0.003,-0.11767 0.007,-0.24431 0.008,-0.38086 10e-4,-0.16337 0.002,-0.34061 0.002,-0.5332 v -0.60938 -0.38085 -1.14454 -0.38086 -0.60937 c 0,-0.1926 -9e-4,-0.36982 -0.002,-0.5332 -10e-4,-0.13654 -0.003,-0.26319 -0.008,-0.38087 -0.0485,-1.49972 -0.35774,-1.52343 -2.31835,-1.52343 h -0.21679 -0.36328 -2.1836 -0.36328 z"
         style="baseline-shift:baseline;display:inline;overflow:visible;opacity:0.1;vector-effect:none;fill:#ffffff;fill-opacity:1;stroke-width:0.145466;enable-background:new;stop-color:#000000"
         id="path38-9" /><path
         d="m 339.32837,149.99993 c -1.96058,0 -2.26983,0.0237 -2.31835,1.52343 -0.003,0.11769 -0.007,0.24432 -0.008,0.38087 -0.001,0.16338 -0.002,0.3406 -0.002,0.5332 v 0.60937 0.38086 1.14454 0.38085 0.60938 c 0,0.19259 7.7e-4,0.36983 0.002,0.5332 10e-4,0.13655 0.003,0.26319 0.008,0.38086 0.0484,1.49973 0.35777,1.52344 2.31835,1.52344 h 0.2168 0.36328 2.1836 0.36328 0.21679 c 1.9606,0 2.26986,-0.0236 2.31835,-1.52344 0.003,-0.11767 0.007,-0.24431 0.008,-0.38086 10e-4,-0.16337 0.002,-0.34061 0.002,-0.5332 v -0.60938 -0.38085 -1.14454 -0.38086 -0.60937 c 0,-0.1926 -9.5e-4,-0.36982 -0.002,-0.5332 -10e-4,-0.13654 -0.003,-0.26319 -0.008,-0.38087 -0.0485,-1.49972 -0.35774,-1.52343 -2.31835,-1.52343 h -0.21679 -0.36328 -2.1836 -0.36328 z m -0.17187,1 h 3.6875 c 1.12869,0 1.15625,0.0278 1.15625,1.15625 v 3.6875 c 0,1.12843 -0.0276,1.15625 -1.15625,1.15625 h -3.6875 c -1.12869,0 -1.15625,-0.0278 -1.15625,-1.15625 v -3.6875 c 0,-1.12844 0.0276,-1.15625 1.15625,-1.15625 z"
         style="baseline-shift:baseline;display:inline;overflow:visible;vector-effect:none;fill:#f9f9f9;stroke-width:0.145466;enable-background:new;stop-color:#000000"
         id="path37" /><path
         d="m 339.00025,153.99993 v 3 h 1 1 v -1 h -1 v -2 z"
         style="display:inline;fill:#ffffff;stroke-width:0.957547;enable-background:new"
         id="path39" /><path
         d="m 341.00025,151.99993 v 5 h 1 1 v -1 h -1 v -4 z"
         style="display:inline;fill:#ffffff;stroke-width:0.957547;enable-background:new"
         id="path39-5"
         sodipodi:nodetypes="cccccccc" /><rect
         style="opacity:0.35;fill:#ffffff;fill-opacity:1;stroke:none;stroke-width:4;stroke-dasharray:none;stroke-opacity:1"
         id="rect39"
         width="1"
         height="2"
         x="340.00024"
         y="153.99992" /><rect
         style="display:inline;opacity:0.35;fill:#ffffff;fill-opacity:1;stroke:none;stroke-width:5.66513;stroke-dasharray:none;stroke-opacity:1;enable-background:new"
         id="rect39-1"
         width="1"
         height="4.0117188"
         x="342.00024"
         y="151.9882" /><path
         d="m 341.5,196.5 -8,-8.01167 v 2.9043 c 0,4.62202 0.47778,5.07673 5.13477,5.0957 z"
         style="display:inline;enable-background:new;opacity:1;fill:#faf8f6;fill-opacity:1;stroke-width:2"
         id="path54"
         sodipodi:nodetypes="ccssc" /><path
         d="M 334.21875,188.5 H 333 v 2.89258 c 0,1.16412 0.0272,2.07703 0.1543,2.82617 0.1271,0.74914 0.36537,1.35862 0.81445,1.80273 0.44908,0.44411 1.06203,0.67994 1.81641,0.80664 0.75437,0.12671 1.6753,0.15539 2.84765,0.16016 L 341.5,197 v -1.20703 z M 334,189.69727 l 6.28906,6.29687 -1.65234,-0.006 c -1.15615,-0.005 -2.04056,-0.0382 -2.68555,-0.14648 -0.64499,-0.10833 -1.02679,-0.28156 -1.2793,-0.53125 -0.25248,-0.24969 -0.42323,-0.62116 -0.53125,-1.25782 C 334.03261,193.41636 334,192.53947 334,191.39258 Z"
         style="display:inline;enable-background:new;baseline-shift:baseline;overflow:visible;opacity:0.15;vector-effect:none;stop-color:#000000;stop-opacity:1"
         id="path64" /><path
         d="m 333.03711,201 c -1.71551,0 -1.98489,0.0197 -2.02734,1.33203 -0.003,0.10298 -0.007,0.21451 -0.008,0.33399 -8.7e-4,0.14296 -0.002,0.29827 -0.002,0.46679 v 0.53321 0.33398 1 0.33398 0.53321 c 0,0.16851 5.2e-4,0.32384 0.002,0.46679 8.7e-4,0.11948 0.004,0.22908 0.008,0.33204 0.0423,1.31226 0.31183,1.33398 2.02734,1.33398 h 0.18945 0.31836 1.91016 0.31836 0.18945 c 1.71552,0 1.98687,-0.0216 2.0293,-1.33398 0.003,-0.10296 0.005,-0.21256 0.006,-0.33204 8.8e-4,-0.14295 0.002,-0.29828 0.002,-0.46679 V 205.33398 205 v -1 -0.33398 -0.53321 c 0,-0.16852 -6.8e-4,-0.32383 -0.002,-0.46679 -8.7e-4,-0.11947 -0.002,-0.23102 -0.006,-0.33399 C 337.94979,201.01978 337.67842,201 335.96289,201 h -0.18945 -0.31836 -1.91016 -0.31836 z"
         style="display:inline;enable-background:new;baseline-shift:baseline;overflow:visible;vector-effect:none;fill:#f9f9f9;stroke-width:0.127283;stop-color:#000000"
         id="path74" /><path
         d="m 332.80478,202.00015 c -0.73558,0 -0.79678,0.0381 -0.80078,0.7168 -0.003,0.0286 -0.004,0.0585 -0.004,0.0879 v 3.39062 c 0,0.78485 0.0319,0.80453 0.80469,0.80469 h 3.39062 c 0.0262,0 0.0525,-0.002 0.0781,-0.004 0.64495,-0.003 0.71865,-0.0651 0.72265,-0.71289 0.003,-0.0286 0.004,-0.0585 0.004,-0.0879 v -3.39062 c 0,-0.0262 -0.002,-0.0525 -0.004,-0.0781 -0.004,-0.65485 -0.0749,-0.71965 -0.71289,-0.72265 -0.0286,-0.003 -0.0585,-0.004 -0.0879,-0.004 z"
         style="display:inline;enable-background:new;baseline-shift:baseline;overflow:visible;vector-effect:none;fill:#3b8f32;fill-opacity:1;stroke-width:0.127283;stop-color:#000000"
         id="path75" /><path
         d="m 332.80478,202.00015 c -0.73558,0 -0.79678,0.0381 -0.80078,0.7168 -0.003,0.0286 -0.004,0.0585 -0.004,0.0879 v 3.39062 c 0,0.78485 0.0319,0.80453 0.80469,0.80469 h 3.39062 c 0.0262,0 0.0525,-0.002 0.0781,-0.004 0.64495,-0.003 0.71865,-0.0651 0.72265,-0.71289 0.003,-0.0286 0.004,-0.0585 0.004,-0.0879 v -3.39062 c 0,-0.0262 -0.002,-0.0525 -0.004,-0.0781 -0.004,-0.65485 -0.0749,-0.71965 -0.71289,-0.72265 -0.0286,-0.003 -0.0585,-0.004 -0.0879,-0.004 z"
         style="display:inline;enable-background:new;baseline-shift:baseline;overflow:visible;vector-effect:none;fill:#ffffff;fill-opacity:1;stroke-width:0.127283;stop-color:#000000;opacity:0.1"
         id="path75-6" /><rect
         style="display:inline;enable-background:new;opacity:1;fill:#f9f9f9;fill-opacity:1;stroke:none;stroke-width:0.988581;stroke-dasharray:none;stroke-opacity:1"
         id="rect75"
         width="1"
         height="4"
         x="334"
         y="203"
         ry="0" /><rect
         style="display:inline;enable-background:new;fill:#f9f9f9;fill-opacity:1;stroke:none;stroke-width:0.856136;stroke-dasharray:none;stroke-opacity:1;opacity:0.3"
         id="rect75-0"
         width="1"
         height="3"
         x="333"
         y="204"
         ry="0" /><rect
         style="display:inline;enable-background:new;opacity:0.6;fill:#f9f9f9;fill-opacity:1;stroke:none;stroke-width:0.699032;stroke-dasharray:none;stroke-opacity:1"
         id="rect75-0-1"
         width="1"
         height="2"
         x="335"
         y="205"
         ry="0" /></g></g></svg>
